<?xml version="1.0" encoding="iso-8859-1"?>
<!-- Generator: Adobe Illustrator 16.0.0, SVG Export Plug-In . SVG Version: 6.00 Build 0)  -->
<!DOCTYPE svg PUBLIC "-//W3C//DTD SVG 1.1//EN" "http://www.w3.org/Graphics/SVG/1.1/DTD/svg11.dtd">
<svg version="1.1" id="Capa_1" xmlns="http://www.w3.org/2000/svg" xmlns:xlink="http://www.w3.org/1999/xlink" x="0px" y="0px"
	 width="142.162px" height="142.162px" viewBox="0 0 142.162 142.162" style="enable-background:new 0 0 142.162 142.162;"
	 xml:space="preserve">
<g>
	<g>
		<path d="M93.487,45.954V33.207h5.604v-5.603v-6.95v-5.603h-5.604h-5.604V0h-33.62v15.051h-5.603h-5.603v5.603v6.95v5.603h5.603
			v12.747c-22.644,9.094-37.587,30.96-37.587,55.645c0,14.09,4.999,27.781,14.062,38.571l1.683,1.992h2.61h83.303h2.606l1.686-2.002
			c9.06-10.791,14.063-24.483,14.063-38.562C131.08,76.914,116.137,55.042,93.487,45.954z M112.732,136.564H29.424
			c-7.951-9.462-12.747-21.642-12.747-34.961c0-24.176,15.772-44.635,37.586-51.718V27.604h-5.603v-6.95h7.184l7.911,19.27h14.635
			l7.911-19.27h7.185v6.95h-5.604v22.271c21.819,7.083,37.593,27.554,37.593,51.725C125.477,114.923,120.68,127.103,112.732,136.564
			z"/>
		<path d="M112.547,76.109H29.611c-4.608,7.497-7.33,16.213-7.33,25.489c0,10.599,3.48,20.927,9.844,29.356h77.904
			c6.364-8.438,9.844-18.769,9.844-29.356C119.873,92.322,117.154,83.612,112.547,76.109z M89.569,78.687
			c2.047,0,3.704,1.658,3.704,3.711c0,2.046-1.657,3.709-3.704,3.709c-2.041,0-3.702-1.663-3.702-3.709
			C85.867,80.345,87.528,78.687,89.569,78.687z M88.239,112.104c-4.706,0-8.525-3.819-8.525-8.521c0-4.706,3.833-8.53,8.525-8.53
			c4.706,0,8.526,3.824,8.526,8.53C96.771,108.29,92.945,112.104,88.239,112.104z M102.229,95.054c-3.012,0-5.458-2.446-5.458-5.45
			c0-3.01,2.446-5.455,5.458-5.455c3.007,0,5.453,2.439,5.453,5.455S105.235,95.054,102.229,95.054z"/>
	</g>
</g>
<g>
</g>
<g>
</g>
<g>
</g>
<g>
</g>
<g>
</g>
<g>
</g>
<g>
</g>
<g>
</g>
<g>
</g>
<g>
</g>
<g>
</g>
<g>
</g>
<g>
</g>
<g>
</g>
<g>
</g>
</svg>
