<?xml version="1.0" encoding="iso-8859-1"?>
<!-- Generator: Adobe Illustrator 16.0.0, SVG Export Plug-In . SVG Version: 6.00 Build 0)  -->
<!DOCTYPE svg PUBLIC "-//W3C//DTD SVG 1.1//EN" "http://www.w3.org/Graphics/SVG/1.1/DTD/svg11.dtd">
<svg version="1.1" id="Capa_1" xmlns="http://www.w3.org/2000/svg" xmlns:xlink="http://www.w3.org/1999/xlink" x="0px" y="0px"
	 width="162.764px" height="162.765px" viewBox="0 0 162.764 162.765" style="enable-background:new 0 0 162.764 162.765;"
	 xml:space="preserve">
<g>
	<g>
		<path d="M99.823,50.956c-1.256-10.09-1.13-44.556,0-50.956H84.532c0.504,11.072,2.058,38.695,0,50.956H99.823z"/>
		<path d="M84.532,55.905c0.504,11.064,2.058,38.695,0,50.953h15.291c-1.256-10.091-1.13-44.548,0-50.953H84.532z"/>
		<path d="M84.532,111.81c0.504,11.071,2.058,38.694,0,50.955h15.291c-1.256-10.09-1.13-44.559,0-50.955H84.532z"/>
		<path d="M58.975,69.306c0.504,8.17,2.053,28.522,0,37.552h15.292c-1.26-7.442-1.132-32.821,0-37.552H58.975z"/>
		<path d="M58.975,111.81c0.504,11.071,2.053,38.694,0,50.955h15.292c-1.26-10.09-1.132-44.559,0-50.955H58.975z"/>
		<path d="M85.371,53.141l-0.459-1.22c-12.249-5.543-20.338-11.095-24.856-14.627c1.341-1.236,6.042-5.961,7.486-12.561
			c1.683-7.721,0.235-24.044,0.235-24.044s-8.145,14.222-9.827,21.932c-1.345,6.112,0.491,11.888,1.335,14.058
			c-1.983-1.592-3.074-2.61-3.407-2.941c-0.785-3.324-2.865-9.822-7.875-14.837C41.01,11.896,22.794,2.386,22.794,2.386
			s9.516,18.216,16.514,25.215c5.727,5.732,13.391,7.628,16.014,8.143c1.071,0.993,3.06,2.711,6.193,4.987
			c-2.651-0.817-6.053-1.463-9.695-1.021c-7.837,0.953-22.755,7.757-22.755,7.757s16.121,2.968,23.965,1.992
			c6.053-0.739,10.827-4.269,12.698-5.844c4.61,2.999,10.685,6.473,18.414,9.97l0.38,0.084L85.371,53.141z"/>
		<path d="M59.883,109.429l-0.751-1.067c-10.83-1.882-19.986-7.047-25.96-11.174c1.097-1.68,3.048-5.208,3.156-9.384
			c0.138-5.828-3.182-17.453-3.182-17.453s-3.924,11.445-4.069,17.266c-0.08,3.201,0.93,6.053,1.86,8.011
			c-3.095-2.298-4.949-4.016-4.998-4.059l-0.061-0.022c-0.709-2.605-2.288-6.83-5.612-10.156
			C15.111,76.222,1.664,69.212,1.664,69.212S8.69,82.648,13.859,87.815c4.247,4.268,9.962,5.656,11.86,6.014
			c1.861,1.592,6.126,5.017,11.997,8.388c-1.914-0.837-5.519-2.084-9.48-1.603c-5.778,0.711-16.788,5.729-16.788,5.729
			s11.901,2.189,17.689,1.467c5.586-0.69,9.655-4.542,9.917-4.805c5.505,3.021,12.25,5.877,19.76,7.18l0.157,0.016L59.883,109.429z"
			/>
		<path d="M119.204,100.334c5.673-3.797,8.841-6.752,9.609-7.518c2.844-0.58,10.222-2.529,15.773-8.093
			c6.999-7.005,16.515-25.216,16.515-25.216s-18.216,9.508-25.215,16.507c-5.159,5.168-7.223,11.955-7.956,15.171l-0.158,0.065
			c-0.045,0.044-2.414,2.452-7.074,5.811c1.388-2.536,3.386-7.102,3.25-12.317c-0.191-7.89-5.505-23.395-5.505-23.395
			s-4.505,15.751-4.309,23.647c0.154,6.261,3.344,11.438,4.679,13.341c-4.65,3.169-11.025,6.945-19.349,10.381l-0.497,1.203
			l0.855,0.574l0.35-0.065c5.828-2.412,10.624-4.951,14.671-7.349c1.71,1.479,6.592,5.22,12.868,5.988
			c7.841,0.973,23.962-1.993,23.962-1.993s-14.917-6.797-22.753-7.76C125.276,98.868,121.851,99.519,119.204,100.334z"/>
	</g>
</g>
<g>
</g>
<g>
</g>
<g>
</g>
<g>
</g>
<g>
</g>
<g>
</g>
<g>
</g>
<g>
</g>
<g>
</g>
<g>
</g>
<g>
</g>
<g>
</g>
<g>
</g>
<g>
</g>
<g>
</g>
</svg>
