<?xml version="1.0" encoding="iso-8859-1"?>
<!-- Generator: Adobe Illustrator 16.0.0, SVG Export Plug-In . SVG Version: 6.00 Build 0)  -->
<!DOCTYPE svg PUBLIC "-//W3C//DTD SVG 1.1//EN" "http://www.w3.org/Graphics/SVG/1.1/DTD/svg11.dtd">
<svg version="1.1" id="Capa_1" xmlns="http://www.w3.org/2000/svg" xmlns:xlink="http://www.w3.org/1999/xlink" x="0px" y="0px"
	 width="140.082px" height="140.082px" viewBox="0 0 140.082 140.082" style="enable-background:new 0 0 140.082 140.082;"
	 xml:space="preserve">
<g>
	<g>
		<path d="M65.914,33.535c-0.79,1.171-2.138,4.249-0.347,4.859c1.772,0.599,2.31-2.528,2.533-3.083
			c0.512-1.259,1.078-2.687,0.32-2.991C67.66,32.017,66.496,32.662,65.914,33.535z"/>
		<path d="M66.287,54.723c-0.791,1.171-2.134,4.251-0.348,4.856c1.781,0.602,2.315-2.525,2.539-3.08
			c0.509-1.262,1.076-2.69,0.317-2.994C68.041,53.198,66.875,53.847,66.287,54.723z"/>
		<path d="M69.378,114.359c-1.417,1.231,1.012,3.272,1.38,3.748c0.826,1.071,1.779,2.288,2.434,1.772
			c0.635-0.492,0.668-1.827,0.209-2.77C72.777,115.843,70.806,113.127,69.378,114.359z"/>
		<path d="M126.074,140.082c0-34.324-30.961-42.228-30.961-78.365c0-36.144,16.739-35.747,16.739-61.717H28.224
			c0,25.97,16.736,25.568,16.736,61.717c0,36.146-30.951,44.041-30.951,78.365H126.074z M71.529,128.395
			c-1.45,1.127-3.408-1.028-3.904-2.282c-0.486-1.247-4.999-11.885-1.792-14.67c3.188-2.77,8.166,2.436,9.265,5.418
			C76.455,120.509,72.973,127.262,71.529,128.395z M76.432,94.436c-0.723,0.831-6.654,8.082-10.745,7.76
			c-4.101-0.34-2.822-5.286-1.068-7.246c2.144-2.386,9.608-3.764,11.355-3.557C77.734,91.611,77.143,93.609,76.432,94.436z
			 M76.596,33.983c-0.832,1.054-7.752,10.313-11.766,8.95c-4.007-1.363-2.019-8.282,0-10.736c2.472-3.01,10.061-3.406,11.766-2.73
			C78.303,30.15,77.427,32.93,76.596,33.983z M77.175,55.937c0.428,1.781-7.964,9.543-11.97,8.175
			c-4.007-1.359-2.018-8.276,0-10.736C67.682,50.369,76.576,53.429,77.175,55.937z M68.62,11.923
			c3.152,0.651,8.088,6.411,8.788,8.031c0.7,1.625-1.32,2.123-2.398,1.92c-1.084-0.2-10.336-1.675-12.106-5.378
			C61.126,12.782,66.046,11.393,68.62,11.923z M69.088,72.229c3.885-0.219,9.324,5.09,9.981,6.808
			c0.646,1.718-1.984,2.955-3.328,3.063c-1.332,0.099-12.834,1.282-14.555-2.593C59.48,75.634,65.918,72.411,69.088,72.229z"/>
		<path d="M69.682,94.249c-0.723,0.033-3.63,1.056-4.34,2.151c-0.585,0.88-0.782,2.948,0.89,2.834
			c1.664-0.126,3.584-3.407,3.821-3.79C70.282,95.065,70.39,94.217,69.682,94.249z"/>
		<path d="M70.932,16.865c0.443,0.014,1.227-0.317,0.84-0.917c-0.383-0.607-2.735-2.607-4.039-2.673
			c-1.061-0.056-2.948,0.818-2.001,2.194C66.68,16.842,70.484,16.854,70.932,16.865z"/>
		<path d="M69.009,76.739c1.272-0.471,2.706-1.029,2.416-1.789c-0.288-0.761-1.546-1.184-2.589-1.024
			c-1.393,0.219-4.565,1.309-3.814,3.032C65.783,78.682,68.448,76.958,69.009,76.739z"/>
	</g>
</g>
<g>
</g>
<g>
</g>
<g>
</g>
<g>
</g>
<g>
</g>
<g>
</g>
<g>
</g>
<g>
</g>
<g>
</g>
<g>
</g>
<g>
</g>
<g>
</g>
<g>
</g>
<g>
</g>
<g>
</g>
</svg>
