<?xml version="1.0" encoding="iso-8859-1"?>
<!-- Generator: Adobe Illustrator 16.0.0, SVG Export Plug-In . SVG Version: 6.00 Build 0)  -->
<!DOCTYPE svg PUBLIC "-//W3C//DTD SVG 1.1//EN" "http://www.w3.org/Graphics/SVG/1.1/DTD/svg11.dtd">
<svg version="1.1" id="Capa_1" xmlns="http://www.w3.org/2000/svg" xmlns:xlink="http://www.w3.org/1999/xlink" x="0px" y="0px"
	 width="203.094px" height="203.094px" viewBox="0 0 203.094 203.094" style="enable-background:new 0 0 203.094 203.094;"
	 xml:space="preserve">
<g>
	<g>
		<path d="M121.356,135.289l6.255-1.674L91.816,0L66.591,6.763l35.797,133.615l7.8-2.091c-1.607,13.848-7.019,41.588-25.102,52.467
			c11.923,8.18,29.584,13.772,42.854,12.017c0.998-0.126,14.566-15.421,3.146-46.742c12.864,21.057,7.135,37.992,2.741,45.932
			C156.662,179.301,133.323,148.356,121.356,135.289z"/>
		<path d="M72.628,165.527c5.752-5.941,2.808-13.636-3.855-13.658c-5.562-0.032-9.844,6.923-9.053,12.997
			c0.721,5.651,7.428,13.066,17.329,15.135C70.44,175.64,68.313,169.971,72.628,165.527z"/>
		<path d="M87.086,166.491c5.72,0.351,8.41-4.657,5.442-8.17c-2.491-2.938-8.075-2.03-10.9,1.116
			c-2.649,2.917-3.525,9.783-0.128,15.902C80.809,169.895,82.828,166.235,87.086,166.491z"/>
	</g>
</g>
<g>
</g>
<g>
</g>
<g>
</g>
<g>
</g>
<g>
</g>
<g>
</g>
<g>
</g>
<g>
</g>
<g>
</g>
<g>
</g>
<g>
</g>
<g>
</g>
<g>
</g>
<g>
</g>
<g>
</g>
</svg>
