<?xml version="1.0" encoding="iso-8859-1"?>
<!-- Generator: Adobe Illustrator 16.0.0, SVG Export Plug-In . SVG Version: 6.00 Build 0)  -->
<!DOCTYPE svg PUBLIC "-//W3C//DTD SVG 1.1//EN" "http://www.w3.org/Graphics/SVG/1.1/DTD/svg11.dtd">
<svg version="1.1" id="Capa_1" xmlns="http://www.w3.org/2000/svg" xmlns:xlink="http://www.w3.org/1999/xlink" x="0px" y="0px"
	 width="207.717px" height="207.717px" viewBox="0 0 207.717 207.717" style="enable-background:new 0 0 207.717 207.717;"
	 xml:space="preserve">
<g>
	<g>
		<path d="M171.616,36.818c0-3.443-2.347-6.413-6.98-7.994c3.228-3.686,3.783-7.427,2.045-10.418
			c-1.726-2.981-5.23-4.38-10.036-3.431c0.958-4.812-0.438-8.323-3.429-10.04c-2.99-1.72-6.738-1.182-10.426,2.045
			c-1.572-4.643-4.54-6.987-7.992-6.981c-3.439,0-6.419,2.344-8.003,6.981c-3.688-3.239-7.43-3.777-10.408-2.051
			c-2.997,1.717-4.404,5.234-3.446,10.046c-4.797-0.949-8.313,0.449-10.025,3.425c-1.732,2.991-1.194,6.732,2.04,10.418
			c-4.649,1.578-6.987,4.545-6.987,7.994H48.433h-9.572l3.957,8.716c5.798,12.746,3.085,20.652-0.653,31.596
			c-2.846,8.299-6.064,17.697-6.064,30.617c0,29.046,29.997,38.586,48.675,39.922v46.802c-25.641,1.123-42.501,13.252-42.501,13.252
			h42.501h7.504h42.507c0,0-16.857-12.142-42.507-13.252v-46.813c18.864-1.395,48.678-10.953,48.678-39.91
			c0-12.926-3.221-22.324-6.064-30.623c-0.431-1.277-0.851-2.512-1.253-3.712l1.158,0.225c3.44,0.006,6.408-2.335,7.986-6.983
			c3.682,3.23,7.43,3.783,10.426,2.057c2.991-1.723,4.393-5.24,3.429-10.051c4.806,0.955,8.322-0.443,10.042-3.428
			c1.738-2.997,1.183-6.735-2.045-10.415C169.276,43.24,171.616,40.271,171.616,36.818z M88.532,141.676
			c0,0-46.263-0.769-46.263-33.922c0-28.922,17.732-39.328,6.165-64.768h80.183c-11.562,25.446,6.176,35.846,6.176,64.768
			C134.786,140.907,88.532,141.676,88.532,141.676z M134.786,49.681c-0.721,0-1.406-0.101-2.092-0.216
			c0.438-1.274,0.91-2.562,1.537-3.928l3.96-8.719h-9.575h-6.691c0-7.104,5.757-12.861,12.861-12.861
			c7.105,0,12.862,5.763,12.862,12.861C147.648,43.92,141.892,49.681,134.786,49.681z"/>
		<path d="M120.849,73.826H56.206c-0.727,2.482-1.555,4.902-2.374,7.3c-2.657,7.746-5.405,15.761-5.405,26.628
			c0,26.125,37.891,27.68,40.104,27.745c2.84-0.071,40.084-1.549,40.084-27.745c0-10.867-2.743-18.882-5.391-26.628
			C122.403,78.729,121.57,76.309,120.849,73.826z"/>
	</g>
</g>
<g>
</g>
<g>
</g>
<g>
</g>
<g>
</g>
<g>
</g>
<g>
</g>
<g>
</g>
<g>
</g>
<g>
</g>
<g>
</g>
<g>
</g>
<g>
</g>
<g>
</g>
<g>
</g>
<g>
</g>
</svg>
