<?xml version="1.0" encoding="iso-8859-1"?>
<!-- Generator: Adobe Illustrator 16.0.0, SVG Export Plug-In . SVG Version: 6.00 Build 0)  -->
<!DOCTYPE svg PUBLIC "-//W3C//DTD SVG 1.1//EN" "http://www.w3.org/Graphics/SVG/1.1/DTD/svg11.dtd">
<svg version="1.1" id="Capa_1" xmlns="http://www.w3.org/2000/svg" xmlns:xlink="http://www.w3.org/1999/xlink" x="0px" y="0px"
	 width="167.423px" height="167.423px" viewBox="0 0 167.423 167.423" style="enable-background:new 0 0 167.423 167.423;"
	 xml:space="preserve">
<g>
	<g>
		<path d="M10.666,146.064l13.448-13.621h97.688c1.492,0,2.941-0.536,4.073-1.517l39.385-33.959
			c2.606-2.241,2.898-6.187,0.651-8.793c-2.246-2.605-6.187-2.898-8.792-0.646l-37.638,32.449H21.507
			c-1.666,0-3.267,0.664-4.433,1.851L1.797,137.302c-2.417,2.454-2.394,6.4,0.058,8.817C4.299,148.543,8.245,148.519,10.666,146.064
			z"/>
		<path d="M30.687,55.659h18.676c0,0,6.795-36.158,37.348-36.158C40.874,19.501,30.687,55.659,30.687,55.659z"/>
		<path d="M86.71,19.501c30.549,0,37.351,36.158,37.351,36.158h18.67C142.724,55.659,132.537,19.501,86.71,19.501z"/>
		<path d="M68.034,55.659h37.345c0,0-3.397-36.158-18.675-36.158C71.426,19.501,68.034,55.659,68.034,55.659z"/>
		<rect x="84.365" y="53.796" width="4.677" height="72.412"/>
	</g>
</g>
<g>
</g>
<g>
</g>
<g>
</g>
<g>
</g>
<g>
</g>
<g>
</g>
<g>
</g>
<g>
</g>
<g>
</g>
<g>
</g>
<g>
</g>
<g>
</g>
<g>
</g>
<g>
</g>
<g>
</g>
</svg>
