<?xml version="1.0" encoding="iso-8859-1"?>
<!-- Generator: Adobe Illustrator 16.0.0, SVG Export Plug-In . SVG Version: 6.00 Build 0)  -->
<!DOCTYPE svg PUBLIC "-//W3C//DTD SVG 1.1//EN" "http://www.w3.org/Graphics/SVG/1.1/DTD/svg11.dtd">
<svg version="1.1" id="Capa_1" xmlns="http://www.w3.org/2000/svg" xmlns:xlink="http://www.w3.org/1999/xlink" x="0px" y="0px"
	 width="180.295px" height="180.295px" viewBox="0 0 180.295 180.295" style="enable-background:new 0 0 180.295 180.295;"
	 xml:space="preserve">
<g>
	<g>
		<path d="M104.799,94.903c-1.099-0.055-2.2-0.104-3.316-0.143c-1.131-0.044-2.255-0.087-3.393-0.12
			c-1.16-0.027-2.326-0.05-3.502-0.063c-1.455-0.029-2.931-0.052-4.437-0.052c-1.508,0-2.98,0.018-4.438,0.052
			c-1.171,0.014-2.343,0.036-3.503,0.063c-1.143,0.033-2.263,0.076-3.389,0.12c-1.118,0.044-2.225,0.093-3.322,0.143
			C32.694,96.949,0,107.772,0,120.851c0,14.54,40.36,26.32,90.151,26.32c49.789,0,90.144-11.78,90.144-26.32
			C180.295,107.772,147.595,96.949,104.799,94.903z M143.656,104.633c0,4.903-23.952,8.881-53.504,8.881
			c-29.553,0-53.512-3.978-53.512-8.881c0-1.429,2.077-2.775,5.686-3.968c3.838-0.711,7.997-1.34,12.43-1.871
			c-1.56,0.717-2.449,1.493-2.449,2.314c0,3.634,16.939,6.576,37.839,6.576c20.892,0,37.841-2.942,37.841-6.576
			c0-0.821-0.893-1.592-2.446-2.314c4.431,0.531,8.591,1.16,12.42,1.871C141.582,101.857,143.656,103.21,143.656,104.633z
			 M121.5,99.247c0,2.293-14.035,4.148-31.348,4.148c-17.32,0-31.357-1.86-31.357-4.148c0-0.338,0.411-0.673,1.003-0.99
			c9.287-0.919,19.533-1.438,30.354-1.438c10.819,0,21.072,0.52,30.354,1.438C121.094,98.569,121.5,98.897,121.5,99.247z
			 M90.145,130.001c-41.25,0-74.697-7.432-74.697-16.592c0-3.639,5.334-6.992,14.271-9.729c-2.644,1.542-4.157,3.195-4.157,4.936
			c0,7.78,28.911,14.096,64.579,14.096c35.66,0,64.576-6.304,64.576-14.096c0-1.74-1.513-3.394-4.155-4.936
			c8.937,2.736,14.273,6.09,14.273,9.729C164.843,122.574,131.394,130.001,90.145,130.001z"/>
		<path d="M90.145,33.124c-8.208,0-14.864,6.654-14.864,14.865c0,8.215,14.864,33.524,14.864,33.524s14.863-25.31,14.863-33.524
			C105.008,39.773,98.355,33.124,90.145,33.124z"/>
		<path d="M90.145,86.881c-1.401,0-2.538,1.833-2.538,4.082c0,2.255,2.538,9.221,2.538,9.221s2.54-6.96,2.54-9.221
			C92.685,88.708,91.545,86.881,90.145,86.881z"/>
	</g>
</g>
<g>
</g>
<g>
</g>
<g>
</g>
<g>
</g>
<g>
</g>
<g>
</g>
<g>
</g>
<g>
</g>
<g>
</g>
<g>
</g>
<g>
</g>
<g>
</g>
<g>
</g>
<g>
</g>
<g>
</g>
</svg>
