<?xml version="1.0" encoding="iso-8859-1"?>
<!-- Generator: Adobe Illustrator 16.0.0, SVG Export Plug-In . SVG Version: 6.00 Build 0)  -->
<!DOCTYPE svg PUBLIC "-//W3C//DTD SVG 1.1//EN" "http://www.w3.org/Graphics/SVG/1.1/DTD/svg11.dtd">
<svg version="1.1" id="Capa_1" xmlns="http://www.w3.org/2000/svg" xmlns:xlink="http://www.w3.org/1999/xlink" x="0px" y="0px"
	 width="176.876px" height="176.876px" viewBox="0 0 176.876 176.876" style="enable-background:new 0 0 176.876 176.876;"
	 xml:space="preserve">
<g>
	<g>
		<path d="M36.559,100.866C36.559,93.205,0,73.746,0,86.129c0,12.384,0,14.736,0,14.736c0,14.845,5.699,26.046,15.403,34.249
			l3.968,18.808h3.475l2.554-12.126c16.042,8.568,38.343,12.126,63.038,12.126c24.695,0,46.994-3.558,63.038-12.126l2.555,12.126
			h3.475l3.968-18.808c9.702-8.203,15.403-19.404,15.403-34.249H36.559z"/>
		<path d="M76.499,68.137l6.757-6.752l0.392,0.074c0.817,0.14,1.594-0.09,2.122-0.616l8.654-8.66
			c-2.353-0.66,0.448-3.877-1.265-5.584L82.338,57.423c-0.535,0.534-0.759,1.3-0.614,2.118l0.068,0.399l-6.756,6.753v1.45h1.463
			V68.137z"/>
		<path d="M77.58,69.229l6.208-6.212c1.167,0.096,2.265-0.296,3.059-1.093l14.44-14.441c2.358,2.005,4.24,3.16,4.667,2.723
			l5.904-5.905c0.318-0.32-0.219-1.411-1.312-2.902l7.859-7.861c2.428-2.421,2.428-6.35,0-8.763c-2.419-2.427-6.345-2.427-8.769,0
			l-7.863,7.86c-1.48-1.094-2.587-1.63-2.905-1.31l-5.899,5.899c-0.426,0.432,0.713,2.314,2.726,4.667L81.268,56.337
			c-0.803,0.801-1.19,1.904-1.094,3.07l-6.214,6.197c-0.998,1.004-0.998,2.624,0,3.62C74.958,70.223,76.581,70.223,77.58,69.229z
			 M74.503,66.149l6.476-6.478c-0.171-0.993,0.063-2.03,0.831-2.796l14.411-14.402c0.654,0.746,1.377,1.523,2.176,2.325
			c0.794,0.792,1.578,1.519,2.32,2.186L86.323,61.374c-0.764,0.774-1.808,1.01-2.798,0.835l-6.479,6.474
			c-0.7,0.694-1.835,0.694-2.535,0C73.803,67.987,73.803,66.85,74.503,66.149z"/>
		<path d="M73.216,89.199c2.396,0,4.347-1.953,4.347-4.345c0-2.393-4.347-10.722-4.347-10.722s-4.352,8.329-4.352,10.722
			C68.865,87.246,70.81,89.199,73.216,89.199z"/>
	</g>
</g>
<g>
</g>
<g>
</g>
<g>
</g>
<g>
</g>
<g>
</g>
<g>
</g>
<g>
</g>
<g>
</g>
<g>
</g>
<g>
</g>
<g>
</g>
<g>
</g>
<g>
</g>
<g>
</g>
<g>
</g>
</svg>
