<?xml version="1.0" encoding="iso-8859-1"?>
<!-- Generator: Adobe Illustrator 16.0.0, SVG Export Plug-In . SVG Version: 6.00 Build 0)  -->
<!DOCTYPE svg PUBLIC "-//W3C//DTD SVG 1.1//EN" "http://www.w3.org/Graphics/SVG/1.1/DTD/svg11.dtd">
<svg version="1.1" id="Capa_1" xmlns="http://www.w3.org/2000/svg" xmlns:xlink="http://www.w3.org/1999/xlink" x="0px" y="0px"
	 width="166.678px" height="166.678px" viewBox="0 0 166.678 166.678" style="enable-background:new 0 0 166.678 166.678;"
	 xml:space="preserve">
<g>
	<g>
		<path d="M150.083,84.115c13.483-5.69,13.257-22.692-1.928-25.857c13.376-10.881,2.366-24.755-9.745-21.992
			c5.304-13.645-6.121-21.989-18.129-15.864c0.231-10.875-13.604-17.207-21.297-9.1C93.535,1.138,88.323,0,83.341,0
			S73.143,1.133,67.697,11.303c-7.7-8.107-21.527-1.776-21.298,9.1c-12.014-6.125-23.433,2.219-18.129,15.864
			c-12.106-2.764-23.119,11.105-9.749,21.992C3.337,61.423,3.113,78.431,16.593,84.115c-13.935,7.007-8.722,26.726,7.823,25.587
			c-11.79,9.298-5.568,23.168,10.2,22.178c25.158-1.586,29.46,34.798,48.73,34.798c19.267,0,23.573-36.384,48.734-34.798
			c15.764,0.99,21.986-12.88,10.193-22.178C158.81,110.835,164.021,91.122,150.083,84.115z M83.336,138.939
			c-16.339,0-29.579-13.237-29.579-29.576c0-16.328,13.24-29.576,29.579-29.576c16.338,0,29.577,13.248,29.577,29.576
			C112.913,125.702,99.674,138.939,83.336,138.939z"/>
	</g>
</g>
<g>
</g>
<g>
</g>
<g>
</g>
<g>
</g>
<g>
</g>
<g>
</g>
<g>
</g>
<g>
</g>
<g>
</g>
<g>
</g>
<g>
</g>
<g>
</g>
<g>
</g>
<g>
</g>
<g>
</g>
</svg>
