<?xml version="1.0" encoding="iso-8859-1"?>
<!-- Generator: Adobe Illustrator 16.0.0, SVG Export Plug-In . SVG Version: 6.00 Build 0)  -->
<!DOCTYPE svg PUBLIC "-//W3C//DTD SVG 1.1//EN" "http://www.w3.org/Graphics/SVG/1.1/DTD/svg11.dtd">
<svg version="1.1" id="Capa_1" xmlns="http://www.w3.org/2000/svg" xmlns:xlink="http://www.w3.org/1999/xlink" x="0px" y="0px"
	 width="183.899px" height="183.899px" viewBox="0 0 183.899 183.899" style="enable-background:new 0 0 183.899 183.899;"
	 xml:space="preserve">
<g>
	<g>
		<path d="M182.313,108.87c-0.038-1.265-1.106-14.4-2.475-30.701c-9.505-19.538-25.312-35.39-44.762-44.977
			c-0.667-1.47-1.552-2.769-2.615-3.828c-3.708-3.71-9.021-4.602-14.61-2.747c-3.834-1.053-7.779-1.847-11.786-2.424
			c1.084-4.564,0.029-8.906-3.021-11.948c-2.293-2.29-5.257-3.502-8.563-3.502c-2.726,0-6.769,0.875-11.505,4.624
			c-3.4-8.49-9.962-12.854-16.826-10.999c-5.459,1.467-10.709,7.031-9.067,17.935c-9.105-1.327-16.132,2.326-17.935,9.078
			c-0.796,2.952-0.416,5.934,1.013,8.662C24.681,47.737,12.1,61.622,4.054,78.169C2.686,94.47,1.611,107.61,1.579,108.87
			c-0.091,2.802-2.989,15.354-0.701,24.153l0.544-1.161c0.755-0.502,4.139-2.227,5.215-1.285c1.088,0.941,0.668,1.274,0.731,5.401
			l-4.428,2.467c0.723,1.325,1.781,2.451,3.737,2.829c3.478,0.679,6.091-1.312,6.091-1.312s2.295,16.323,5.731,18.271
			c3.45,1.942,5.951,1.467,5.951,1.467s2.601,6.228,5.946,7.792c3.353,1.57,6.593,0.892,6.593,0.892s0.135,9.675,7.935,10.846
			c7.812,1.172,10.053-5.719,10.053-5.719s2.634,8.979,14.136,8.418c18.686-0.926,18.931-15.181,18.686-20.067
			c-0.25-4.887-0.877-13.324-0.455-28.788c0.396-14.878,1.652-31.649,0.996-40.521c1.912-0.941,3.832-2.161,5.709-3.753
			c0.46,1.272,0.987,2.438,1.542,3.554c-0.696,8.808,0.581,25.738,0.98,40.72c0.421,15.464-0.208,23.901-0.449,28.788
			c-0.252,4.881,0,19.142,18.677,20.067c11.508,0.562,14.146-8.418,14.146-8.418s2.231,6.891,10.045,5.719
			c7.805-1.171,7.94-10.846,7.94-10.846s3.241,0.679,6.588-0.892c3.344-1.564,5.944-7.792,5.944-7.792s2.499,0.476,5.952-1.467
			c3.437-1.953,5.739-18.271,5.739-18.271s2.605,1.991,6.085,1.312c1.96-0.378,3.016-1.504,3.743-2.829l-4.427-2.467
			c0.057-4.127-0.367-4.454,0.725-5.401c1.064-0.936,4.459,0.788,5.212,1.285l0.542,1.161
			C185.302,124.224,182.407,111.672,182.313,108.87z M17.951,155.641c-0.056-1.32-1.368-5.123,0.459-6.344
			c0.752-0.504,2.437-0.936,3.523,0c1.073,0.941,1.737,2.211,1.789,6.344H17.951z M28.669,164.164c-0.068-1.318,0-5.637,2.117-6.856
			c0.877-0.504,3.044-0.662,4.3,0.279c1.266,0.94,1.127,3.103,1.193,7.239L28.669,164.164z M40.738,174.162
			c-0.072-1.259,0-5.401,2.449-6.572c1.009-0.487,3.501-0.63,4.949,0.268c1.45,0.903,1.293,2.978,1.366,6.94L40.738,174.162z
			 M52.859,62.429c-3.198-3.198-2.68-8.902,3.721-15.308c1.955-1.938,4.5-3.423,7.121-4.55c-2.834,0.332-5.78,0.32-8.437-0.391
			c-8.748-2.336-12.053-7.021-10.881-11.393c1.165-4.369,6.38-6.774,15.121-4.432c2.651,0.717,5.224,2.191,7.508,3.896
			c-1.707-2.293-3.175-4.859-3.887-7.51c-2.342-8.742,0.051-13.951,4.426-15.127c4.373-1.166,9.056,2.145,11.404,10.881
			c0.71,2.662,0.717,5.614,0.369,8.444c1.137-2.622,2.622-5.177,4.562-7.122c6.399-6.399,12.103-6.925,15.303-3.732
			c1.728,1.722,2.312,4.175,1.558,7.057c-2.862-2.4-6.199-3.33-9.632-2.411c-5.454,1.467-10.575,7.822-7.067,20.912l0.383,1.261
			l-1.268-0.386l-1.368-0.287c0.717-1.396,0.994-3.032,0.555-4.662c-0.936-3.497-4.534-5.577-8.03-4.636
			c-3.496,0.936-5.576,4.534-4.628,8.031l0.582,1.16c-4.102,1.144-7.008,3.688-8.017,7.469c-0.935,3.497-0.01,7.057,2.589,10.008
			l1.144,1.064C60.508,65.156,55.688,65.271,52.859,62.429z M59.756,171.809c-0.149-2.146-0.011-9.192,4.898-11.18
			c2.035-0.826,7.05-1.071,9.959,0.466c2.904,1.531,2.598,5.056,2.754,11.786L59.756,171.809z M124.123,171.809l-17.612,1.066
			c0.146-6.729-0.155-10.259,2.75-11.786c2.913-1.535,7.918-1.286,9.954-0.465C124.128,162.616,124.276,169.663,124.123,171.809z
			 M120.91,75.154c-3.091-0.824-6.073-2.54-8.722-4.515c1.976,2.659,3.683,5.642,4.52,8.722c2.717,10.159-0.065,16.227-5.149,17.59
			c-5.081,1.357-10.533-2.498-13.25-12.665c-0.831-3.086-0.831-6.523-0.443-9.817c-1.33,3.047-3.036,6.03-5.301,8.287
			c-7.439,7.437-14.09,8.058-17.801,4.32c-3.727-3.721-3.116-10.353,4.321-17.8c2.262-2.247,5.234-3.978,8.287-5.292
			c-3.305,0.388-6.737,0.377-9.823-0.451c-10.158-2.72-14.007-8.165-12.654-13.249c1.363-5.086,7.426-7.877,17.591-5.155
			c3.086,0.834,6.073,2.544,8.729,4.534c-1.982-2.662-3.694-5.642-4.522-8.731c-2.722-10.164,0.063-16.221,5.139-17.589
			c5.088-1.354,10.538,2.496,13.26,12.654c0.821,3.092,0.827,6.528,0.434,9.817c1.323-3.047,3.053-6.019,5.301-8.276
			c7.438-7.442,14.076-8.052,17.802-4.342c3.727,3.732,3.115,10.367-4.323,17.806c-2.26,2.265-5.242,3.978-8.279,5.297
			c3.294-0.383,6.73-0.369,9.816,0.446c10.156,2.725,14.008,8.169,12.648,13.259C137.13,75.094,131.066,77.884,120.91,75.154z
			 M75.334,65.674c0.509,0.156,0.974,0.348,1.513,0.487l1.283,0.298l-0.966,0.9l-0.39,0.437
			C76.266,67.182,75.783,66.481,75.334,65.674z M134.372,174.798c0.073-3.969-0.08-6.037,1.367-6.94
			c1.447-0.897,3.94-0.755,4.949-0.268c2.45,1.171,2.516,5.318,2.45,6.572L134.372,174.798z M147.604,164.826
			c0.065-4.137-0.075-6.299,1.194-7.239c1.252-0.937,3.413-0.783,4.296-0.279c2.121,1.22,2.187,5.538,2.121,6.856L147.604,164.826z
			 M165.924,155.641h-5.773c0.061-4.137,0.717-5.402,1.791-6.344c1.089-0.936,2.773-0.504,3.522,0
			C167.293,150.518,165.978,154.32,165.924,155.641z"/>
		<path d="M101.7,52.533c4.207,0,7.615,3.409,7.615,7.617c0,4.205-3.408,7.614-7.615,7.614c-4.21,0-7.619-3.409-7.619-7.614
			C94.081,55.941,97.49,52.533,101.7,52.533z"/>
	</g>
</g>
<g>
</g>
<g>
</g>
<g>
</g>
<g>
</g>
<g>
</g>
<g>
</g>
<g>
</g>
<g>
</g>
<g>
</g>
<g>
</g>
<g>
</g>
<g>
</g>
<g>
</g>
<g>
</g>
<g>
</g>
</svg>
