<?xml version="1.0" encoding="iso-8859-1"?>
<!-- Generator: Adobe Illustrator 16.0.0, SVG Export Plug-In . SVG Version: 6.00 Build 0)  -->
<!DOCTYPE svg PUBLIC "-//W3C//DTD SVG 1.1//EN" "http://www.w3.org/Graphics/SVG/1.1/DTD/svg11.dtd">
<svg version="1.1" id="Capa_1" xmlns="http://www.w3.org/2000/svg" xmlns:xlink="http://www.w3.org/1999/xlink" x="0px" y="0px"
	 width="167.338px" height="167.339px" viewBox="0 0 167.338 167.339" style="enable-background:new 0 0 167.338 167.339;"
	 xml:space="preserve">
<g>
	<path d="M11.453,111.54c2.758-1.795,4.147-2.63,7.056-1.827c2.908,0.814,1.424,2.698,3.38,4.535
		c1.368,1.287,8.024,0.871,8.073-0.692c0.061-1.862-2.416-4.007-4.555-4.621c-1.936-0.562-3.101-3.074-4.064-4.273
		c-0.951-1.19-1.423-2.008-3.32-3.458c-3.667-2.802-6.026,4.547-6.026,4.547s-1.092,3.869-2.918,4.771
		c-1.828,0.887-3.417-1.849-5.486-0.196C1.52,111.983,0,116.684,0,116.684s3.17-2.353,4.833-1.937
		c1.657,0.41,1.242,4.416,1.242,4.416S8.698,113.335,11.453,111.54z M25.68,110.703l0.864,0.859l-0.864,0.849l-0.861-0.849
		L25.68,110.703z M61.278,72.117l-0.212-0.638l0.639-0.213l0.215,0.637L61.278,72.117z M62.936,100.169l0.731,0.733l-0.736,0.733
		l-0.728-0.733L62.936,100.169z M72.878,134.479c1.45-4.137,0.617-7.83,0.829-10.562c0.214-2.723,3.52-7.242,3.311-13.045
		c-0.208-5.8-2.973-19.152-5.176-33.354c-2.208-14.185,1.45-34.566,1.631-38.785c0.171-4.213-4.944-12.367-4.944-17.13
		c0-4.769,3.312-21.538,3.312-21.538L40.154,9.791c0,0,0,7.458,0,10.977c0,3.523-3.933,7.25-3.525,11.592
		c0.406,4.345,2.22,7.939,3.128,10.03c0.909,2.085-4.368,27.458-5.395,41.335c-1.038,13.882-0.272,24.859,0,30.867
		c0.267,5.998,1.55,8.284,3.808,8.187c0.437,2.791-0.184,7.13,4.389,5.866c-0.224,5.625,2.779,8.52,6.971,5.811
		c-0.052,6.545,5.231,8.805,7.809,5.21c1.255,3.092,2.786,5.401,7.151,5.165C68.854,144.597,71.426,138.626,72.878,134.479z
		 M50.958,65.534c1.434-0.304,1.53,1.445,2.65,1.466c1.12,0.023,2.626-1.604,2.626-1.604s3-3.012,4.097-0.722
		c0.572,1.188,0.588,1.71,0.764,2.523c0.166,0.829,0.117,2.364,0.924,3.122c0.894,0.841,1.574,2.52,1.074,3.412
		c-0.42,0.766-3.789-0.717-4.137-1.688c-0.498-1.378,0.701-1.937-0.525-3.064c-1.222-1.122-2.117-1.059-3.917-0.873
		c-1.802,0.188-4.545,2.386-4.545,2.386s1.202-1.861,0.497-2.477c-0.707-0.624-2.86-0.263-2.86-0.263S49.524,65.819,50.958,65.534z
		 M60.108,128.394c-0.371,1.467-2.304,4.832-2.304,4.832s-0.273-3.924,0.096-5.406c0.369-1.466,1.165-2.539,1.769-2.381
		C60.283,125.603,60.477,126.928,60.108,128.394z M59.721,103.168c-1.658-1.532-0.405-3.146-2.865-3.825
		c-2.458-0.685-3.642,0.016-5.973,1.537c-2.33,1.517-4.55,6.419-4.55,6.419s0.348-3.388-1.053-3.731
		c-1.401-0.356-4.09,1.642-4.09,1.642s1.282-3.979,3.042-5.385c1.749-1.406,3.105,0.914,4.646,0.164
		c1.546-0.749,2.471-4.033,2.471-4.033s1.996-6.216,5.105-3.857c1.608,1.242,2,1.932,2.807,2.917
		c0.814,1.033,1.804,3.152,3.44,3.623c1.81,0.524,3.911,2.346,3.855,3.918C66.512,103.911,60.876,104.235,59.721,103.168z
		 M30.812,135.748c-2.335,0.569-5.032-1.335-6.727-2.003c-1.699-0.657-2.668-1.22-5.485-1.609c-5.442-0.711-3.528,8.286-3.528,8.286
		s1.172,4.656-0.182,6.653c-1.369,1.991-4.641,0.121-5.795,3.054c-1.16,2.933,0.063,8.7,0.063,8.7s1.881-4.312,3.843-4.865
		c1.958-0.562,3.904,3.837,3.904,3.837s-0.727-7.558,1.055-11.048c1.781-3.492,2.722-5.172,6.201-6.063
		c3.48-0.902,3.074,1.954,6.17,2.665c2.17,0.509,8.815-3.853,7.935-5.5C37.223,135.857,33.39,135.113,30.812,135.748z
		 M33.19,139.212l-1.401-0.383l0.375-1.404l1.406,0.375C33.849,138.309,33.684,138.922,33.19,139.212z M163.054,110.823
		c-2.463-1.975-4.364,1.286-6.545,0.229c-2.172-1.05-3.469-5.668-3.469-5.668s-2.811-8.75-7.168-5.407
		c-2.244,1.729-2.813,2.698-3.95,4.109c-1.148,1.434-2.54,4.422-4.827,5.072c-2.55,0.75-5.505,3.311-5.439,5.505
		c0.079,1.872,8.002,2.337,9.631,0.815c2.309-2.161,0.558-4.41,4.017-5.368c3.46-0.963,5.122,0.038,8.395,2.184
		c3.283,2.14,6.418,9.025,6.418,9.025s-0.492-4.768,1.483-5.256c1.97-0.497,5.739,2.305,5.739,2.305
		S165.522,112.787,163.054,110.823z M136.755,113.356c-0.569,0-1.028-0.454-1.028-1.023c0-0.563,0.459-1.033,1.028-1.033
		s1.04,0.47,1.04,1.033C137.785,112.902,137.314,113.356,136.755,113.356z M133.276,153.691c-1.139-1.681-0.141-5.582-0.141-5.582
		s1.597-7.546-2.968-6.944c-2.364,0.328-3.168,0.799-4.591,1.353c-1.434,0.562-3.699,2.155-5.658,1.679
		c-2.162-0.535-5.379,0.102-6.249,1.74c-0.733,1.391,4.832,5.04,6.659,4.618c2.596-0.59,2.25-2.987,5.177-2.214
		c2.916,0.748,3.71,2.159,5.211,5.071c1.5,2.933,0.879,9.269,0.879,9.269s1.639-3.676,3.291-3.217
		c1.64,0.471,3.218,4.089,3.218,4.089s1.026-4.833,0.053-7.296C137.161,153.784,134.424,155.365,133.276,153.691z M117.905,147.108
		l-0.317-1.182l1.182-0.33l0.317,1.177L117.905,147.108z M117.447,128.646c4.572,1.28,3.951-3.075,4.389-5.854
		c2.247,0.093,3.544-2.194,3.812-8.198c0.274-6.008,1.041-16.974,0-30.85c-1.033-13.878-6.303-39.25-5.398-41.336
		c0.906-2.088,2.723-5.686,3.134-10.028c0.405-4.345-3.524-8.068-3.524-11.594c0-3.519,0-10.977,0-10.977L88.176,0.081
		c0,0,3.307,16.772,3.307,21.538c0,4.763-5.124,12.917-4.937,17.13c0.166,4.219,3.84,24.599,1.63,38.785
		c-2.215,14.186-4.977,27.538-5.186,33.35c-0.214,5.791,3.1,10.33,3.313,13.033c0.213,2.731-0.624,6.425,0.823,10.572
		c1.444,4.148,4.024,10.123,8.394,10.364c4.37,0.234,5.896-2.073,7.149-5.165c2.572,3.624,7.853,1.323,7.811-5.221
		C114.67,137.171,117.675,134.276,117.447,128.646z M102.216,133.242c0,0-1.947-3.382-2.31-4.849
		c-0.36-1.461-0.164-2.791,0.438-2.922c0.602-0.141,1.4,0.914,1.773,2.381C102.474,129.313,102.216,133.242,102.216,133.242z
		 M112.736,95.485c0,0,0.611-6.336-0.887-9.264c-1.49-2.928-2.278-4.34-5.2-5.089c-2.923-0.761-2.583,1.625-5.188,2.227
		c-1.816,0.427-7.388-3.224-6.654-4.619c0.878-1.646,4.094-2.271,6.261-1.742c1.97,0.48,4.213-1.123,5.646-1.684
		c1.434-0.553,2.234-1.029,4.607-1.344c4.565-0.599,2.955,6.937,2.955,6.937s-0.985,3.906,0.153,5.586
		c1.144,1.675,3.88,0.094,4.854,2.567c0.979,2.462-0.044,7.299-0.044,7.299s-1.587-3.616-3.227-4.082
		C114.365,91.808,112.736,95.485,112.736,95.485z M99.924,78.41l0.322,1.184l-1.182,0.312l-0.322-1.182L99.924,78.41z
		 M135.456,89.882c0.44-1.226-0.626-1.725,0.448-2.697c1.076-1.002,1.854-0.958,3.451-0.805c1.598,0.164,4.033,2.079,4.033,2.079
		s-1.083-1.63-0.46-2.188c0.619-0.547,2.524-0.247,2.524-0.247s-1.709-1.69-2.974-1.942c-1.262-0.252-1.346,1.281-2.33,1.325
		c-0.99,0.021-2.33-1.412-2.33-1.412s-2.666-2.649-3.618-0.606c-0.491,1.049-0.515,1.504-0.654,2.237
		c-0.15,0.724-0.09,2.068-0.817,2.741c-0.788,0.743-1.363,2.227-0.929,3.021C132.192,92.064,135.153,90.741,135.456,89.882z
		 M133.024,89.215l0.58,0.175l-0.184,0.568l-0.569-0.181L133.024,89.215z M86.241,157.412c-1.138-1.68-0.15-5.587-0.15-5.587
		s1.614-7.541-2.959-6.938c-2.37,0.317-3.182,0.798-4.606,1.354c-1.427,0.551-3.693,2.153-5.647,1.677
		c-2.164-0.536-5.379,0.099-6.254,1.741c-0.738,1.39,4.844,5.039,6.658,4.618c2.599-0.589,2.256-2.988,5.176-2.214
		c2.918,0.747,3.714,2.158,5.211,5.07c1.496,2.933,0.887,9.27,0.887,9.27s1.635-3.677,3.277-3.218
		c1.644,0.471,3.226,4.09,3.226,4.09s1.025-4.834,0.05-7.297C90.128,157.507,87.39,159.086,86.241,157.412z M70.885,150.829
		l-0.32-1.182l1.181-0.329l0.315,1.177L70.885,150.829z"/>
</g>
<g>
</g>
<g>
</g>
<g>
</g>
<g>
</g>
<g>
</g>
<g>
</g>
<g>
</g>
<g>
</g>
<g>
</g>
<g>
</g>
<g>
</g>
<g>
</g>
<g>
</g>
<g>
</g>
<g>
</g>
</svg>
