<?xml version="1.0" encoding="iso-8859-1"?>
<!-- Generator: Adobe Illustrator 16.0.0, SVG Export Plug-In . SVG Version: 6.00 Build 0)  -->
<!DOCTYPE svg PUBLIC "-//W3C//DTD SVG 1.1//EN" "http://www.w3.org/Graphics/SVG/1.1/DTD/svg11.dtd">
<svg version="1.1" id="Capa_1" xmlns="http://www.w3.org/2000/svg" xmlns:xlink="http://www.w3.org/1999/xlink" x="0px" y="0px"
	 width="185.883px" height="185.883px" viewBox="0 0 185.883 185.883" style="enable-background:new 0 0 185.883 185.883;"
	 xml:space="preserve">
<g>
	<g>
		<path d="M173.148,116.099c-2.26,0.027-20.923,5.363-38.461,5.363c-18.251-0.006-35.416-5.363-38.153-5.363
			c-5.391,0-5.723,4.056,0,6.102c31.175,11.206,17.615,59.568,25.407,59.787c9.806,0.263,16.744-50.901,51.207-59.787
			C178.802,120.745,177.778,116.078,173.148,116.099z"/>
		<path d="M41.121,91.426c0.504,0,1.092-0.137,1.637-0.197c1.496,11.666,13.088,20.799,27.337,20.799
			c15.271,0,27.636-10.433,27.636-23.3c0-12.864-12.365-23.3-27.636-23.3c-2.925,0-5.698,0.487-8.348,1.202
			C40.479,51.885,30.463,36.37,34.084,23.185C37.03,12.448,49.212,4.657,63.042,4.657c19.676,0,38.812,20.249,50.167,39.201
			c5.417,9.048,8.383,16.479,9.695,21.784c-14.106,1.064-25.179,10.933-25.179,23.092c0,12.861,12.365,23.3,27.647,23.3
			c14.232,0,25.833-9.139,27.327-20.805l1.178,0.175c1.979,0,3.895-0.776,5.547-2.29c5.221-4.791,7.442-17.571,2.278-28.257
			c-3.343-6.925-12.358-18.02-34.957-14.433c-1.27,0.2-2.134,1.396-1.938,2.665c0.197,1.267,1.33,2.124,2.665,1.94
			c14.54-2.32,25.237,1.894,30.036,11.85c4.082,8.457,2.687,19.204-1.227,22.802c-1.103,0.997-2.254,1.266-3.554,0.851
			c-1.27-11.168-11.776-19.959-25.046-20.9c-1.6-7.212-5.753-16.266-10.48-24.167C105.188,21.42,84.658,0,63.036,0
			C47.15,0,33.074,9.234,29.578,21.959c-2.455,8.941-1.563,26.082,26.85,46.63c-7.592,3.672-12.854,10.238-13.715,17.96
			c-7.121,1.037-9.521-5.918-12.676-17.276c-3.059-11.037-6.528-23.549-18.837-23.549c-1.283,0-2.331,1.04-2.331,2.323
			c0,1.289,1.048,2.339,2.331,2.339c8.154,0,10.972,7.967,14.357,20.137C28.288,80.383,31.353,91.426,41.121,91.426z"/>
		<polygon points="39.087,131.246 19.857,164.806 47.922,181.965 55.069,172.948 55.499,184.8 90.744,185.883 94.155,147.47 
			98.073,134.185 43.002,117.96 		"/>
	</g>
</g>
<g>
</g>
<g>
</g>
<g>
</g>
<g>
</g>
<g>
</g>
<g>
</g>
<g>
</g>
<g>
</g>
<g>
</g>
<g>
</g>
<g>
</g>
<g>
</g>
<g>
</g>
<g>
</g>
<g>
</g>
</svg>
