<?xml version="1.0" encoding="iso-8859-1"?>
<!-- Generator: Adobe Illustrator 16.0.0, SVG Export Plug-In . SVG Version: 6.00 Build 0)  -->
<!DOCTYPE svg PUBLIC "-//W3C//DTD SVG 1.1//EN" "http://www.w3.org/Graphics/SVG/1.1/DTD/svg11.dtd">
<svg version="1.1" id="Capa_1" xmlns="http://www.w3.org/2000/svg" xmlns:xlink="http://www.w3.org/1999/xlink" x="0px" y="0px"
	 width="195.848px" height="195.848px" viewBox="0 0 195.848 195.848" style="enable-background:new 0 0 195.848 195.848;"
	 xml:space="preserve">
<g>
	<g>
		<path d="M130.148,3.91c2.684-1.057,4.346-3.177,4.346-3.177s-2.676-0.391-5.341,0.662c-2.681,1.059-4.343,3.176-4.343,3.176
			l0.141,0.017c-0.537,0.32-1.057,0.662-1.582,1.004c-0.132-0.337-0.887-2.17-2.577-3.609C118.927,0.402,116.672,0,116.672,0
			s0.771,2.159,2.634,3.738c1.64,1.395,3.494,1.849,3.938,1.939c-1.486,0.969-2.952,1.978-4.381,3.07
			c-0.275-0.504-1.457-2.493-3.646-3.913c-2.499-1.625-5.286-1.77-5.286-1.77s1.271,2.495,3.76,4.125
			c2.003,1.3,4.169,1.642,4.963,1.732c-1.448,1.119-2.882,2.284-4.258,3.529c-0.716-1.009-2.149-2.747-4.268-3.983
			c-3.13-1.838-6.533-1.86-6.533-1.86s1.668,2.963,4.805,4.802c1.942,1.144,3.988,1.579,5.264,1.753
			c-1.691,1.568-3.321,3.24-4.898,4.98c-0.907-1.086-3.036-3.36-6.095-4.766c-4.131-1.907-8.382-1.507-8.382-1.507
			s2.453,3.491,6.588,5.395c2.891,1.333,5.805,1.535,7.322,1.535c-2.035,2.303-3.983,4.711-5.811,7.272
			c-1.158-1.321-3.411-3.562-6.555-5.012c-4.667-2.159-9.469-1.722-9.469-1.722s2.769,3.949,7.442,6.107
			c2.957,1.368,5.956,1.688,7.763,1.743c-2.09,3.02-4,6.229-5.785,9.554c-1.784-1.485-5.127-3.871-9.425-5.094
			c-6.48-1.839-12.597-0.29-12.597-0.29s4.394,4.537,10.87,6.375c3.995,1.144,7.844,0.988,10.216,0.701
			c-1.789,3.475-3.374,7.105-4.821,10.832c-1.915-1.63-6.011-4.684-11.374-6.164c-7.49-2.068-14.535-0.219-14.535-0.219
			s5.11,5.196,12.595,7.256c5.241,1.447,10.201,0.977,12.742,0.561c-4.312,11.601-6.796,24.235-7.368,37.063h-7.727
			c-3.769,0-6.848,3.068-6.848,6.847c0,1.416,0.449,2.75,1.228,3.855c-1.116,1.882-1.781,3.978-1.933,6.14l-5.418,77.341
			c-0.257,3.683,0.959,7.169,3.423,9.806c2.465,2.638,5.85,4.099,9.548,4.099h20.537c3.694,0,7.084-1.461,9.543-4.099
			c2.466-2.644,3.681-6.123,3.423-9.806l-5.411-77.341c-0.159-2.156-0.824-4.258-1.94-6.14c0.782-1.111,1.23-2.451,1.23-3.855
			c0-3.779-3.074-6.847-6.845-6.847h-7.228c0.577-12.1,2.442-24.146,5.89-35.432c2.19,1.699,5.792,4.041,10.284,5.286
			c7.484,2.06,14.531,0.21,14.531,0.21s-5.11-5.192-12.594-7.256c-4.422-1.214-8.647-1.064-11.404-0.738
			c1.204-3.658,2.568-7.223,4.102-10.67c1.733,1.463,5.15,3.986,9.614,5.253c6.479,1.841,12.597,0.291,12.597,0.291
			s-4.389-4.545-10.861-6.384c-4.285-1.214-8.364-0.952-10.665-0.631c1.52-3.268,3.166-6.427,4.998-9.459
			c1.147,1.321,3.413,3.582,6.569,5.031c4.668,2.156,9.469,1.716,9.469,1.716s-2.776-3.951-7.443-6.109
			c-3.043-1.401-6.112-1.696-7.902-1.743c1.604-2.577,3.322-5.065,5.172-7.428c1.013,1.165,3.031,3.171,5.85,4.471
			c4.133,1.904,8.383,1.513,8.383,1.513s-2.462-3.491-6.594-5.396c-2.652-1.228-5.341-1.502-6.934-1.54
			c1.42-1.762,2.913-3.458,4.465-5.084c0.559,0.865,2.109,2.972,4.553,4.411c3.137,1.838,6.54,1.854,6.54,1.854
			s-1.675-2.966-4.805-4.802c-2.325-1.368-4.794-1.731-5.915-1.822c1.242-1.278,2.502-2.522,3.824-3.705
			c0.537,0.834,1.637,2.342,3.366,3.469c2.506,1.625,5.291,1.765,5.291,1.765s-1.268-2.487-3.765-4.118
			c-1.564-1.014-3.234-1.453-4.277-1.636c1.163-1.021,2.378-1.994,3.615-2.935c0.317,0.7,1.078,2.15,2.451,3.305
			c1.866,1.581,4.117,1.983,4.117,1.983s-0.774-2.158-2.634-3.743c-1.325-1.121-2.811-1.63-3.585-1.844
			c0.564-0.424,1.149-0.812,1.731-1.22C126.688,4.673,128.409,4.604,130.148,3.91z M94.885,91.188c1.883,0,3.417,1.541,3.417,3.425
			c0,1.579-1.113,2.864-2.582,3.247c1.86,1.839,3.11,4.291,3.298,6.988l1.139,16.235H87.399v41.074h-5.565v-41.074H69.076
			l1.134-16.235c0.193-2.697,1.443-5.149,3.298-6.988c-1.468-0.383-2.582-1.668-2.582-3.247c0-1.885,1.541-3.425,3.422-3.425h7.587
			c-0.012,0.84-0.108,1.669-0.108,2.517v27.379h5.566V93.705c0.01-0.842,0.089-1.677,0.112-2.517H94.885z"/>
	</g>
</g>
<g>
</g>
<g>
</g>
<g>
</g>
<g>
</g>
<g>
</g>
<g>
</g>
<g>
</g>
<g>
</g>
<g>
</g>
<g>
</g>
<g>
</g>
<g>
</g>
<g>
</g>
<g>
</g>
<g>
</g>
</svg>
