<?xml version="1.0" encoding="iso-8859-1"?>
<!-- Generator: Adobe Illustrator 16.0.0, SVG Export Plug-In . SVG Version: 6.00 Build 0)  -->
<!DOCTYPE svg PUBLIC "-//W3C//DTD SVG 1.1//EN" "http://www.w3.org/Graphics/SVG/1.1/DTD/svg11.dtd">
<svg version="1.1" id="Capa_1" xmlns="http://www.w3.org/2000/svg" xmlns:xlink="http://www.w3.org/1999/xlink" x="0px" y="0px"
	 width="178.054px" height="178.054px" viewBox="0 0 178.054 178.054" style="enable-background:new 0 0 178.054 178.054;"
	 xml:space="preserve">
<g>
	<g>
		<path d="M117.2,22.231c1.499,0.214,2.883-0.829,3.102-2.336c0.219-1.513-0.837-2.897-2.34-3.111
			c-1.518-0.208-2.9,0.829-3.11,2.336C114.633,20.645,115.696,22.029,117.2,22.231z"/>
		<path d="M112.368,46.599c-2.778,0.747-4.433,3.603-3.694,6.372c0.757,2.78,3.606,4.427,6.392,3.683
			c2.766-0.742,4.41-3.609,3.661-6.378C117.989,47.507,115.137,45.849,112.368,46.599z"/>
		<path d="M178.054,63.915l-22.206-29.899l-20.881-10.211c0.247-0.588,0.421-1.193,0.515-1.77c0.357-2.646-0.721-6.005-4.651-7.885
			c0.317-0.84,0.509-1.691,0.569-2.531c0.196-2.534-0.771-4.843-2.69-6.345c-1.25-0.974-2.754-1.494-4.347-1.494
			c-1.231,0-2.933,0.306-4.788,1.578c-2.304-2.76-4.941-3.116-6.118-3.116c-0.902,0-1.783,0.17-2.63,0.518
			c-1.774,0.717-3.132,2.038-3.887,3.833c-0.384,0.925-0.749,2.29-0.613,4.102c-1.434,0.235-2.604,0.722-3.534,1.362
			c-0.706-1.234-1.729-2.238-2.983-2.96c-1.262-0.733-2.629-1.103-4.087-1.103c-1.718,0-4.78,0.583-7.787,4.006
			c-2.998-3.423-6.051-4.006-7.783-4.006c-1.445,0-2.802,0.369-4.067,1.091c-1.926,1.111-3.256,2.843-3.84,5.031
			c-0.547,2.014-0.39,4.299,0.422,6.704c-5.811,1.177-8.463,5.053-8.463,8.813c0,3.764,2.652,7.639,8.463,8.815
			c-1.889,5.62,0.14,9.85,3.395,11.727c1.262,0.733,2.626,1.105,4.074,1.105c1.043,0,2.745-0.244,4.679-1.396l0.59,1.183
			c1.03,1.787,2.645,3.305,4.786,4.577L31.867,99.654c0,0-6.829,7.087-19.762,5.122c-12.934-1.947-13.907,0.985-10.272,3.869
			c3.145,2.508,15.886,10.764,22.969,10.534c14.88-0.488,54.9-22.704,68.325-19.765c-15.863,15.867-45.393,60.037-52.709,62.479
			c-7.324,2.429-21.478,2.681-22.699,6.098c-1.221,3.418,16.349,8.053,25.865,7.812c9.519-0.238,40.759-28.562,53.451-32.951
			c12.689-4.384,29.285-7.562,31.236-16.603c1.951-9.019-7.078-12.677-6.345-19.754C122.654,99.425,178.054,63.915,178.054,63.915z
			 M110.02,14.981c1.145,0.156,2.307,0.643,3.333,1.226c-0.821-0.851-1.56-1.85-1.997-2.92c-1.439-3.518-0.679-5.816,1.068-6.522
			c1.766-0.716,3.88,0.427,5.309,3.951c0.425,1.059,0.584,2.304,0.584,3.491c0.341-1.138,0.826-2.288,1.531-3.193
			c2.336-2.993,4.689-3.508,6.196-2.336c1.498,1.17,1.563,3.579-0.784,6.572c-0.695,0.908-1.696,1.653-2.718,2.263
			c1.153-0.285,2.39-0.435,3.529-0.28c3.769,0.54,5.394,2.31,5.127,4.197c-0.28,1.882-2.316,3.149-6.087,2.627
			c-1.137-0.162-2.281-0.649-3.326-1.242c0.826,0.861,1.583,1.86,2.008,2.919c1.425,3.524,0.687,5.828-1.083,6.533
			c-1.746,0.711-3.88-0.421-5.303-3.945c-0.408-1.075-0.575-2.304-0.58-3.502c-0.345,1.155-0.831,2.288-1.537,3.198
			c-2.337,2.993-4.69,3.502-6.182,2.332c-1.518-1.166-1.583-3.579,0.766-6.572c0.705-0.903,1.695-1.653,2.736-2.252
			c-1.162,0.285-2.413,0.418-3.548,0.257c-3.759-0.52-5.374-2.303-5.116-4.18C104.215,15.714,106.271,14.447,110.02,14.981z
			 M86.419,41.966c-2.687,4.632-5.887,5.828-8.208,4.476c-2.312-1.338-2.894-4.684-0.21-9.324c0.824-1.406,2.05-2.662,3.385-3.696
			c-1.576,0.615-3.276,1.064-4.898,1.064c-5.357,0-7.975-2.164-7.975-4.849c0-2.684,2.617-4.845,7.975-4.845
			c1.623,0,3.322,0.448,4.898,1.063c-1.335-1.053-2.562-2.287-3.374-3.699c-2.695-4.64-2.12-7.989,0.193-9.324
			c2.337-1.338,5.521-0.161,8.205,4.479c0.812,1.407,1.259,3.103,1.507,4.767c0.241-1.664,0.712-3.36,1.519-4.767
			c2.682-4.646,5.87-5.816,8.187-4.479c2.329,1.335,2.895,4.684,0.228,9.324c-0.821,1.417-2.058,2.651-3.375,3.694
			c1.563-0.61,3.255-1.059,4.874-1.059c2.424,0,4.241,0.454,5.549,1.187c-2.068,1.294-3.661,3.989-3.464,8.372
			c-0.646,0.083-1.328,0.134-2.085,0.134c-1.634,0-3.332-0.449-4.892-1.064c1.33,1.04,2.566,2.279,3.376,3.696
			c0.525,0.903,0.899,1.743,1.171,2.544c-4.225-0.75-7.682-0.074-9.784,1.776c-0.653-1.3-1.092-2.761-1.3-4.246
			C87.675,38.866,87.229,40.555,86.419,41.966z M111.394,68.111c-0.58-2.112-0.58-4.449-0.323-6.703
			c-0.896,2.079-2.068,4.12-3.614,5.66c-5.085,5.081-9.622,5.497-12.149,2.953c-2.554-2.545-2.139-7.078,2.943-12.159
			c1.549-1.536,3.584-2.71,5.647-3.62c-2.236,0.268-4.58,0.263-6.686-0.304c-6.943-1.852-9.574-5.579-8.645-9.047
			c0.925-3.469,5.063-5.378,12.01-3.519c2.111,0.563,4.157,1.748,5.963,3.091c-1.344-1.814-2.534-3.855-3.086-5.962
			c-1.866-6.914,0.033-11.045,3.469-11.997c-0.191,0.742-0.299,1.475-0.214,2.147c0.145,1.125,0.687,2.091,1.55,2.771
			c0.738,0.567,1.607,0.87,2.532,0.87c0.9,0,2.156-0.309,3.579-1.422c0.636,1.192,1.183,2.595,1.636,4.257
			c0.569,2.112,0.583,4.459,0.312,6.709c0.892-2.085,2.087-4.115,3.617-5.656c1.111-1.113,2.194-1.961,3.229-2.643l0.06-0.019
			l0.739-0.481c3.388-1.91,6.282-1.653,8.122,0.18c2.55,2.544,2.135,7.076-2.951,12.159c-1.526,1.546-3.579,2.712-5.652,3.614
			c2.245-0.262,4.593-0.25,6.709,0.31c6.938,1.866,9.554,5.582,8.629,9.053c-0.925,3.463-5.072,5.373-12.006,3.513
			c-2.11-0.566-4.142-1.732-5.953-3.081c1.346,1.809,2.518,3.855,3.082,5.951c1.854,6.941-0.046,11.083-3.52,12.019
			C116.953,77.688,113.245,75.053,111.394,68.111z"/>
		<circle cx="87.925" cy="29.632" r="3.872"/>
	</g>
</g>
<g>
</g>
<g>
</g>
<g>
</g>
<g>
</g>
<g>
</g>
<g>
</g>
<g>
</g>
<g>
</g>
<g>
</g>
<g>
</g>
<g>
</g>
<g>
</g>
<g>
</g>
<g>
</g>
<g>
</g>
</svg>
