<?xml version="1.0" encoding="iso-8859-1"?>
<!-- Generator: Adobe Illustrator 16.0.0, SVG Export Plug-In . SVG Version: 6.00 Build 0)  -->
<!DOCTYPE svg PUBLIC "-//W3C//DTD SVG 1.1//EN" "http://www.w3.org/Graphics/SVG/1.1/DTD/svg11.dtd">
<svg version="1.1" id="Capa_1" xmlns="http://www.w3.org/2000/svg" xmlns:xlink="http://www.w3.org/1999/xlink" x="0px" y="0px"
	 width="168.1px" height="168.1px" viewBox="0 0 168.1 168.1" style="enable-background:new 0 0 168.1 168.1;" xml:space="preserve"
	>
<g>
	<g>
		<path d="M1.52,62.118c3.439,18.805,13.778,48.703,40.281,64.708v10.999h0.208c2.063,5.681,20.093,10.118,42.042,10.118
			s39.978-4.438,42.041-10.118h0.209v-10.999c26.502-16.006,36.844-45.904,40.28-64.708c-14.394,12.95-48.582,19.675-82.53,19.675
			C50.104,81.793,15.913,75.067,1.52,62.118z"/>
		<path d="M7.037,59.379c12.973-9.891,42.559-16.81,77.013-16.81c34.463,0,64.045,6.919,77.013,16.81
			c4.506-3.437,7.037-7.223,7.037-11.207c0-15.478-37.625-28.017-84.05-28.017C37.631,20.156,0,32.695,0,48.172
			C0,52.161,2.533,55.942,7.037,59.379z"/>
		<path d="M121.16,63.983c0.854-2.139-1.569-4.438-7.972-5.592c-1.954-0.343-4.109-0.348-6.189-0.184
			c1.918-0.554,3.787-1.277,5.221-2.229c4.686-3.143,5.078-5.94,2.725-7.516c-2.34-1.568-6.533-1.31-11.215,1.828
			c-1.429,0.953-2.518,2.208-3.356,3.491c0.246-1.39,0.246-2.837-0.279-4.143c-1.719-4.281-5.155-5.904-8.355-5.338
			c-3.207,0.574-4.963,3.13-3.245,7.417c0.525,1.305,1.604,2.562,2.854,3.683c-1.677-0.837-3.562-1.56-5.5-1.913
			c-2.653-0.471-4.741-0.471-6.48-0.246c-0.864-0.246-1.91-0.426-3.318-0.426c-1.131,0-2.301,0.212-3.391,0.5
			c0.919-0.49,1.773-1.059,2.343-1.721c1.861-2.156,1.464-3.71-0.145-4.331c-1.615-0.622-3.833-0.08-5.694,2.079
			c-0.565,0.654-0.885,1.445-1.053,2.219c-0.168-0.774-0.483-1.565-1.055-2.219c-1.852-2.153-4.079-2.7-5.68-2.079
			c-1.619,0.621-2.02,2.174-0.152,4.331c0.565,0.656,1.424,1.231,2.344,1.721c-1.088-0.293-2.265-0.5-3.397-0.5
			c-3.718,0-5.53,1.009-5.53,2.253c0,1.242,1.812,2.252,5.53,2.252c1.132,0,2.309-0.208,3.397-0.499
			c-0.919,0.482-1.778,1.064-2.35,1.722c-1.861,2.155-1.456,3.712,0.159,4.331c1.601,0.626,3.828,0.076,5.68-2.08
			c0.572-0.657,0.882-1.442,1.055-2.219c0.168,0.771,0.495,1.558,1.053,2.219c1.86,2.15,4.079,2.701,5.694,2.08
			c1.608-0.619,1.999-2.181,0.138-4.331c-0.563-0.657-1.417-1.234-2.342-1.722c0.667,0.179,1.368,0.301,2.074,0.392
			c0.572,1.63,3.133,3.166,8.014,4.041c1.945,0.348,4.106,0.348,6.193,0.189c-1.928,0.549-3.81,1.283-5.235,2.232
			c-4.685,3.141-5.069,5.937-2.729,7.508c2.348,1.578,6.54,1.31,11.229-1.821c1.434-0.953,2.512-2.209,3.344-3.498
			c-0.24,1.39-0.235,2.842,0.298,4.142c1.71,4.285,5.142,5.916,8.348,5.346c3.195-0.58,4.969-3.138,3.245-7.426
			c-0.525-1.299-1.592-2.561-2.852-3.682c1.675,0.842,3.547,1.559,5.495,1.912C116.49,67.308,120.318,66.128,121.16,63.983z
			 M69.46,56.632c-1.29,0.499-2.936,0.203-3.674-0.659c-0.747-0.864-0.304-1.967,0.99-2.462c1.283-0.493,2.93-0.199,3.676,0.662
			C71.186,55.037,70.754,56.134,69.46,56.632z M99.209,62.925c-2.558,0.465-5.2-0.555-5.888-2.269
			c-0.686-1.709,0.832-3.474,3.401-3.934c2.557-0.459,5.199,0.561,5.891,2.274C103.29,60.7,101.769,62.471,99.209,62.925z"/>
	</g>
</g>
<g>
</g>
<g>
</g>
<g>
</g>
<g>
</g>
<g>
</g>
<g>
</g>
<g>
</g>
<g>
</g>
<g>
</g>
<g>
</g>
<g>
</g>
<g>
</g>
<g>
</g>
<g>
</g>
<g>
</g>
</svg>
