<?xml version="1.0" encoding="iso-8859-1"?>
<!-- Generator: Adobe Illustrator 16.0.0, SVG Export Plug-In . SVG Version: 6.00 Build 0)  -->
<!DOCTYPE svg PUBLIC "-//W3C//DTD SVG 1.1//EN" "http://www.w3.org/Graphics/SVG/1.1/DTD/svg11.dtd">
<svg version="1.1" id="Capa_1" xmlns="http://www.w3.org/2000/svg" xmlns:xlink="http://www.w3.org/1999/xlink" x="0px" y="0px"
	 width="166.901px" height="166.901px" viewBox="0 0 166.901 166.901" style="enable-background:new 0 0 166.901 166.901;"
	 xml:space="preserve">
<g>
	<g>
		<path d="M158.153,59.3C154.101,16.934,131.067,0,107.4,0C83.454,0,68.571,13.853,62.85,31.401
			c-5.723,17.548,2.974,38.591,13.662,40.881c7.786,1.667,2.29,25.562-39.259,40.961c-41.55,15.398-26.371,53.658-26.371,53.658
			s8.395-16.411,27.347-16.893c18.95-0.48,57.658,5.702,84.462-13.35C149.496,117.593,161.59,95.169,158.153,59.3z M106.652,67.314
			c-3.343,17.672-23.198,38.536-49.221,47.313c25.047-13.354,33.575-26.32,36.242-41.206c3.048-16.981-22.207-25.669-7.247-37.01
			C97.487,28.017,109.315,53.204,106.652,67.314z"/>
	</g>
</g>
<g>
</g>
<g>
</g>
<g>
</g>
<g>
</g>
<g>
</g>
<g>
</g>
<g>
</g>
<g>
</g>
<g>
</g>
<g>
</g>
<g>
</g>
<g>
</g>
<g>
</g>
<g>
</g>
<g>
</g>
</svg>
