<?xml version="1.0" encoding="iso-8859-1"?>
<!-- Generator: Adobe Illustrator 16.0.0, SVG Export Plug-In . SVG Version: 6.00 Build 0)  -->
<!DOCTYPE svg PUBLIC "-//W3C//DTD SVG 1.1//EN" "http://www.w3.org/Graphics/SVG/1.1/DTD/svg11.dtd">
<svg version="1.1" id="Capa_1" xmlns="http://www.w3.org/2000/svg" xmlns:xlink="http://www.w3.org/1999/xlink" x="0px" y="0px"
	 width="160.543px" height="160.543px" viewBox="0 0 160.543 160.543" style="enable-background:new 0 0 160.543 160.543;"
	 xml:space="preserve">
<g>
	<g>
		<path d="M143.997,135.246c-6.02-10.791-9.566-19.475-10.549-25.806c-2.837-18.342-8.948-29.604-13.413-37.823
			c-1.275-2.342-2.479-4.55-3.442-6.628c-0.597-1.289-1.335-2.857-2.184-4.641c-2.966-6.273-7.023-14.875-10.675-23.404
			c-0.952-2.229-1.817-4.473-2.638-6.613c-3.479-9.015-8.092-16.949-13.544-15.857c-1.165,0.235-2.084,0.752-2.603,1.71
			c-1.857,3.368,1.149,10.405,6.304,21.601c3.096,6.72,6.953,15.089,5.995,17.409l-0.153,0.304
			c-1.619-0.399-5.729-9.341-8.736-15.869l-3.185-6.897C76.577,14.178,69.566,0,64.149,0l-1.305,0.277
			c-1.475,0.67-2.479,1.792-2.992,3.357c-2.299,6.998,6.275,22.232,13.821,35.658c4.668,8.293,10.477,18.607,9.224,20.804
			c-1.585,0-7.699-6.962-18.042-26.172C55.958,17.445,46.801,2.197,40.176,2.197c-1.242,0-2.342,0.511-3.259,1.502
			c-4.707,5.083,3.574,18.597,12.342,32.92c1.454,2.375,2.893,4.711,4.219,6.955C64.99,62.972,65.417,68.072,65.058,69.357
			l-0.18,0.315l-0.761,0.208c-2.662,0-6.422-6.801-9.74-12.799l-2.353-4.274c-8.097-14.739-14.778-26.021-20.778-26.021
			c-1.379,0-2.61,0.582-3.676,1.748c-4.707,5.138,3.037,18.189,12.013,33.305c4.069,6.854,8.267,13.923,11.242,20.263l0.398,0.829
			c3.484,7.379,8.746,18.548,7.537,25.219c-0.185,1.028-0.677,1.964-3.026,1.964c-2.577,0-6.282-1.165-9.857-2.309
			c-3.621-1.149-7.031-2.228-9.642-2.288h-0.411c-5.647,0-14.479,2.633-18.121,6.421c-1.165,1.209-1.732,2.46-1.688,3.73
			c0.089,2.341,3.817,3.55,12.985,6.303c3.978,1.204,8.486,2.561,12.891,4.181c8.292,3.065,16.02,7.578,20.173,10.004
			c0.873,0.524,1.587,0.93,2.089,1.202c6.903,3.822,13.084,5.353,18.051,6.589c2.069,0.521,3.848,0.96,5.396,1.493
			c4.049,1.396,8.694,6.036,14.218,14.223l0.594,0.881l42.115-24.312L143.997,135.246z M113.95,115.854
			c-4.174,6.949-11.476,10.653-20.811,10.653c-1.344,0-2.741-0.081-4.169-0.229c-10.256-1.122-16.78-9.954-19.458-17.845
			c-2.566-7.551,0.189-19.934,4.267-26.319c3.738-5.861,11.732-9.853,20.369-10.153c8.223-0.256,15.391,2.856,19.687,8.634
			c0.689,0.931,0.498,2.248-0.431,2.936c-0.938,0.695-2.25,0.493-2.945-0.432c-3.451-4.652-9.38-7.218-16.159-6.936
			c-7.183,0.252-14.003,3.557-16.977,8.216c-3.485,5.46-5.918,16.569-3.833,22.713c2.262,6.661,7.635,14.113,15.933,15.011
			c6.797,0.755,15.94-0.121,20.922-8.416c4.408-7.355,2.228-14.436-0.378-19.076c-2.688-4.771-11.589-7.354-17.331-5.028
			c-5.356,2.167-8.329,6.475-8.153,11.813c0.065,2.059,1.177,4.192,2.984,5.704c1.672,1.405,3.67,2.056,5.48,1.793
			c1.942-0.273,3.778-1.455,5.023-3.227c1.051-1.512,1.516-3.212,1.238-4.57l-0.423-0.619c-1.104-0.688-3.653-0.339-4.651-0.076
			c-1.116,0.317-2.271-0.372-2.564-1.494c-0.298-1.127,0.37-2.271,1.486-2.566c0.509-0.137,5.019-1.248,7.945,0.559
			c1.22,0.755,2.026,1.915,2.32,3.349c0.527,2.501-0.173,5.363-1.909,7.83c-1.91,2.721-4.771,4.537-7.858,4.985
			c-2.993,0.427-6.2-0.569-8.792-2.746c-2.746-2.293-4.376-5.495-4.482-8.777c-0.229-7.103,3.797-13.023,10.781-15.848
			c7.812-3.165,18.8,0.17,22.57,6.873C116.784,98.157,119.4,106.759,113.95,115.854z"/>
	</g>
</g>
<g>
</g>
<g>
</g>
<g>
</g>
<g>
</g>
<g>
</g>
<g>
</g>
<g>
</g>
<g>
</g>
<g>
</g>
<g>
</g>
<g>
</g>
<g>
</g>
<g>
</g>
<g>
</g>
<g>
</g>
</svg>
