<?xml version="1.0" encoding="iso-8859-1"?>
<!-- Generator: Adobe Illustrator 16.0.0, SVG Export Plug-In . SVG Version: 6.00 Build 0)  -->
<!DOCTYPE svg PUBLIC "-//W3C//DTD SVG 1.1//EN" "http://www.w3.org/Graphics/SVG/1.1/DTD/svg11.dtd">
<svg version="1.1" id="Capa_1" xmlns="http://www.w3.org/2000/svg" xmlns:xlink="http://www.w3.org/1999/xlink" x="0px" y="0px"
	 width="186.875px" height="186.875px" viewBox="0 0 186.875 186.875" style="enable-background:new 0 0 186.875 186.875;"
	 xml:space="preserve">
<g>
	<g>
		<path d="M178.221,86.599c-9.711-0.922-68.843-3.05-77.339,0c-8.497,3.038-47.544,34.702-57.131,41.707
			c-9.587,7.004,2.79,20.126,14.067,12.501c11.275-7.613,29.173-18.938,37.058-24.058c7.888-5.13,16.92,4.268,10.069,10.959
			c-5.081,4.965-35.447,27.107-41.893,27.402c-6.446,0.313-35.438,0-51.569,0c-16.107,0-14.496,19.506,0,19.506
			c9.673,0,71.302,3.352,77.345,0c6.041-3.346,51.568-38.373,57.154-39.626c5.609-1.247,18.974,0,32.231,0
			C191.467,134.99,187.92,87.506,178.221,86.599z"/>
		<path d="M53.09,56.661c11.603-4.788,42.623-13.619,62.039-13.619c-19.671,4.54-36.992,12.912-60.591,27.237
			C33.922,82.804,20.865,102.162,6.28,112.134c54.666,1.365,180.595-71.305,180.595-101.364
			C161.281,21.864,108.699,23.699,80.2,23.504C25.023,23.129,1.569,44.284,0.13,105.177C11.298,83.522,23.335,68.938,53.09,56.661z"
			/>
	</g>
</g>
<g>
</g>
<g>
</g>
<g>
</g>
<g>
</g>
<g>
</g>
<g>
</g>
<g>
</g>
<g>
</g>
<g>
</g>
<g>
</g>
<g>
</g>
<g>
</g>
<g>
</g>
<g>
</g>
<g>
</g>
</svg>
