<?xml version="1.0" encoding="iso-8859-1"?>
<!-- Generator: Adobe Illustrator 16.0.0, SVG Export Plug-In . SVG Version: 6.00 Build 0)  -->
<!DOCTYPE svg PUBLIC "-//W3C//DTD SVG 1.1//EN" "http://www.w3.org/Graphics/SVG/1.1/DTD/svg11.dtd">
<svg version="1.1" id="Capa_1" xmlns="http://www.w3.org/2000/svg" xmlns:xlink="http://www.w3.org/1999/xlink" x="0px" y="0px"
	 width="189.079px" height="189.08px" viewBox="0 0 189.079 189.08" style="enable-background:new 0 0 189.079 189.08;"
	 xml:space="preserve">
<g>
	<g>
		<path d="M94.201,39.015c2.739,0,8.673-4.578,10.774-10.865c1.302-1.17,2.41-2.555,3.282-4.084l0.48-0.531l0.383-0.662
			l-0.196-0.102v-0.01l0.437-0.247c0.941-0.55,1.511-1.983,1.633-3.089c0.112-1.045-0.131-1.898-0.691-2.435l0.044-0.838
			C110.347,7.245,103.103,0,94.196,0c-8.909,0-16.152,7.245-16.152,16.153c0,4.764,2.084,9.035,5.372,11.998
			C85.535,34.432,91.463,39.015,94.201,39.015z"/>
		<path d="M77.29,110.129l6.646,74.726c0,2.331,1.889,4.225,4.219,4.225c2.333,0,4.221-1.894,4.221-4.225l2.096-72.559
			c-7.44-0.009-13.813-1.429-17.052-3.481L77.29,110.129z"/>
		<path d="M94.603,112.296l2.091,72.559c0,2.331,1.891,4.225,4.22,4.225c2.344,0,4.226-1.894,4.226-4.225l6.649-74.726l-0.14-1.314
			C108.411,110.878,102.034,112.288,94.603,112.296z"/>
		<path d="M94.54,39.015c-14.278,0-25.867,4.815-25.867,10.778l2.158,51.723c0,1.385,1.604,2.671,4.309,3.716V51.944
			c0,3.575,8.685,6.459,19.4,6.459c10.712,0,19.396-2.89,19.396-6.459l0,0v53.288c2.703-1.056,4.313-2.331,4.313-3.716l2.156-51.723
			C120.406,43.831,108.814,39.015,94.54,39.015z"/>
	</g>
</g>
<g>
</g>
<g>
</g>
<g>
</g>
<g>
</g>
<g>
</g>
<g>
</g>
<g>
</g>
<g>
</g>
<g>
</g>
<g>
</g>
<g>
</g>
<g>
</g>
<g>
</g>
<g>
</g>
<g>
</g>
</svg>
