<?xml version="1.0" encoding="iso-8859-1"?>
<!-- Generator: Adobe Illustrator 16.0.0, SVG Export Plug-In . SVG Version: 6.00 Build 0)  -->
<!DOCTYPE svg PUBLIC "-//W3C//DTD SVG 1.1//EN" "http://www.w3.org/Graphics/SVG/1.1/DTD/svg11.dtd">
<svg version="1.1" id="Capa_1" xmlns="http://www.w3.org/2000/svg" xmlns:xlink="http://www.w3.org/1999/xlink" x="0px" y="0px"
	 width="187.324px" height="187.324px" viewBox="0 0 187.324 187.324" style="enable-background:new 0 0 187.324 187.324;"
	 xml:space="preserve">
<g>
	<g>
		<path d="M187.324,138.614c0-10.297-41.942-3.724-93.665-3.724C41.94,134.89,0,128.317,0,138.614
			c0,6.82,18.462,16.042,45.903,21.503c-13.249,3.984-22.484,9.486-22.484,15.688c0,2.057,1.658,3.83,3.709,3.83
			c2.071,0,3.729-1.572,3.729-3.629c1.082-3.175,14.665-9.451,35.166-12.791c8.733,0.957,18.013,1.501,27.63,1.501
			c9.632,0,18.911-0.544,27.659-1.501c20.487,3.327,34.053,9.552,35.122,12.59c0,2.057,1.673,3.735,3.718,3.735
			c2.075,0,3.735-1.679,3.735-3.735c0-6.201-9.238-11.709-22.479-15.688C168.871,154.656,187.324,145.434,187.324,138.614z"/>
		<path d="M98.604,102.51V56.037c0.006-2.577-2.092-4.658-4.66-4.658c-2.577,0-4.673,2.086-4.661,4.658l-0.006,46.473
			c0,1.903,1.162,3.535,2.802,4.262l-0.018,18.802c0.012,1.041,0.848,1.868,1.877,1.868c1.028,0,1.864-0.827,1.876-1.868
			l-0.006-18.802C97.434,106.051,98.604,104.414,98.604,102.51z"/>
		<path d="M93.665,46.275c13.615-13.491-9.327-22.825,0-38.585C79.29,22.446,100.979,34.297,93.665,46.275z"/>
	</g>
</g>
<g>
</g>
<g>
</g>
<g>
</g>
<g>
</g>
<g>
</g>
<g>
</g>
<g>
</g>
<g>
</g>
<g>
</g>
<g>
</g>
<g>
</g>
<g>
</g>
<g>
</g>
<g>
</g>
<g>
</g>
</svg>
