<?xml version="1.0" encoding="iso-8859-1"?>
<!-- Generator: Adobe Illustrator 16.0.0, SVG Export Plug-In . SVG Version: 6.00 Build 0)  -->
<!DOCTYPE svg PUBLIC "-//W3C//DTD SVG 1.1//EN" "http://www.w3.org/Graphics/SVG/1.1/DTD/svg11.dtd">
<svg version="1.1" id="Capa_1" xmlns="http://www.w3.org/2000/svg" xmlns:xlink="http://www.w3.org/1999/xlink" x="0px" y="0px"
	 width="186.456px" height="186.455px" viewBox="0 0 186.456 186.455" style="enable-background:new 0 0 186.456 186.455;"
	 xml:space="preserve">
<g>
	<g>
		<path d="M82.438,166.217c-3.552,0.225-7.238,0.349-11.032,0.349c-14.611,0-27.733-1.762-37.055-4.574
			c-0.75-37.12-5.447-61.438-9.64-83.064c-3.331-17.18-6.484-33.532-7.155-53.971c10.291,6.221,32.648,9.138,53.844,9.138
			s43.553-2.911,53.844-9.138c-0.668,20.445-3.824,36.792-7.158,53.971c-2.205,11.39-4.539,23.59-6.372,37.953l5.309,3.073
			c1.873-15.273,4.338-28.025,6.644-39.945c3.807-19.609,7.406-38.142,7.406-62.958C131.072,5.326,100.137,0,71.399,0
			C42.661,0,11.727,5.332,11.727,17.05c0,24.822,3.594,43.35,7.4,62.958c4.521,23.324,9.655,49.745,9.655,92.238
			c0,9.759,22.091,14.209,42.623,14.209c9.321,0,18.95-0.928,26.699-2.843C91.584,178.818,86.33,172.854,82.438,166.217z
			 M71.405,5.678c34.929,0,53.986,7.503,53.986,11.366c0,3.854-19.051,11.366-53.986,11.366c-34.936,0-53.989-7.513-53.989-11.366
			C17.417,13.181,36.47,5.678,71.405,5.678z"/>
		<path d="M142.603,180.646l-10.538-39.39l-20.381,35.299C121.526,181.757,132.46,182.95,142.603,180.646z"/>
		<path d="M108.723,174.847l20.368-35.293l-39.377,10.545C92.791,160.052,99.284,168.918,108.723,174.847z"/>
		<path d="M88.812,146.794l39.38-10.551l-35.29-20.392C87.71,125.698,86.519,136.646,88.812,146.794z"/>
		<path d="M170.673,160.761l-35.305-20.38l10.562,39.378C155.879,176.673,164.733,170.183,170.673,160.761z"/>
		<path d="M172.725,161.938c-13.447,21.462-41.642,28.649-63.754,15.894c-22.106-12.778-29.977-40.783-18.102-63.162l-2.004-1.146
			c-12.492,23.483-4.247,52.901,18.965,66.307c23.199,13.389,52.824,5.828,66.897-16.739L172.725,161.938z"/>
		<path d="M119.711,62.51c0-3.86-17.053-11.367-48.306-11.367C40.149,51.143,23.1,58.65,23.1,62.51
			c0,3.856,17.049,11.369,48.306,11.369C102.659,73.879,119.711,66.36,119.711,62.51z M71.405,68.329
			c-23.623,0-36.517-5.169-36.517-7.823c0-2.648,12.894-7.811,36.517-7.811s36.507,5.163,36.507,7.811
			C107.913,63.16,95.028,68.329,71.405,68.329z"/>
	</g>
</g>
<g>
</g>
<g>
</g>
<g>
</g>
<g>
</g>
<g>
</g>
<g>
</g>
<g>
</g>
<g>
</g>
<g>
</g>
<g>
</g>
<g>
</g>
<g>
</g>
<g>
</g>
<g>
</g>
<g>
</g>
</svg>
