<?xml version="1.0" encoding="iso-8859-1"?>
<!-- Generator: Adobe Illustrator 16.0.0, SVG Export Plug-In . SVG Version: 6.00 Build 0)  -->
<!DOCTYPE svg PUBLIC "-//W3C//DTD SVG 1.1//EN" "http://www.w3.org/Graphics/SVG/1.1/DTD/svg11.dtd">
<svg version="1.1" id="Capa_1" xmlns="http://www.w3.org/2000/svg" xmlns:xlink="http://www.w3.org/1999/xlink" x="0px" y="0px"
	 width="174.007px" height="174.007px" viewBox="0 0 174.007 174.007" style="enable-background:new 0 0 174.007 174.007;"
	 xml:space="preserve">
<g>
	<g>
		<path d="M131.107,63.225c-5.083-10.063-7.892-12.51-13.234-12.504c-5.036,0-12.33,2.161-25.896,2.161H91.54
			c-13.789-0.047-21.181-2.243-26.27-2.243c-5.394,0-8.201,2.468-13.299,12.569c-9.2,18.208-14.821,48.01-14.821,67.291
			c0,40.033,24.338,43.509,54.391,43.509c30.039,0,54.386-3.476,54.386-43.509C145.925,111.229,140.292,81.438,131.107,63.225z
			 M91.54,168.575c-28.661,0-48.955-2.73-48.955-38.077c0-18.005,5.325-47.171,14.248-64.826c4.835-9.588,6.342-9.588,8.444-9.588
			c1.554,0,3.649,0.29,6.289,0.659c4.666,0.653,11.05,1.549,19.951,1.587h0.473c8.808,0,15.114-0.877,19.73-1.521
			c2.589-0.361,4.635-0.639,6.165-0.639c2.075,0,3.57,0,8.37,9.514c8.919,17.667,14.238,46.828,14.238,64.814
			C140.481,165.845,120.196,168.575,91.54,168.575z"/>
		<path d="M79.074,10.882c1.247,1.472,2.911,3.064,4.655,4.596c-8.142,2.092-13.952,7.329-13.952,13.491l0,0l0,0v15.108
			c0,2.917,9.741,5.29,21.763,5.29c12.018,0,21.758-2.373,21.758-5.29V28.969v-0.006c0-6.162-5.811-11.399-13.955-13.491
			c1.738-1.534,3.404-3.124,4.651-4.596h16.545c3.003,0,5.443-2.438,5.443-5.441S123.542,0,120.539,0H55.274
			c-1.076,0-2.122,0.319-3.014,0.913L30.502,15.415c-2.5,1.667-3.171,5.042-1.507,7.542c1.046,1.572,2.778,2.42,4.533,2.42
			c1.034,0,2.081-0.29,3.009-0.913l20.383-13.589h22.153V10.882z"/>
		<path d="M131.852,101.5H51.208c-2.039,10.509-3.183,20.924-3.183,28.998c0,27.71,11.402,32.64,43.515,32.64
			c32.107,0,43.504-4.93,43.504-32.64C135.049,122.424,133.897,112.009,131.852,101.5z M106.873,106.435
			c2.211,0,4.002,1.791,4.002,4.008s-1.791,4.008-4.002,4.008s-4.008-1.791-4.008-4.008S104.662,106.435,106.873,106.435z
			 M105.442,142.532c-5.083,0-9.209-4.126-9.209-9.209s4.138-9.209,9.209-9.209c5.084,0,9.209,4.126,9.209,9.209
			S110.526,142.532,105.442,142.532z M120.539,124.108c-3.251,0-5.888-2.643-5.888-5.887c0-3.252,2.637-5.894,5.888-5.894
			s5.898,2.636,5.898,5.894C126.437,121.478,123.79,124.108,120.539,124.108z"/>
	</g>
</g>
<g>
</g>
<g>
</g>
<g>
</g>
<g>
</g>
<g>
</g>
<g>
</g>
<g>
</g>
<g>
</g>
<g>
</g>
<g>
</g>
<g>
</g>
<g>
</g>
<g>
</g>
<g>
</g>
<g>
</g>
</svg>
