<?xml version="1.0" encoding="iso-8859-1"?>
<!-- Generator: Adobe Illustrator 16.0.0, SVG Export Plug-In . SVG Version: 6.00 Build 0)  -->
<!DOCTYPE svg PUBLIC "-//W3C//DTD SVG 1.1//EN" "http://www.w3.org/Graphics/SVG/1.1/DTD/svg11.dtd">
<svg version="1.1" id="Capa_1" xmlns="http://www.w3.org/2000/svg" xmlns:xlink="http://www.w3.org/1999/xlink" x="0px" y="0px"
	 width="212.888px" height="212.888px" viewBox="0 0 212.888 212.888" style="enable-background:new 0 0 212.888 212.888;"
	 xml:space="preserve">
<g>
	<g>
		<path d="M161.139,107.008c0.252,1.165,0.411,1.961,0.449,2.167l0.077,0.405l1.233,0.204c4.271,1.405,6.723,2.992,6.723,4.688
			c0,5.789-28.29,10.473-63.179,10.473c-34.893,0-63.172-4.684-63.172-10.473c0-1.696,2.454-3.283,6.705-4.688
			c0.518-0.103,1.09-0.177,1.615-0.272l0.156-0.631c0.045-0.175,0.224-0.875,0.533-1.973C21.013,112.315,0,122.231,0,133.618
			c0,17.165,47.662,31.075,106.442,31.075c58.79,0,106.445-13.91,106.445-31.075C212.882,122.297,192.105,112.426,161.139,107.008z
			 M106.437,144.414c-48.703,0-88.193-8.766-88.193-19.59c0-4.296,6.294-8.257,16.851-11.491c-3.121,1.816-4.909,3.786-4.909,5.839
			c0,9.187,34.14,16.629,76.25,16.629c42.105,0,76.251-7.442,76.251-16.629c0-2.053-1.783-4.022-4.913-5.839
			c10.561,3.234,16.855,7.195,16.855,11.491C194.63,135.648,155.143,144.414,106.437,144.414z"/>
		<path d="M114.747,59.235c-3.973-4.602-8.406-8.635-13.17-11.04c-4.347,3.245-9.089,12.131-13.062,21.114
			c1.784,2.37,4.031,4.84,6.625,7.363C100.979,70.939,107.978,64.449,114.747,59.235z"/>
		<path d="M135.234,106.151l6.956,4.096c7.731,0,13.701,0,13.701,0s-8.267-42.233-23.174-55.888
			c-8.438,1.708-23.272,14.955-34.076,25.562C110.706,90.675,127.213,101.421,135.234,106.151z"/>
		<path d="M132.816,110.253c0,0-47.061-27.738-52.66-46.367c-14.911,13.658-23.177,46.367-23.177,46.367s28.141,5.604,48.639,5.604
			C126.119,115.856,132.816,110.253,132.816,110.253z"/>
	</g>
</g>
<g>
</g>
<g>
</g>
<g>
</g>
<g>
</g>
<g>
</g>
<g>
</g>
<g>
</g>
<g>
</g>
<g>
</g>
<g>
</g>
<g>
</g>
<g>
</g>
<g>
</g>
<g>
</g>
<g>
</g>
</svg>
