<?xml version="1.0" encoding="iso-8859-1"?>
<!-- Generator: Adobe Illustrator 16.0.0, SVG Export Plug-In . SVG Version: 6.00 Build 0)  -->
<!DOCTYPE svg PUBLIC "-//W3C//DTD SVG 1.1//EN" "http://www.w3.org/Graphics/SVG/1.1/DTD/svg11.dtd">
<svg version="1.1" id="Capa_1" xmlns="http://www.w3.org/2000/svg" xmlns:xlink="http://www.w3.org/1999/xlink" x="0px" y="0px"
	 width="177.982px" height="177.982px" viewBox="0 0 177.982 177.982" style="enable-background:new 0 0 177.982 177.982;"
	 xml:space="preserve">
<g>
	<g>
		<path d="M0,176.344h82.725V1.639H0V176.344z M5.603,7.242h71.52V170.74H5.603V7.242z"/>
		<circle cx="41.364" cy="39.55" r="13.156"/>
		<path d="M60.755,55.331H45.757c-1.375-0.518-2.843-0.833-4.394-0.833c-1.552,0-3.027,0.32-4.4,0.833H21.964
			c-2.903,0-5.324,2.218-5.581,5.097l-3.021,33.612c-0.273,3.092,1.994,5.811,5.083,6.085c3.076,0.301,5.803-1.992,6.079-5.073
			l2.561-28.514h1.725l-0.056,0.569v27.229h-1.401l-0.7,0.7v28.016l0.7,0.7h1.401v31.432c0,3.097,2.512,5.604,5.604,5.604
			c3.093,0,5.604-2.507,5.604-5.604v-31.432h2.801v31.432c0,3.097,2.512,5.604,5.604,5.604c3.091,0,5.603-2.507,5.603-5.604v-31.432
			h1.401l0.7-0.7V95.035l-0.7-0.7H53.97V67.106l-0.055-0.569h1.718l2.561,28.521c0.263,2.91,2.707,5.1,5.577,5.1l0.504-0.022
			c3.083-0.285,5.356-2.999,5.083-6.085l-3.021-33.623C66.081,57.544,63.659,55.331,60.755,55.331z M54.67,95.735v26.615H28.055
			V95.735H54.67z"/>
		<path d="M95.256,1.639v174.705h82.726V1.639H95.256z M172.38,170.74h-71.521V7.242h71.521V170.74z"/>
		<path d="M136.619,26.394c7.267,0,13.162,5.891,13.162,13.155c0,7.267-5.896,13.158-13.162,13.158
			c-7.265,0-13.158-5.891-13.158-13.158C123.46,32.285,129.354,26.394,136.619,26.394z"/>
		<path d="M113.839,98.733c2.231,0.176,4.345-1.504,4.56-3.806l2.676-29.792h0.836v10.289l0.7,0.7h4.372
			c1.335,2.251,2.632,4.807,2.632,9.25c0,4.594-1.385,6.837-2.773,8.961h-4.23l-0.7,0.7v28.016l0.7,0.7h1.401v31.432
			c0,3.097,2.512,5.604,5.603,5.604c3.092,0,5.604-2.507,5.604-5.604v-31.432h2.802v31.432c0,3.097,2.512,5.604,5.604,5.604
			c3.091,0,5.603-2.507,5.603-5.604v-31.432h1.401l0.7-0.7V95.035l-0.7-0.7h-4.23c-1.393-2.124-2.773-4.361-2.773-8.961
			c0-4.443,1.297-6.999,2.632-9.25h4.372l0.7-0.7V65.136h0.849l2.676,29.792c0.196,2.187,2.03,3.828,4.18,3.828l0.378-0.017
			c2.32-0.207,4.024-2.248,3.814-4.563l-3.021-33.62c-0.197-2.167-2.009-3.824-4.185-3.824h-13.808
			c-1.702-0.843-3.571-1.358-5.593-1.358c-2.017,0-3.89,0.515-5.585,1.358h-13.811c-2.18,0-3.991,1.658-4.188,3.824l-3.021,33.615
			C109.814,96.485,111.519,98.526,113.839,98.733z M149.926,95.735v26.615h-26.615V95.735H149.926z M123.311,64.917h26.615v9.806
			h-26.615V64.917z"/>
	</g>
</g>
<g>
</g>
<g>
</g>
<g>
</g>
<g>
</g>
<g>
</g>
<g>
</g>
<g>
</g>
<g>
</g>
<g>
</g>
<g>
</g>
<g>
</g>
<g>
</g>
<g>
</g>
<g>
</g>
<g>
</g>
</svg>
