<?xml version="1.0" encoding="iso-8859-1"?>
<!-- Generator: Adobe Illustrator 16.0.0, SVG Export Plug-In . SVG Version: 6.00 Build 0)  -->
<!DOCTYPE svg PUBLIC "-//W3C//DTD SVG 1.1//EN" "http://www.w3.org/Graphics/SVG/1.1/DTD/svg11.dtd">
<svg version="1.1" id="Capa_1" xmlns="http://www.w3.org/2000/svg" xmlns:xlink="http://www.w3.org/1999/xlink" x="0px" y="0px"
	 width="171.525px" height="171.525px" viewBox="0 0 171.525 171.525" style="enable-background:new 0 0 171.525 171.525;"
	 xml:space="preserve">
<g>
	<g>
		<path d="M103.565,100.882l-39.46,5.953L53.301,51.303c-1.182-6.074-7.048-10.074-13.137-8.859
			c-6.077,1.182-10.045,7.067-8.859,13.141l11.206,57.599c0.75,3.852,3.401,6.836,6.786,8.213H30.524
			c-3.101,0-5.603,2.5-5.603,5.604c0,3.097,2.502,5.604,5.603,5.604h53.793c3.096,0,5.603-2.507,5.603-5.604
			c0-3.104-2.507-5.604-5.603-5.604H61.499l37.44-5.641l9.139,50.026c0.619,3.38,3.562,5.743,6.89,5.743l1.266-0.121
			c3.801-0.692,6.323-4.344,5.631-8.147l-10.366-56.706C110.825,102.829,107.372,100.367,103.565,100.882z"/>
		<path d="M48.708,0c11.176,0,20.238,9.062,20.238,20.238c0,11.18-9.062,20.241-20.238,20.241c-11.18,0-20.241-9.061-20.241-20.241
			C28.467,9.062,37.528,0,48.708,0z"/>
		<path d="M102.819,90.622c26.053-16.506-17.848-27.932,0-47.232C75.313,61.451,116.817,75.965,102.819,90.622z"/>
		<path d="M127.197,52.548c-27.497,18.065,13.997,32.575,0,47.229C153.25,83.271,109.342,71.839,127.197,52.548z"/>
		<path d="M138.108,25.762c-27.506,18.06,14.003,32.567,0,47.232C164.172,56.474,120.264,45.062,138.108,25.762z"/>
	</g>
</g>
<g>
</g>
<g>
</g>
<g>
</g>
<g>
</g>
<g>
</g>
<g>
</g>
<g>
</g>
<g>
</g>
<g>
</g>
<g>
</g>
<g>
</g>
<g>
</g>
<g>
</g>
<g>
</g>
<g>
</g>
</svg>
