<?xml version="1.0" encoding="iso-8859-1"?>
<!-- Generator: Adobe Illustrator 16.0.0, SVG Export Plug-In . SVG Version: 6.00 Build 0)  -->
<!DOCTYPE svg PUBLIC "-//W3C//DTD SVG 1.1//EN" "http://www.w3.org/Graphics/SVG/1.1/DTD/svg11.dtd">
<svg version="1.1" id="Capa_1" xmlns="http://www.w3.org/2000/svg" xmlns:xlink="http://www.w3.org/1999/xlink" x="0px" y="0px"
	 width="156.102px" height="156.102px" viewBox="0 0 156.102 156.102" style="enable-background:new 0 0 156.102 156.102;"
	 xml:space="preserve">
<g>
	<g>
		<path d="M149.014,70.96C149.014,31.774,117.236,0,78.05,0C38.864,0,7.088,31.774,7.088,70.96c0,12.331-3.945,38.096,1.583,48.186
			c12.051,22.024,42.512,36.955,69.379,36.955c26.864,0,57.334-14.931,69.376-36.955C152.959,109.057,149.014,83.291,149.014,70.96z
			 M34.169,70.96c0-7.828,8.238-14.169,18.392-14.169c10.165,0,18.399,6.342,18.399,14.169c0,7.825-8.234,14.178-18.399,14.178
			C42.408,85.139,34.169,78.785,34.169,70.96z M78.055,132.088c-15.655,0-28.347-4.766-28.347-10.632
			c0-5.865,12.691-10.626,28.347-10.626c15.653,0,28.354,4.761,28.354,10.626C106.408,127.322,93.708,132.088,78.055,132.088z
			 M103.541,85.139c-10.15,0-18.396-6.354-18.396-14.178c0-7.828,8.246-14.169,18.396-14.169c10.161,0,18.401,6.342,18.401,14.169
			C121.942,78.785,113.702,85.139,103.541,85.139z"/>
	</g>
</g>
<g>
</g>
<g>
</g>
<g>
</g>
<g>
</g>
<g>
</g>
<g>
</g>
<g>
</g>
<g>
</g>
<g>
</g>
<g>
</g>
<g>
</g>
<g>
</g>
<g>
</g>
<g>
</g>
<g>
</g>
</svg>
