<?xml version="1.0" encoding="iso-8859-1"?>
<!-- Generator: Adobe Illustrator 16.0.0, SVG Export Plug-In . SVG Version: 6.00 Build 0)  -->
<!DOCTYPE svg PUBLIC "-//W3C//DTD SVG 1.1//EN" "http://www.w3.org/Graphics/SVG/1.1/DTD/svg11.dtd">
<svg version="1.1" id="Capa_1" xmlns="http://www.w3.org/2000/svg" xmlns:xlink="http://www.w3.org/1999/xlink" x="0px" y="0px"
	 width="194.419px" height="194.419px" viewBox="0 0 194.419 194.419" style="enable-background:new 0 0 194.419 194.419;"
	 xml:space="preserve">
<g>
	<g>
		<path d="M98.338,0.475c-1.724,0.993-2.314,3.312-1.709,5.688L34.682,41.927c-1.754-1.714-4.062-2.363-5.782-1.37
			c-2.213,1.278-2.625,4.762-0.911,7.724L52.057,89.97c1.711,2.975,5.55,4.004,8.513,2.284L89.582,75.5
			c0.274,0.648,0.563,1.297,0.886,1.952l49.776,100.632c3.032,6.15,10.09,13.135,15.667,15.516
			c5.572,2.381,10.729-0.603,11.454-6.619s-1.797-15.618-5.603-21.324L99.504,72.239c-0.405-0.612-0.838-1.178-1.255-1.741
			l29.018-16.754c2.978-1.714,4.001-5.556,2.284-8.516L105.487,3.538C103.769,0.582,100.545-0.8,98.338,0.475z M97.327,7.965
			l0.101,0.244l0.953,1.653L37.002,45.294l-0.956-1.65l-0.162-0.201L97.327,7.965z M112.91,47.49l-50.574,29.2
			c-2.975,1.714-6.811,0.686-8.519-2.277L40.125,50.689l61.379-35.436l13.694,23.721C116.904,41.945,115.875,45.775,112.91,47.49z"
			/>
	</g>
</g>
<g>
</g>
<g>
</g>
<g>
</g>
<g>
</g>
<g>
</g>
<g>
</g>
<g>
</g>
<g>
</g>
<g>
</g>
<g>
</g>
<g>
</g>
<g>
</g>
<g>
</g>
<g>
</g>
<g>
</g>
</svg>
