<?xml version="1.0" encoding="iso-8859-1"?>
<!-- Generator: Adobe Illustrator 16.0.0, SVG Export Plug-In . SVG Version: 6.00 Build 0)  -->
<!DOCTYPE svg PUBLIC "-//W3C//DTD SVG 1.1//EN" "http://www.w3.org/Graphics/SVG/1.1/DTD/svg11.dtd">
<svg version="1.1" id="Capa_1" xmlns="http://www.w3.org/2000/svg" xmlns:xlink="http://www.w3.org/1999/xlink" x="0px" y="0px"
	 width="187.279px" height="187.279px" viewBox="0 0 187.279 187.279" style="enable-background:new 0 0 187.279 187.279;"
	 xml:space="preserve">
<g>
	<g>
		<path d="M145.037,109.49c2.872,0,5.203,2.331,5.203,5.198c0,2.872-2.331,5.203-5.203,5.203c-2.867,0-5.196-2.331-5.196-5.203
			C139.841,111.821,142.17,109.49,145.037,109.49z"/>
		<path d="M163.028,109.869c6.435-6.798,5.363-12.61,2.408-15.586c-3.716-3.705-9.968-2.895-15.571,2.413
			c-1.906-6.342-5.818-10.093-10.191-10.124V68.499c2.137-0.629,3.669-2.213,3.669-4.09s-1.532-3.458-3.669-4.093v-0.312h-1.97
			h-68.07l-5.379-9.33c1.34-0.774,1.994-2.164,1.475-3.086c-0.534-0.925-2.068-1.045-3.406-0.271L37.237,3.869
			c1.338-0.78,1.999-2.165,1.466-3.089c-0.53-0.922-2.06-1.045-3.401-0.269L15.77,11.787c-1.338,0.771-1.996,2.162-1.47,3.081
			c0.535,0.925,2.063,1.048,3.41,0.271l25.083,43.447c-0.632,0.369-1.102,0.878-1.371,1.412h-2.353h-1.973v0.312
			c-2.131,0.635-3.665,2.214-3.665,4.094c0,1.877,1.534,3.461,3.665,4.088v36.598c0,38.659,15.733,51.07,37.204,54.212v10.511
			c-16.41,1.582-28.183,6.047-28.183,13.059h83.091c2.384,2.816,5.296,4.408,8.508,4.408c0.859,0,1.729-0.115,2.582-0.345
			c3.387-0.902,5.916-3.387,7.125-6.991c1.188-3.521,1.089-7.903-0.284-13.03l-0.197-0.695l0.7,0.204
			c2.714,0.729,5.264,1.098,7.584,1.098c6.457,0,11.098-2.971,12.41-7.934c1.406-5.257-1.382-12.586-13.886-15.94l-0.724-0.176
			l0.532-0.514c0.551-0.553,0.952-1.084,1.434-1.631c1.429-0.99,2.545-2.429,3.188-4.284c1.934-3.327,2.561-6.353,2.271-8.909
			c0.899,0.121,1.862,0.34,2.688,0.34c5.061,0,8.704-2.363,9.755-6.331C173.968,118.114,171.997,112.543,163.028,109.869z
			 M122.242,174.125l1.434-1.265l0.513-0.552l0.183,0.722c0.233,0.887,0.515,1.707,0.803,2.517
			C124.298,175.044,123.308,174.574,122.242,174.125z M164.905,158.863c-1.27,4.782-6.977,7.404-16.53,4.843
			c-2.922-0.786-5.724-2.386-8.225-4.255c1.877,2.504,3.477,5.311,4.271,8.212c2.559,9.569-0.074,15.277-4.851,16.553
			c-4.782,1.285-9.913-2.348-12.471-11.907c-0.788-2.906-0.799-6.146-0.431-9.243c-1.242,2.873-2.861,5.677-4.992,7.798
			c-7.004,6.999-13.245,7.578-16.744,4.066c-3.511-3.503-2.927-9.751,4.077-16.75c2.134-2.118,4.902-3.748,7.78-4.985
			c-3.086,0.366-6.331,0.351-9.226-0.421c-9.577-2.566-13.198-7.688-11.915-12.471c1.284-4.789,6.977-7.42,16.556-4.859
			c2.907,0.788,5.719,2.408,8.213,4.268c-1.859-2.504-3.475-5.308-4.25-8.219c-2.325-8.64-0.388-14.091,3.539-16.016
			c1.746,1.729,4.181,3.102,7.349,4.044c-2.487,2.632-4.027,5.291-4.547,7.891c-0.602,2.971,0.164,5.696,2.145,7.677
			c3.711,3.721,9.954,2.913,15.585-2.403c1.745,5.845,5.079,9.468,9.104,10.037c-1.723,1.264-3.578,2.386-5.552,3.244
			c3.09-0.355,6.323-0.345,9.229,0.427C162.575,148.942,166.181,154.076,164.905,158.863z M102.478,161.982v-2.752
			c0.683-0.099,1.415-0.138,2.088-0.264C103.765,159.974,103.074,160.986,102.478,161.982z M170.166,121.424
			c-0.919,3.475-5.056,5.375-11.994,3.512c-2.125-0.563-4.155-1.729-5.972-3.086c1.358,1.816,2.517,3.857,3.097,5.967
			c1.856,6.938-0.049,11.084-3.519,12.009c-3.473,0.931-7.201-1.707-9.051-8.646c-0.569-2.106-0.58-4.46-0.317-6.715
			c-0.893,2.086-2.068,4.121-3.611,5.669c-5.089,5.073-9.631,5.5-12.158,2.95c-2.545-2.545-2.124-7.079,2.956-12.164
			c1.547-1.539,3.566-2.721,5.64-3.612c-2.236,0.264-4.589,0.252-6.698-0.306c-6.949-1.861-9.568-5.587-8.64-9.057
			c0.93-3.469,5.057-5.379,12.011-3.524c2.113,0.569,4.154,1.746,5.961,3.099c-1.348-1.823-2.517-3.853-3.082-5.966
			c-1.866-6.943,0.038-11.08,3.507-12.016c3.47-0.93,7.196,1.707,9.059,8.645c0.562,2.113,0.562,4.46,0.299,6.704
			c0.91-2.083,2.087-4.109,3.623-5.658c5.071-5.081,9.614-5.493,12.158-2.966c2.545,2.55,2.129,7.087-2.96,12.176
			c-1.541,1.537-3.577,2.709-5.646,3.605c2.242-0.252,4.595-0.252,6.701,0.308C168.473,114.23,171.097,117.955,170.166,121.424z"/>
		<path d="M130.292,142.414c3.96,0,7.167,3.207,7.167,7.171c0,3.954-3.207,7.167-7.167,7.167c-3.959,0-7.165-3.213-7.165-7.167
			C123.127,145.621,126.333,142.414,130.292,142.414z"/>
	</g>
</g>
<g>
</g>
<g>
</g>
<g>
</g>
<g>
</g>
<g>
</g>
<g>
</g>
<g>
</g>
<g>
</g>
<g>
</g>
<g>
</g>
<g>
</g>
<g>
</g>
<g>
</g>
<g>
</g>
<g>
</g>
</svg>
