<?xml version="1.0" encoding="iso-8859-1"?>
<!-- Generator: Adobe Illustrator 16.0.0, SVG Export Plug-In . SVG Version: 6.00 Build 0)  -->
<!DOCTYPE svg PUBLIC "-//W3C//DTD SVG 1.1//EN" "http://www.w3.org/Graphics/SVG/1.1/DTD/svg11.dtd">
<svg version="1.1" id="Capa_1" xmlns="http://www.w3.org/2000/svg" xmlns:xlink="http://www.w3.org/1999/xlink" x="0px" y="0px"
	 width="171.72px" height="171.72px" viewBox="0 0 171.72 171.72" style="enable-background:new 0 0 171.72 171.72;"
	 xml:space="preserve">
<g>
	<g>
		<polygon points="37.149,84.004 37.149,100.164 24.214,106.642 49.21,106.642 52.213,105.472 41.603,100.164 41.603,84.004 
			63.828,84.004 60.869,79.562 40.755,79.562 54.048,59.631 44.429,45.197 50.901,45.197 39.375,32.267 27.852,45.197 
			34.315,45.197 21.394,64.593 27.852,64.593 14.922,84.004 		"/>
		<polygon points="130.965,79.562 110.851,79.562 107.89,84.004 130.114,84.004 130.114,100.164 119.51,105.472 122.513,106.642 
			147.503,106.642 134.57,100.164 134.57,84.004 156.807,84.004 143.868,64.593 150.329,64.593 137.408,45.197 143.868,45.197 
			132.348,32.267 120.822,45.197 127.289,45.197 117.672,59.631 		"/>
		<polygon points="69.342,46.37 50.803,74.18 82.677,74.18 82.677,99.466 64.132,106.642 107.588,106.642 89.046,99.466 
			89.046,74.18 120.917,74.18 102.381,46.37 111.648,46.37 93.101,18.551 102.381,18.551 85.86,0 69.342,18.551 78.616,18.551 
			60.068,46.37 		"/>
		<path d="M39.54,136.462c-7.477-2.831-10.746-4.463-10.746-8.163c0-3.009,2.749-5.591,8.432-5.591c5.671,0,9.8,1.637,12.117,2.754
			l2.926-10.58c-3.434-1.549-8.251-2.92-14.783-2.92c-13.672,0-21.929,7.565-21.929,17.454c0,8.435,6.271,13.755,15.909,17.106
			c6.966,2.5,9.714,4.557,9.714,8.174c0,3.783-3.186,6.277-9.2,6.277c-5.601,0-11.006-1.809-14.535-3.611l-2.663,10.828
			c3.269,1.809,9.8,3.529,16.423,3.529c15.906,0,23.38-8.252,23.38-17.969C54.58,145.582,49.769,140.251,39.54,136.462z"/>
		<path d="M98.881,117.128c-3.865-3.104-9.634-4.646-17.705-4.646c-8.003,0-13.681,0.515-17.718,1.2v57.175h12.983v-20.711
			c1.206,0.165,2.748,0.248,4.474,0.248c7.735,0,14.36-1.886,18.823-6.1c3.435-3.275,5.332-8.08,5.332-13.761
			C105.076,124.865,102.594,120.048,98.881,117.128z M80.824,140.333c-1.889,0-3.263-0.082-4.383-0.343v-17.105
			c0.945-0.26,2.748-0.521,5.423-0.521c6.531,0,10.22,3.187,10.22,8.512C92.084,136.822,87.793,140.333,80.824,140.333z"/>
		<path d="M138.968,112.907h-17.188l-17.714,57.949h13.577l4.137-14.871h16.586l4.475,14.871h14.097L138.968,112.907z
			 M123.671,146.185l3.429-12.288c0.945-3.363,1.809-7.737,2.672-11.177h0.165c0.863,3.439,1.892,7.73,2.92,11.177l3.617,12.288
			H123.671z"/>
	</g>
</g>
<g>
</g>
<g>
</g>
<g>
</g>
<g>
</g>
<g>
</g>
<g>
</g>
<g>
</g>
<g>
</g>
<g>
</g>
<g>
</g>
<g>
</g>
<g>
</g>
<g>
</g>
<g>
</g>
<g>
</g>
</svg>
