<?xml version="1.0" encoding="iso-8859-1"?>
<!-- Generator: Adobe Illustrator 16.0.0, SVG Export Plug-In . SVG Version: 6.00 Build 0)  -->
<!DOCTYPE svg PUBLIC "-//W3C//DTD SVG 1.1//EN" "http://www.w3.org/Graphics/SVG/1.1/DTD/svg11.dtd">
<svg version="1.1" id="Capa_1" xmlns="http://www.w3.org/2000/svg" xmlns:xlink="http://www.w3.org/1999/xlink" x="0px" y="0px"
	 width="163.908px" height="163.908px" viewBox="0 0 163.908 163.908" style="enable-background:new 0 0 163.908 163.908;"
	 xml:space="preserve">
<g>
	<g>
		<path d="M134.279,15.193c-4.137-3.311-18.746-16.747-23.723-15.045c-4.974,1.704-12.141,11.884-15.371,15.045
			c-3.217,3.16-12.604,26.353-15.074,31.207c-2.466,4.857-6.845,88.841-6.845,88.841s-2.25-85.082,0-90.272
			c2.241-5.192,9.769-23.423,11.421-27.381c1.655-3.961-13.037-17.888-17.8-17.439C62.124,0.597,45.634,10.985,42.02,15.193
			c-3.614,4.213-34,38.109-34.187,42.54c-0.185,4.426,13.04,14.059,17.174,13.734c4.137-0.326,22.503-20.361,23.064-14.227
			c0.562,6.136-9.644,105.447-5.396,106.487c4.247,1.036,26.463-2.6,28.661-5.739c2.19-3.137,1.254-14.1,1.254-14.1
			s6.779,8.933,9.362,9.716c2.585,0.776,41.414,10.654,44.805,8.158c3.388-2.494-9.975-107.839-7.523-109.431
			c2.451-1.59,27.95,16.323,31.373,14.991c3.407-1.341,4.197-12.838,5.411-16.569C157.233,47.021,138.417,18.51,134.279,15.193z
			 M112.223,104.774c0,0-3.253,15.287-12.052,15.287c-8.805,0-12.055-15.287-12.055-15.287s-1.536-5.573,0-6.957
			c1.542-1.385,22.982-1.067,24.111,0C113.358,98.879,112.223,104.774,112.223,104.774z"/>
	</g>
</g>
<g>
</g>
<g>
</g>
<g>
</g>
<g>
</g>
<g>
</g>
<g>
</g>
<g>
</g>
<g>
</g>
<g>
</g>
<g>
</g>
<g>
</g>
<g>
</g>
<g>
</g>
<g>
</g>
<g>
</g>
</svg>
