<?xml version="1.0" encoding="iso-8859-1"?>
<!-- Generator: Adobe Illustrator 16.0.0, SVG Export Plug-In . SVG Version: 6.00 Build 0)  -->
<!DOCTYPE svg PUBLIC "-//W3C//DTD SVG 1.1//EN" "http://www.w3.org/Graphics/SVG/1.1/DTD/svg11.dtd">
<svg version="1.1" id="Capa_1" xmlns="http://www.w3.org/2000/svg" xmlns:xlink="http://www.w3.org/1999/xlink" x="0px" y="0px"
	 width="195.199px" height="195.199px" viewBox="0 0 195.199 195.199" style="enable-background:new 0 0 195.199 195.199;"
	 xml:space="preserve">
<g>
	<g>
		<path d="M90.156,42.725c-42.04,0-76.239,34.199-76.239,76.232c0,42.04,34.2,76.242,76.239,76.242
			c42.03,0,76.239-34.189,76.239-76.242C166.395,76.93,132.186,42.725,90.156,42.725z M23.443,118.957
			c0-36.778,29.931-66.7,66.713-66.7s66.704,29.922,66.704,66.7H23.443z"/>
		<path d="M27.535,21.948h32.559v3.446H27.535V21.948z M28.643,0l31.45,8.43l-0.892,3.328l-31.45-8.431L28.643,0z M60.105,38.906
			l-31.45,8.425L27.763,44l31.454-8.424L60.105,38.906z"/>
		<path d="M147.184,5.797c-17.281,0-31.401,6.753-33.648,15.487h-9.098V9.371H75.858v8.056h-6.317v12.471h6.317v8.062h28.579V26.043
			h9.098c2.24,8.729,16.367,15.488,33.648,15.488c18.84,0,34.1-7.998,34.1-17.869C181.283,13.798,166.023,5.797,147.184,5.797z"/>
	</g>
</g>
<g>
</g>
<g>
</g>
<g>
</g>
<g>
</g>
<g>
</g>
<g>
</g>
<g>
</g>
<g>
</g>
<g>
</g>
<g>
</g>
<g>
</g>
<g>
</g>
<g>
</g>
<g>
</g>
<g>
</g>
</svg>
