<?xml version="1.0" encoding="iso-8859-1"?>
<!-- Generator: Adobe Illustrator 16.0.0, SVG Export Plug-In . SVG Version: 6.00 Build 0)  -->
<!DOCTYPE svg PUBLIC "-//W3C//DTD SVG 1.1//EN" "http://www.w3.org/Graphics/SVG/1.1/DTD/svg11.dtd">
<svg version="1.1" id="Capa_1" xmlns="http://www.w3.org/2000/svg" xmlns:xlink="http://www.w3.org/1999/xlink" x="0px" y="0px"
	 width="210.112px" height="210.112px" viewBox="0 0 210.112 210.112" style="enable-background:new 0 0 210.112 210.112;"
	 xml:space="preserve">
<g>
	<g>
		<polygon points="137.753,112.427 127.332,148.85 128.536,149.037 143.65,130.408 145.323,139.929 161.118,124.888 
			157.888,123.995 178.3,105.978 169.807,106.015 188.181,82.493 158.106,96.102 158.275,86.515 139.537,104.689 138.169,96.775 
			129.061,108.214 128.164,116.707 		"/>
		<polygon points="40.313,106.015 31.811,105.978 52.222,123.995 48.996,124.888 64.791,139.929 66.465,130.408 81.573,149.037 
			82.712,148.859 72.092,113.681 82.194,117.45 81.281,108.515 71.945,96.775 70.579,104.689 51.835,86.515 52.005,96.102 
			21.931,82.493 		"/>
		<polygon points="119.419,145.877 123.097,151.52 132.18,119.804 124.235,123.349 128.191,85.899 120.213,92.252 121.02,46.44 
			114.357,56.273 105.056,13.548 96.808,57.45 88.829,45.371 89.486,89.445 81.724,81.22 86.066,123.722 77.66,120.58 
			87.007,151.525 90.695,145.877 98.342,163.918 105.056,170.967 111.77,163.918 		"/>
		<polygon points="183.315,148.838 210.112,133.396 163.962,138.036 164.143,127.584 143.338,147.394 141.821,138.77 
			124.391,160.263 119.956,153.468 111.442,173.572 115.021,193.3 136.656,196.564 158.886,188.28 151.557,184.713 172.422,170.791 
			163.723,168.438 192.767,148.794 		"/>
		<polygon points="85.723,160.263 68.287,138.77 66.779,147.394 45.97,127.584 46.152,138.036 0,133.396 26.796,148.838 
			17.353,148.794 46.393,168.438 37.692,170.791 58.556,184.713 51.23,188.28 73.458,196.564 95.094,193.3 98.673,173.572 
			90.156,153.468 		"/>
	</g>
</g>
<g>
</g>
<g>
</g>
<g>
</g>
<g>
</g>
<g>
</g>
<g>
</g>
<g>
</g>
<g>
</g>
<g>
</g>
<g>
</g>
<g>
</g>
<g>
</g>
<g>
</g>
<g>
</g>
<g>
</g>
</svg>
