<?xml version="1.0" encoding="iso-8859-1"?>
<!-- Generator: Adobe Illustrator 16.0.0, SVG Export Plug-In . SVG Version: 6.00 Build 0)  -->
<!DOCTYPE svg PUBLIC "-//W3C//DTD SVG 1.1//EN" "http://www.w3.org/Graphics/SVG/1.1/DTD/svg11.dtd">
<svg version="1.1" id="Capa_1" xmlns="http://www.w3.org/2000/svg" xmlns:xlink="http://www.w3.org/1999/xlink" x="0px" y="0px"
	 width="190.316px" height="190.315px" viewBox="0 0 190.316 190.315" style="enable-background:new 0 0 190.316 190.315;"
	 xml:space="preserve">
<g>
	<g>
		<path d="M72.268,120.936c-13.452,0-24.369-2.883-24.369-6.439v60.438c0,3.562,10.912,6.447,24.369,6.447
			c13.458,0,24.37-2.89,24.37-6.447V114.49C96.637,118.053,85.721,120.936,72.268,120.936z"/>
		<path d="M75.615,79.541c-12.228,6.517-18.996,19.661-7.923,34.616c5.148-7.803,3.813-18.682,3.813-18.682
			s2.769,6.178,4.715,15.432C90.288,95.152,76.224,87.357,75.615,79.541z"/>
		<path d="M121.693,105.451c-9.937,0-17.996-2.129-17.996-4.767v84.871c0,2.634,8.06,4.76,17.996,4.76
			c9.943,0,18.009-2.126,18.009-4.76v-84.871C139.702,103.322,131.636,105.451,121.693,105.451z"/>
		<path d="M120.94,81.675c0,0,2.77,6.175,4.712,15.431c14.068-15.753,0-23.543-0.607-31.365
			c-12.232,6.517-18.999,19.661-7.924,34.609C122.268,92.553,120.94,81.675,120.94,81.675z"/>
		<path d="M49.502,37.286c2.106,3.661,4.629,4.597,6.46,3.543c1.833-1.058,2.281-3.705,0.168-7.363
			c-0.64-1.116-1.62-2.09-2.662-2.922c1.24,0.495,2.572,0.848,3.854,0.848c4.23,0,6.293-1.716,6.293-3.833
			c0-2.113-2.063-3.828-6.293-3.828c-1.282,0-2.615,0.353-3.854,0.839c1.042-0.824,2.017-1.797,2.662-2.919
			c2.112-3.658,1.664-6.304-0.168-7.357c-1.831-1.053-4.349-0.128-6.46,3.538c-0.646,1.107-1.011,2.449-1.193,3.764
			c-0.198-1.315-0.556-2.657-1.196-3.764c-2.112-3.661-4.626-4.591-6.459-3.538c-1.839,1.054-2.286,3.699-0.168,7.357
			c0.638,1.111,1.621,2.09,2.662,2.919c-1.24-0.492-2.58-0.845-3.862-0.845c-4.23,0-6.291,1.716-6.291,3.833
			c0,2.112,2.061,3.828,6.291,3.828c1.282,0,2.618-0.348,3.862-0.849c-1.048,0.833-2.024,1.812-2.667,2.922
			c-2.113,3.663-1.662,6.304,0.172,7.354c1.827,1.062,4.347,0.125,6.462-3.53c0.642-1.114,1.001-2.449,1.193-3.764
			C48.497,34.837,48.856,36.178,49.502,37.286z M45.653,29.089c-0.845-1.461-0.343-3.333,1.121-4.181
			c1.467-0.845,3.333-0.347,4.179,1.122c0.847,1.466,0.347,3.338-1.114,4.181C48.369,31.062,46.498,30.558,45.653,29.089z"/>
		<path d="M108.025,52.848c0.733-2.742-1.339-5.676-6.812-7.146c-1.659-0.435-3.517-0.443-5.284-0.241
			c1.634-0.706,3.234-1.63,4.454-2.851c4.011-4.011,4.343-7.587,2.334-9.593c-2.005-2.003-5.585-1.677-9.592,2.337
			c-1.216,1.214-2.147,2.818-2.858,4.459c0.213-1.77,0.208-3.625-0.235-5.289c-1.473-5.475-4.406-7.554-7.144-6.821
			c-2.734,0.733-4.242,4-2.774,9.475c0.449,1.666,1.374,3.267,2.438,4.703c-1.429-1.067-3.037-1.989-4.702-2.443
			c-5.479-1.47-8.741,0.038-9.474,2.776c-0.736,2.742,1.338,5.678,6.817,7.141c1.665,0.443,3.513,0.454,5.29,0.241
			c-1.641,0.712-3.242,1.642-4.466,2.851c-4.006,4.011-4.335,7.587-2.33,9.599c1.999,2.007,5.587,1.676,9.591-2.337
			c1.223-1.215,2.143-2.818,2.854-4.46c-0.208,1.771-0.203,3.62,0.241,5.292c1.461,5.472,4.396,7.552,7.139,6.818
			c2.738-0.733,4.239-4,2.773-9.475c-0.449-1.667-1.368-3.267-2.437-4.704c1.427,1.067,3.038,1.984,4.7,2.438
			C104.035,57.089,107.296,55.587,108.025,52.848z M89.27,51.496c-2.192,0.588-4.443-0.711-5.027-2.902
			c-0.588-2.192,0.707-4.438,2.9-5.021c2.192-0.587,4.438,0.711,5.026,2.903C92.748,48.657,91.453,50.914,89.27,51.496z"/>
		<path d="M79.278,12.016c0.903,0.123,1.872,0.011,2.796-0.208c-0.819,0.471-1.599,1.064-2.16,1.776
			c-1.842,2.366-1.786,4.271-0.605,5.19c1.182,0.925,3.042,0.52,4.887-1.839c0.561-0.717,0.948-1.62,1.212-2.522
			c0,0.941,0.128,1.912,0.466,2.758c1.119,2.78,2.801,3.674,4.182,3.116c1.396-0.556,1.973-2.372,0.849-5.152
			c-0.343-0.84-0.931-1.63-1.583-2.312c0.824,0.465,1.728,0.845,2.63,0.98c2.962,0.416,4.583-0.583,4.797-2.068
			c0.203-1.489-1.071-2.89-4.048-3.312c-0.898-0.123-1.872-0.005-2.792,0.214c0.819-0.476,1.599-1.059,2.16-1.781
			c1.846-2.361,1.792-4.265,0.604-5.19c-1.182-0.919-3.038-0.515-4.887,1.85c-0.56,0.711-0.94,1.62-1.204,2.514
			c-0.005-0.936-0.123-1.91-0.465-2.755c-1.127-2.774-2.796-3.677-4.19-3.117c-1.391,0.561-1.973,2.37-0.85,5.149
			c0.343,0.842,0.932,1.625,1.583,2.309c-0.819-0.459-1.721-0.845-2.621-0.974c-2.966-0.417-4.585,0.583-4.791,2.068
			C75.031,10.194,76.315,11.6,79.278,12.016z M86.293,8.077c1.181,0.161,2.017,1.261,1.849,2.449
			c-0.162,1.187-1.267,2.011-2.449,1.85c-1.187-0.17-2.016-1.267-1.85-2.454C84.008,8.733,85.105,7.909,86.293,8.077z"/>
		<path d="M124.177,28.544c0.685,0.101,1.418,0.014,2.109-0.151c-0.621,0.354-1.205,0.807-1.633,1.341
			c-1.394,1.781-1.352,3.22-0.459,3.916c0.896,0.7,2.298,0.391,3.693-1.389c0.421-0.545,0.711-1.221,0.919-1.905
			c0,0.711,0.094,1.444,0.347,2.085c0.846,2.101,2.11,2.777,3.161,2.353c1.05-0.421,1.488-1.787,0.64-3.888
			c-0.257-0.64-0.7-1.233-1.19-1.749c0.616,0.354,1.294,0.638,1.979,0.745c2.243,0.314,3.47-0.443,3.628-1.562
			c0.149-1.122-0.815-2.186-3.059-2.5c-0.673-0.096-1.41-0.005-2.104,0.164c0.616-0.361,1.209-0.807,1.629-1.352
			c1.4-1.775,1.358-3.217,0.459-3.918c-0.893-0.695-2.293-0.385-3.686,1.396c-0.43,0.544-0.714,1.229-0.916,1.908
			c-0.004-0.707-0.097-1.448-0.354-2.085c-0.844-2.096-2.114-2.774-3.159-2.353c-1.051,0.418-1.494,1.787-0.64,3.888
			c0.257,0.635,0.7,1.226,1.194,1.749c-0.62-0.348-1.304-0.638-1.98-0.739c-2.245-0.314-3.464,0.44-3.623,1.562
			C120.965,27.174,121.934,28.238,124.177,28.544z M129.475,25.57c0.892,0.123,1.522,0.952,1.396,1.849
			c-0.126,0.896-0.957,1.519-1.85,1.396c-0.899-0.124-1.526-0.953-1.4-1.85C127.748,26.068,128.58,25.447,129.475,25.57z"/>
		<path d="M41.392,66.15c-0.675-0.096-1.412-0.005-2.106,0.162c0.617-0.359,1.206-0.808,1.63-1.351
			c1.401-1.777,1.357-3.216,0.46-3.917c-0.895-0.694-2.295-0.388-3.691,1.396c-0.427,0.542-0.712,1.226-0.913,1.904
			c-0.007-0.706-0.096-1.444-0.354-2.084c-0.846-2.096-2.111-2.775-3.159-2.353c-1.048,0.421-1.492,1.786-0.642,3.888
			c0.261,0.635,0.702,1.228,1.197,1.748c-0.618-0.348-1.303-0.637-1.984-0.738c-2.243-0.315-3.464,0.443-3.619,1.562
			c-0.159,1.123,0.812,2.186,3.047,2.496c0.684,0.101,1.417,0.01,2.108-0.151c-0.619,0.35-1.207,0.805-1.632,1.338
			c-1.396,1.781-1.352,3.22-0.459,3.915c0.895,0.7,2.295,0.394,3.691-1.39c0.422-0.542,0.715-1.221,0.919-1.903
			c0,0.71,0.096,1.446,0.348,2.083c0.847,2.102,2.111,2.78,3.159,2.353c1.053-0.418,1.491-1.786,0.64-3.888
			c-0.257-0.637-0.7-1.234-1.191-1.748c0.621,0.353,1.298,0.64,1.982,0.744c2.241,0.315,3.467-0.443,3.625-1.562
			C44.604,67.527,43.641,66.468,41.392,66.15z M36.098,69.13c-0.896-0.124-1.523-0.952-1.401-1.85
			c0.124-0.895,0.952-1.518,1.856-1.395c0.892,0.123,1.524,0.952,1.396,1.85C37.825,68.638,36.99,69.259,36.098,69.13z"/>
		<path d="M157.042,45.327c-1.121-0.162-2.348-0.022-3.491,0.246c1.013-0.583,1.997-1.311,2.72-2.219
			c2.32-2.947,2.266-5.327,0.79-6.493c-1.467-1.166-3.806-0.679-6.131,2.268c-0.709,0.892-1.198,2.017-1.536,3.155
			c-0.005-1.182-0.149-2.405-0.564-3.464c-1.391-3.494-3.479-4.638-5.229-3.938c-1.747,0.69-2.48,2.953-1.097,6.443
			c0.416,1.059,1.148,2.044,1.959,2.919c-1.012-0.593-2.15-1.075-3.272-1.25c-3.721-0.549-5.762,0.701-6.028,2.556
			c-0.275,1.866,1.317,3.631,5.033,4.181c1.121,0.161,2.354,0.027,3.502-0.247c-1.029,0.588-2.003,1.328-2.721,2.22
			c-2.33,2.94-2.27,5.321-0.793,6.492c1.466,1.179,3.804,0.678,6.135-2.273c0.705-0.887,1.203-2.017,1.537-3.149
			c0,1.187,0.147,2.405,0.569,3.463c1.385,3.489,3.481,4.633,5.228,3.943c1.751-0.701,2.484-2.958,1.098-6.453
			c-0.421-1.055-1.154-2.045-1.957-2.914c1.019,0.587,2.144,1.074,3.278,1.244c3.718,0.556,5.749-0.69,6.022-2.556
			C162.361,47.653,160.763,45.877,157.042,45.327z M149.623,50.062c-1.396,0.558-2.982-0.128-3.529-1.518
			c-0.553-1.401,0.12-2.988,1.518-3.543c1.4-0.552,2.979,0.131,3.533,1.532C151.702,47.921,151.024,49.513,149.623,50.062z"/>
	</g>
</g>
<g>
</g>
<g>
</g>
<g>
</g>
<g>
</g>
<g>
</g>
<g>
</g>
<g>
</g>
<g>
</g>
<g>
</g>
<g>
</g>
<g>
</g>
<g>
</g>
<g>
</g>
<g>
</g>
<g>
</g>
</svg>
