<?xml version="1.0" encoding="iso-8859-1"?>
<!-- Generator: Adobe Illustrator 16.0.0, SVG Export Plug-In . SVG Version: 6.00 Build 0)  -->
<!DOCTYPE svg PUBLIC "-//W3C//DTD SVG 1.1//EN" "http://www.w3.org/Graphics/SVG/1.1/DTD/svg11.dtd">
<svg version="1.1" id="Capa_1" xmlns="http://www.w3.org/2000/svg" xmlns:xlink="http://www.w3.org/1999/xlink" x="0px" y="0px"
	 width="177.83px" height="177.829px" viewBox="0 0 177.83 177.829" style="enable-background:new 0 0 177.83 177.829;"
	 xml:space="preserve">
<g>
	<g>
		<path d="M104.957,4.014c0-2.213-1.808-4.014-4.014-4.014H76.884c-2.203,0-4.005,1.8-4.005,4.014v24.061h32.078V4.014z"/>
		<circle cx="88.918" cy="88.915" r="4.476"/>
		<path d="M129.298,61.363L103.63,42.11c-1.755-1.322-3.201-4.208-3.201-6.416v-2.063H77.397v2.063c0,2.208-1.445,5.088-3.203,6.416
			l-25.67,19.253c-1.759,1.321-2.951,4.191-2.646,6.378l14.922,106.115c0.311,2.188,2.365,3.973,4.566,3.973h47.089
			c2.213,0,4.257-1.784,4.569-3.973L131.95,67.741C132.261,65.555,131.062,62.685,129.298,61.363z M102.109,94.513
			c-1.877,0-3.834-0.52-5.642-1.237c1.527,1.21,2.957,2.638,3.891,4.269c3.097,5.357,2.442,9.226-0.246,10.774
			c-2.676,1.537-6.356,0.183-9.444-5.177c-0.941-1.625-1.469-3.583-1.753-5.5c-0.28,1.927-0.808,3.88-1.749,5.505
			c-3.086,5.354-6.775,6.709-9.448,5.167c-2.684-1.544-3.345-5.406-0.257-10.77c0.941-1.62,2.37-3.059,3.899-4.269
			c-1.814,0.723-3.764,1.237-5.647,1.237c-6.186,0-9.207-2.507-9.207-5.599c0-3.097,3.015-5.598,9.207-5.603
			c1.877,0,3.838,0.525,5.647,1.242c-1.529-1.215-2.958-2.648-3.894-4.273c-3.099-5.352-2.442-9.224,0.247-10.764
			c2.678-1.546,6.361-0.186,9.448,5.166c0.941,1.63,1.469,3.582,1.747,5.507c0.279-1.931,0.808-3.877,1.748-5.507
			c3.092-5.357,6.774-6.711,9.45-5.166c2.688,1.54,3.349,5.412,0.252,10.764c-0.939,1.635-2.367,3.059-3.891,4.273
			c1.813-0.717,3.77-1.242,5.642-1.242c6.183,0,9.204,2.512,9.204,5.603C111.313,92.006,108.299,94.513,102.109,94.513z"/>
	</g>
</g>
<g>
</g>
<g>
</g>
<g>
</g>
<g>
</g>
<g>
</g>
<g>
</g>
<g>
</g>
<g>
</g>
<g>
</g>
<g>
</g>
<g>
</g>
<g>
</g>
<g>
</g>
<g>
</g>
<g>
</g>
</svg>
