<?xml version="1.0" encoding="iso-8859-1"?>
<!-- Generator: Adobe Illustrator 16.0.0, SVG Export Plug-In . SVG Version: 6.00 Build 0)  -->
<!DOCTYPE svg PUBLIC "-//W3C//DTD SVG 1.1//EN" "http://www.w3.org/Graphics/SVG/1.1/DTD/svg11.dtd">
<svg version="1.1" id="Capa_1" xmlns="http://www.w3.org/2000/svg" xmlns:xlink="http://www.w3.org/1999/xlink" x="0px" y="0px"
	 width="172.581px" height="172.581px" viewBox="0 0 172.581 172.581" style="enable-background:new 0 0 172.581 172.581;"
	 xml:space="preserve">
<g>
	<g>
		<path d="M171.177,55.965C169.393,24.811,143.562,0,111.971,0C80.269,0,54.365,24.991,52.748,56.302
			C27.62,58.569,7.762,73.111,5.057,91.404c-2.439,4.75-3.829,9.872-3.829,15.244c0,14.71,31.431,19.94,58.343,19.94
			c26.918,0,58.343-5.22,58.343-19.94c0-5.372-1.396-10.494-3.832-15.244c-2.691-18.213-22.39-32.709-47.374-35.062
			c1.576-23.62,21.242-42.37,45.252-42.37c25.037,0,45.412,20.37,45.412,45.412v113.082h13.979V55.965H171.177z M59.571,119.601
			c-30.711,0-51.356-6.702-51.356-12.952c0-1.499,0.17-2.965,0.427-4.42c16.966,13.17,84.889,13.17,101.861,0
			c0.252,1.455,0.421,2.921,0.421,4.42C110.925,112.909,90.289,119.601,59.571,119.601z"/>
		<path d="M11.824,146.083c0,4.053,2.276,7.33,5.1,7.33c2.813,0,5.099-3.277,5.099-7.33c0-4.052-5.099-11.838-5.099-11.838
			S11.824,142.031,11.824,146.083z"/>
		<path d="M54.476,146.083c0,4.053,2.277,7.33,5.096,7.33c2.818,0,5.105-3.277,5.105-7.33c0-4.052-5.105-11.838-5.105-11.838
			S54.476,142.031,54.476,146.083z"/>
		<path d="M97.132,146.083c0,4.053,2.274,7.33,5.099,7.33c2.817,0,5.1-3.277,5.1-7.33c0-4.052-5.1-11.838-5.1-11.838
			S97.132,142.031,97.132,146.083z"/>
		<path d="M33.151,165.255c0,4.049,2.28,7.326,5.098,7.326c2.815,0,5.099-3.277,5.099-7.326c0-4.05-5.099-11.842-5.099-11.842
			S33.151,161.205,33.151,165.255z"/>
		<path d="M75.808,165.255c0,4.049,2.271,7.326,5.095,7.326c2.824,0,5.1-3.277,5.1-7.326c0-4.05-5.1-11.842-5.1-11.842
			S75.808,161.205,75.808,165.255z"/>
	</g>
</g>
<g>
</g>
<g>
</g>
<g>
</g>
<g>
</g>
<g>
</g>
<g>
</g>
<g>
</g>
<g>
</g>
<g>
</g>
<g>
</g>
<g>
</g>
<g>
</g>
<g>
</g>
<g>
</g>
<g>
</g>
</svg>
