<?xml version="1.0" encoding="iso-8859-1"?>
<!-- Generator: Adobe Illustrator 16.0.0, SVG Export Plug-In . SVG Version: 6.00 Build 0)  -->
<!DOCTYPE svg PUBLIC "-//W3C//DTD SVG 1.1//EN" "http://www.w3.org/Graphics/SVG/1.1/DTD/svg11.dtd">
<svg version="1.1" id="Capa_1" xmlns="http://www.w3.org/2000/svg" xmlns:xlink="http://www.w3.org/1999/xlink" x="0px" y="0px"
	 width="160.828px" height="160.828px" viewBox="0 0 160.828 160.828" style="enable-background:new 0 0 160.828 160.828;"
	 xml:space="preserve">
<g>
	<g>
		<path d="M101.325,22.846c-18.98-6.629-28.895-3.283-24.868,5.026c4.905,10.102,43.527,1.486,62.345,28.29
			C133.062,39.892,117.845,28.6,101.325,22.846z"/>
		<path d="M80.408,0C36.074,0,0,36.075,0,80.417c0,44.334,36.074,80.411,80.408,80.411c44.342,0,80.42-36.077,80.42-80.411
			C160.828,36.075,124.75,0,80.408,0z M100.312,150.333c1.198-1.001,2.386-2.008,3.384-3.18
			c-17.392-4.858-93.81-30.522-76.251-102.477c-3.899,66.406,64.159,88.897,81.322,93.497c7.274-19.545-2.708-48.525-28.353-57.757
			c-36.69-13.214-45.543-53.308-20.637-69.734c6.543-1.94,13.447-3.021,20.631-3.021c40.117,0,72.753,32.632,72.753,72.755
			C153.161,113.622,130.777,141.638,100.312,150.333z"/>
	</g>
</g>
<g>
</g>
<g>
</g>
<g>
</g>
<g>
</g>
<g>
</g>
<g>
</g>
<g>
</g>
<g>
</g>
<g>
</g>
<g>
</g>
<g>
</g>
<g>
</g>
<g>
</g>
<g>
</g>
<g>
</g>
</svg>
