<?xml version="1.0" encoding="iso-8859-1"?>
<!-- Generator: Adobe Illustrator 16.0.0, SVG Export Plug-In . SVG Version: 6.00 Build 0)  -->
<!DOCTYPE svg PUBLIC "-//W3C//DTD SVG 1.1//EN" "http://www.w3.org/Graphics/SVG/1.1/DTD/svg11.dtd">
<svg version="1.1" id="Capa_1" xmlns="http://www.w3.org/2000/svg" xmlns:xlink="http://www.w3.org/1999/xlink" x="0px" y="0px"
	 width="186.937px" height="186.938px" viewBox="0 0 186.937 186.938" style="enable-background:new 0 0 186.937 186.938;"
	 xml:space="preserve">
<g>
	<g>
		<polygon points="13.338,54.879 12.653,54.504 12.61,54.529 		"/>
		<path d="M173.626,54.867c-1.815,0.965-3.745,1.915-5.87,2.81C169.887,56.775,171.811,55.832,173.626,54.867z"/>
		<path d="M13.338,54.879c1.808,0.965,3.723,1.909,5.842,2.798C17.062,56.782,15.141,55.844,13.338,54.879z"/>
		<polygon points="174.327,54.529 174.284,54.504 173.626,54.867 		"/>
		<path d="M12.653,54.504c16.179-8.917,46.265-14.934,80.815-14.934c34.538,0,64.637,6.016,80.815,14.934
			c7.982-4.396,12.653-9.478,12.653-14.934c0-16.517-41.856-29.91-93.469-29.91C41.848,9.661,0,23.048,0,39.571
			C0,45.026,4.67,50.108,12.653,54.504z"/>
		<path d="M34.924,54.946c14.023-2.025,96.577-8.884,119.637,0c-10.564-4.701-33.168-9.974-66.204-9.974
			C55.32,44.972,37.731,49.03,34.924,54.946z"/>
		<path d="M131.014,68.403c-5.852-4.6-14.718-4.713-24.953-0.304l-0.487,1.233l1.229,0.487c5.554-2.393,15.93-5.587,23.048,0.049
			c1.382,1.099,2.515,2.582,3.538,4.241c-12.666,1.875-26.306,2.85-39.921,2.85c-35.555,0-71.319-6.485-89.197-18.979l21.906,94.425
			c0,13.736,30.129,24.873,67.291,24.873c35.415,0,64.362-10.113,67.029-22.949h-48.494V98.161h25.465
			c-0.128,2.374-0.353,4.871-0.669,7.477h-12.52v1.949h12.227c-0.268,1.887-0.512,3.763-0.864,5.76l0.767,1.084l0.152,0.012
			l0.92-0.767c0.377-2.125,0.64-4.104,0.907-6.089h10.461v-1.949H138.68c0.316-2.618,0.536-5.103,0.664-7.477h21.799v52.604
			l21.52-92.786c-10.656,7.443-27.73,12.705-47.276,15.786C134.18,71.633,132.762,69.794,131.014,68.403z"/>
	</g>
</g>
<g>
</g>
<g>
</g>
<g>
</g>
<g>
</g>
<g>
</g>
<g>
</g>
<g>
</g>
<g>
</g>
<g>
</g>
<g>
</g>
<g>
</g>
<g>
</g>
<g>
</g>
<g>
</g>
<g>
</g>
</svg>
