<?xml version="1.0" encoding="iso-8859-1"?>
<!-- Generator: Adobe Illustrator 16.0.0, SVG Export Plug-In . SVG Version: 6.00 Build 0)  -->
<!DOCTYPE svg PUBLIC "-//W3C//DTD SVG 1.1//EN" "http://www.w3.org/Graphics/SVG/1.1/DTD/svg11.dtd">
<svg version="1.1" id="Capa_1" xmlns="http://www.w3.org/2000/svg" xmlns:xlink="http://www.w3.org/1999/xlink" x="0px" y="0px"
	 width="189.77px" height="189.771px" viewBox="0 0 189.77 189.771" style="enable-background:new 0 0 189.77 189.771;"
	 xml:space="preserve">
<g>
	<g>
		<path d="M102.677,52.229c-3.139,0.269-5.921,0.649-8.434,1.098l-9.522,16.49h90.145c-0.275-1.631-1.167-3.62-3.17-6.022
			c-2.182-2.64-5.948-4.473-16.799-7.885c-7.079-2.225-4.031-14.978-22.1-23.254c-22.73-10.415-36.807,7.122-35.389,8.534
			c2.259,2.258,12.804-3.765,15.562,3.507C114.592,48.973,107.648,51.808,102.677,52.229z"/>
		<path d="M81.294,39.616c-14.346-8.287-32.859-3.329-41.142,11.021l-36.14,62.603c-8.282,14.348-3.324,32.858,11.021,41.139
			l10.433,6.024l66.26-114.765L81.294,39.616z"/>
		<path d="M134.777,136.156l0.547-0.252l0.307-0.252l0.448-2.577l2.489-0.351l0.192-0.257c0.974-1.396-2.724-4.668-4.372-6.014
			c-2.928-2.402-7.234-4.395-10.868-5.79c1.401,3.628,3.388,7.94,5.795,10.868C132.993,136.024,134.601,136.156,134.777,136.156z"/>
		<path d="M108.182,132.473l0.252,0.312l2.572,0.443l0.345,2.479l0.257,0.197l0.553,0.252c0.176,0,1.783-0.132,5.472-4.624
			c2.403-2.922,4.401-7.234,5.803-10.862c-3.642,1.396-7.942,3.382-10.869,5.784C110.918,127.806,107.21,131.077,108.182,132.473z"
			/>
		<path d="M140.528,115.926l0.958-2.32l-0.126-0.295c-0.214-0.438-0.312-0.663-1.434-0.663c-0.97,0-2.786,0.252-5.954,1.44
			c-3.398,1.285-7.26,3.961-10.411,6.483c1.574-3.546,3.185-7.951,3.549-11.693c0.214-2.106,0.509-7.043-1.166-7.344l-0.322-0.038
			l-2.15,1.51l-2.101-1.548l-0.27,0.082c-1.677,0.302-1.373,5.237-1.163,7.344c0.37,3.759,1.99,8.175,3.566,11.732
			c-3.032-2.441-6.896-5.172-10.439-6.502c-3.17-1.201-4.991-1.444-5.953-1.444c-1.124,0-1.232,0.225-1.441,0.662l-0.142,0.366
			l0.892,2.451l-1.975,1.539l-0.037,0.317c-0.155,1.706,4.688,2.686,6.778,3.031c3.326,0.557,8.377,0.191,12.301-0.411l0.021,0.056
			v-0.012l0.017-0.054c2.528,0.388,5.423,0.705,8.183,0.705c1.536,0,2.909-0.093,4.109-0.295c2.078-0.34,6.926-1.325,6.779-3.021
			l-0.07-0.39L140.528,115.926z"/>
		<path d="M183.742,78.585v-3.77H81.829L57.25,117.403v12.88c0,16.564,13.548,30.119,30.117,30.119h72.287
			c16.562,0,30.116-13.555,30.116-30.119V78.585H183.742z M144.535,122.618c-1.4,0.229-2.907,0.328-4.439,0.339l-1.297,0.252
			c-1.062,0.172-2.271,0.257-3.588,0.257l-0.948-0.021c1.379,0.738,2.687,1.561,3.811,2.478c0.562,0.455,1.136,0.964,1.69,1.502
			c1.055,0.648,2.045,1.332,2.932,2.061c6.691,5.494,6.763,8.646,5.066,11.075c-0.64,0.919-1.442,1.599-2.566,1.801
			c-0.191,1.102-0.875,1.904-1.789,2.555c-2.424,1.697-5.581,1.633-11.075-5.062c-0.864-1.062-1.686-2.281-2.446-3.557l-1.013-1.183
			c-2.419-2.955-4.251-7.299-5.356-10.412c-1.105,3.119-2.928,7.457-5.352,10.412l-1.051,1.21c-0.755,1.265-1.554,2.474-2.424,3.529
			c-5.494,6.694-8.651,6.759-11.075,5.062c-0.914-0.65-1.593-1.453-1.796-2.555c-1.116-0.202-1.923-0.882-2.562-1.801
			c-1.694-2.43-1.627-5.576,5.069-11.075c0.905-0.739,1.904-1.434,2.96-2.095c0.555-0.526,1.13-1.024,1.681-1.468
			c1.11-0.917,2.429-1.751,3.802-2.478l-0.944,0.021c-1.32,0-2.529-0.093-3.595-0.257l-1.293-0.252
			c-1.537-0.011-3.054-0.109-4.454-0.339c-8.548-1.407-10.184-4.11-9.92-7.059c0.096-1.111,0.453-2.106,1.305-2.835
			c-0.38-1.056-0.201-2.09,0.275-3.113c1.254-2.681,4.024-4.208,12.126-1.154c1.063,0.398,2.129,0.908,3.198,1.482
			c0.667,0.176,1.377,0.41,2.126,0.7c2.785,1.051,5.681,3.01,8.017,4.843c-1.169-2.725-2.312-6.029-2.598-8.995
			c-0.062-0.531-0.094-1.096-0.116-1.658c-0.34-1.342-0.597-2.688-0.729-3.968c-0.842-8.621,1.336-10.895,4.253-11.409
			c1.099-0.192,2.157-0.115,3.082,0.542c0.925-0.648,1.97-0.733,3.073-0.542c2.913,0.514,5.1,2.788,4.243,11.409
			c-0.117,1.258-0.374,2.577-0.7,3.896c-0.024,0.597-0.057,1.177-0.112,1.73c-0.299,2.966-1.434,6.271-2.604,8.995
			c2.339-1.833,5.237-3.798,8.021-4.843c0.747-0.272,1.434-0.509,2.097-0.695c1.072-0.579,2.152-1.083,3.212-1.487
			c8.101-3.054,10.861-1.521,12.12,1.154c0.472,1.023,0.659,2.058,0.28,3.113c0.854,0.729,1.214,1.724,1.308,2.835
			C154.706,118.508,153.07,121.211,144.535,122.618z"/>
	</g>
</g>
<g>
</g>
<g>
</g>
<g>
</g>
<g>
</g>
<g>
</g>
<g>
</g>
<g>
</g>
<g>
</g>
<g>
</g>
<g>
</g>
<g>
</g>
<g>
</g>
<g>
</g>
<g>
</g>
<g>
</g>
</svg>
