<?xml version="1.0" encoding="iso-8859-1"?>
<!-- Generator: Adobe Illustrator 16.0.0, SVG Export Plug-In . SVG Version: 6.00 Build 0)  -->
<!DOCTYPE svg PUBLIC "-//W3C//DTD SVG 1.1//EN" "http://www.w3.org/Graphics/SVG/1.1/DTD/svg11.dtd">
<svg version="1.1" id="Capa_1" xmlns="http://www.w3.org/2000/svg" xmlns:xlink="http://www.w3.org/1999/xlink" x="0px" y="0px"
	 width="181.916px" height="181.915px" viewBox="0 0 181.916 181.915" style="enable-background:new 0 0 181.916 181.915;"
	 xml:space="preserve">
<g>
	<g>
		<path d="M175.914,78.496L66.625,62.919h0.005L33.417,28.251L0,36.134l8.636,10.659v28.58v55.565h6.757v-8.941l133.479,22.276
			v9.391h6.765v-11.189l19.522-13.692v10.244h6.757V83.45L175.914,78.496z M11.262,50.043l16.503,20.373l-16.503,4.282V50.043z
			 M15.393,76.474l26.469,4.287v26.704l-26.469,11.584V76.474z M48.62,106.484V81.858l100.252,16.233v23.271L48.62,106.484z
			 M175.159,125.259l-19.522-2.895V98.091l19.522-10.871V125.259z"/>
	</g>
</g>
<g>
</g>
<g>
</g>
<g>
</g>
<g>
</g>
<g>
</g>
<g>
</g>
<g>
</g>
<g>
</g>
<g>
</g>
<g>
</g>
<g>
</g>
<g>
</g>
<g>
</g>
<g>
</g>
<g>
</g>
</svg>
