<?xml version="1.0" encoding="iso-8859-1"?>
<!-- Generator: Adobe Illustrator 16.0.0, SVG Export Plug-In . SVG Version: 6.00 Build 0)  -->
<!DOCTYPE svg PUBLIC "-//W3C//DTD SVG 1.1//EN" "http://www.w3.org/Graphics/SVG/1.1/DTD/svg11.dtd">
<svg version="1.1" id="Capa_1" xmlns="http://www.w3.org/2000/svg" xmlns:xlink="http://www.w3.org/1999/xlink" x="0px" y="0px"
	 width="169.741px" height="169.741px" viewBox="0 0 169.741 169.741" style="enable-background:new 0 0 169.741 169.741;"
	 xml:space="preserve">
<g>
	<g>
		<path d="M87.989,99.052v70.684c9.742-0.152,18.791-1.042,26.506-2.467l16.873-74.428C119.731,96.434,104.989,98.79,87.989,99.052z
			"/>
		<path d="M55.247,167.269c7.712,1.432,16.766,2.314,26.506,2.473V99.052c-17.004-0.262-31.743-2.618-43.379-6.205L55.247,167.269z"
			/>
		<path d="M95.928,40.228l6.096-14.416l-0.371,0.165c1.047-2.308,1.656-4.847,1.656-7.539C103.309,8.26,95.045,0,84.871,0
			S66.433,8.26,66.433,18.438c0,2.691,0.612,5.225,1.647,7.532l-0.35-0.158l6.092,14.416C36.023,42.386,6.929,55.344,6.929,71.057
			c0,2.338,0.691,4.6,1.915,6.79l21.468,76.343c0,4.609,7.063,8.744,18.212,11.6L31.447,90.448
			c-13.569-5.355-21.4-12.489-21.4-19.391c0-12.535,25.763-25.864,65.06-27.797l2.582,6.117
			c-39.79,1.452-61.406,14.689-61.406,21.68c0,3.392,5.139,8.248,14.921,12.525c7.015-6.384,28.388-11.037,53.667-11.037
			c25.282,0,46.655,4.646,53.67,11.037c9.779-4.278,14.918-9.134,14.918-12.525c0-6.991-21.616-20.228-61.402-21.68l2.581-6.117
			c39.294,1.934,65.057,15.263,65.057,27.797c0,6.896-7.83,14.036-21.396,19.391l-17.08,75.341
			c11.148-2.855,18.212-6.99,18.212-11.6L160.9,77.847c1.218-2.189,1.912-4.458,1.912-6.79
			C162.812,55.344,133.718,42.386,95.928,40.228z M84.871,27.797c-5.157,0-9.353-4.199-9.353-9.353c0-5.158,4.196-9.353,9.353-9.353
			s9.353,4.195,9.353,9.353C94.223,23.598,90.028,27.797,84.871,27.797z"/>
	</g>
</g>
<g>
</g>
<g>
</g>
<g>
</g>
<g>
</g>
<g>
</g>
<g>
</g>
<g>
</g>
<g>
</g>
<g>
</g>
<g>
</g>
<g>
</g>
<g>
</g>
<g>
</g>
<g>
</g>
<g>
</g>
</svg>
