<?xml version="1.0" encoding="iso-8859-1"?>
<!-- Generator: Adobe Illustrator 16.0.0, SVG Export Plug-In . SVG Version: 6.00 Build 0)  -->
<!DOCTYPE svg PUBLIC "-//W3C//DTD SVG 1.1//EN" "http://www.w3.org/Graphics/SVG/1.1/DTD/svg11.dtd">
<svg version="1.1" id="Capa_1" xmlns="http://www.w3.org/2000/svg" xmlns:xlink="http://www.w3.org/1999/xlink" x="0px" y="0px"
	 width="173.393px" height="173.394px" viewBox="0 0 173.393 173.394" style="enable-background:new 0 0 173.393 173.394;"
	 xml:space="preserve">
<g>
	<g>
		<path d="M138.277,70.857c1.598-4.84,2.498-9.995,2.498-15.362c0-27.117-22.065-49.174-49.177-49.174
			c-27.112,0-49.174,22.058-49.174,49.174c0,1.22,0.096,2.418,0.184,3.614C18.6,62.34,0,82.86,0,107.743
			c0,27.114,22.06,49.178,49.177,49.178c12.881,0,24.586-5.023,33.369-13.155c8.689,13.942,24.065,23.308,41.668,23.308
			c27.119,0,49.179-22.058,49.179-49.18C173.38,95.689,158.545,76.931,138.277,70.857z M138.039,120.98
			c-5.103-0.006-9.226-3.074-9.226-3.074s4.123-3.076,9.226-3.076c5.086,0,9.218,3.076,9.218,3.076S143.125,120.975,138.039,120.98z
			 M140.5,134.201c0,0-5.095-0.745-8.689-4.34c-3.6-3.605-4.351-8.695-4.351-8.695s5.094,0.751,8.694,4.346
			C139.76,129.112,140.5,134.201,140.5,134.201z M136.154,110.293c-3.605,3.607-8.694,4.351-8.694,4.351s0.751-5.089,4.355-8.699
			c3.595-3.601,8.689-4.346,8.689-4.346S139.756,106.688,136.154,110.293z M116.597,105.954c3.601,3.601,4.345,8.689,4.345,8.689
			s-5.087-0.743-8.689-4.351c-3.172-3.167-4.124-7.485-4.312-8.476l0.374-0.137C109.562,101.928,113.577,102.934,116.597,105.954z
			 M112.247,125.505c3.608-3.6,8.689-4.339,8.689-4.339s-0.743,5.09-4.339,8.689c-3.604,3.601-8.689,4.346-8.689,4.346
			S108.641,129.112,112.247,125.505z M101.157,117.894c0,0,4.119-3.063,9.219-3.063c5.089,0,9.221,3.063,9.221,3.063
			s-4.127,3.076-9.221,3.076C105.276,120.975,101.157,117.894,101.157,117.894z M124.2,113.293c0,0-3.072-4.127-3.072-9.221
			c0-5.1,3.072-9.226,3.072-9.226s3.078,4.126,3.078,9.226C127.278,109.166,124.2,113.293,124.2,113.293z M127.278,131.732
			c0,5.095-3.078,9.221-3.078,9.221s-3.072-4.121-3.072-9.221c0-5.094,3.072-9.221,3.072-9.221S127.278,126.639,127.278,131.732z
			 M91.593,12.466c23.726,0,43.028,19.305,43.028,43.034c0,23.724-19.303,43.024-43.028,43.024
			c-23.724,0-43.029-19.301-43.029-43.024C48.564,31.771,67.869,12.466,91.593,12.466z M62.995,110.824
			c-5.101,0-9.224-3.081-9.224-3.081s4.123-3.069,9.224-3.069c5.093-0.005,9.222,3.069,9.222,3.069S68.088,110.824,62.995,110.824z
			 M65.464,124.051c0,0-5.092-0.745-8.689-4.351c-3.603-3.601-4.347-8.695-4.347-8.695s5.091,0.749,8.689,4.353
			C64.72,118.956,65.464,124.051,65.464,124.051z M61.118,100.146c-3.61,3.599-8.699,4.343-8.699,4.343s0.747-5.09,4.356-8.695
			c1.065-1.067,2.257-1.877,3.411-2.496c1.2,1.003,2.444,1.933,3.733,2.819C63.263,97.451,62.378,98.88,61.118,100.146z
			 M49.167,103.143c0,0-3.072-4.132-3.072-9.227c0-5.094,3.072-9.223,3.072-9.223s3.075,4.124,3.075,9.223
			C52.241,99.011,49.167,103.143,49.167,103.143z M52.241,121.582c0,5.089-3.075,9.221-3.075,9.221s-3.072-4.126-3.072-9.221
			c0-5.1,3.072-9.226,3.072-9.226S52.241,116.482,52.241,121.582z M37.207,115.357c3.604-3.604,8.692-4.353,8.692-4.353
			s-0.746,5.095-4.344,8.695c-3.602,3.605-8.69,4.347-8.69,4.347S33.604,118.956,37.207,115.357z M26.112,107.743
			c0,0,4.123-3.074,9.224-3.069c5.088-0.005,9.217,3.069,9.217,3.069s-4.123,3.07-9.217,3.07
			C30.235,110.824,26.112,107.743,26.112,107.743z M37.213,100.146c-3.604-3.608-4.349-8.692-4.349-8.692s5.096,0.745,8.69,4.34
			c3.603,3.605,4.35,8.689,4.35,8.689S40.815,103.744,37.213,100.146z M49.167,150.781c-23.726,0-43.029-19.306-43.029-43.032
			c0-21.756,16.254-39.71,37.244-42.55c0.208,1.012,0.488,2,0.751,2.993C24.449,70.668,9.207,87.394,9.207,107.749
			c0,22.063,17.894,39.957,39.96,39.957s39.957-17.894,39.957-39.957c0-1.095-0.182-2.14-0.274-3.206
			c0.911,0.043,1.819,0.131,2.744,0.131l0.353-0.017c0.091,1.035,0.246,2.043,0.246,3.092
			C92.192,131.476,72.895,150.781,49.167,150.781z M124.204,160.932c-15.968,0-29.814-8.821-37.233-21.784
			c0.7-0.842,1.345-1.734,1.989-2.626c6.702,12.661,19.922,21.34,35.244,21.34c22.062,0,39.956-17.888,39.956-39.955
			c0-18.485-12.618-33.87-29.675-38.431c0.52-0.919,0.981-1.866,1.429-2.813c18.024,5.133,31.321,21.598,31.321,41.244
			C167.235,141.626,147.929,160.932,124.204,160.932z"/>
		<path d="M91.593,95.448c22.065,0,39.955-17.882,39.955-39.948c0-22.066-17.89-39.959-39.955-39.959
			c-22.065,0-39.957,17.888-39.957,39.959C51.636,77.566,69.528,95.448,91.593,95.448z M83.984,67.445
			c-3.603,3.609-8.691,4.342-8.691,4.342s0.747-5.086,4.345-8.685c3.6-3.603,8.689-4.347,8.689-4.347S87.582,63.848,83.984,67.445z
			 M99.197,67.451c-3.601-3.603-4.349-8.695-4.349-8.695s5.092,0.744,8.695,4.347c3.6,3.604,4.343,8.689,4.343,8.689
			S102.796,71.054,99.197,67.451z M105.425,58.569c-5.1,0-9.228-3.075-9.228-3.075s4.128-3.073,9.228-3.073
			c5.089,0,9.226,3.078,9.226,3.078S110.514,58.569,105.425,58.569z M99.197,43.541c3.6-3.601,8.689-4.342,8.689-4.342
			s-0.748,5.089-4.343,8.692c-3.614,3.6-8.7,4.347-8.7,4.347S95.586,47.149,99.197,43.541z M91.587,32.441
			c0,0,3.077,4.131,3.077,9.223c0,5.094-3.077,9.223-3.077,9.223s-3.069-4.128-3.069-9.223
			C88.518,36.572,91.587,32.441,91.587,32.441z M91.587,60.105c0,0,3.077,4.125,3.077,9.223c0,5.094-3.077,9.223-3.077,9.223
			s-3.069-4.129-3.069-9.223C88.518,64.236,91.587,60.105,91.587,60.105z M83.989,43.541c3.604,3.603,4.342,8.692,4.342,8.692
			s-5.085-0.747-8.689-4.342c-3.603-3.603-4.345-8.692-4.345-8.692S80.382,39.946,83.989,43.541z M77.765,52.422
			c5.087,0,9.209,3.073,9.209,3.073s-4.123,3.07-9.209,3.07c-5.099,0-9.222-3.07-9.222-3.07S72.667,52.422,77.765,52.422z"/>
	</g>
</g>
<g>
</g>
<g>
</g>
<g>
</g>
<g>
</g>
<g>
</g>
<g>
</g>
<g>
</g>
<g>
</g>
<g>
</g>
<g>
</g>
<g>
</g>
<g>
</g>
<g>
</g>
<g>
</g>
<g>
</g>
</svg>
