<?xml version="1.0" encoding="iso-8859-1"?>
<!-- Generator: Adobe Illustrator 16.0.0, SVG Export Plug-In . SVG Version: 6.00 Build 0)  -->
<!DOCTYPE svg PUBLIC "-//W3C//DTD SVG 1.1//EN" "http://www.w3.org/Graphics/SVG/1.1/DTD/svg11.dtd">
<svg version="1.1" id="Capa_1" xmlns="http://www.w3.org/2000/svg" xmlns:xlink="http://www.w3.org/1999/xlink" x="0px" y="0px"
	 width="196.428px" height="196.429px" viewBox="0 0 196.428 196.429" style="enable-background:new 0 0 196.428 196.429;"
	 xml:space="preserve">
<g>
	<g>
		<path d="M196.192,65.878c-1.47-8.544-8.306-6.711-8.306-6.711s-31.61,8.46-36.423,9.749c-4.797,1.289-9.909,29.771-9.909,29.771
			l-53.713,35.267l0.605,2.266c0,0,44.261-11.853,52.862-14.156c5.822-1.548,10.561-39.604,13.614-40.241
			c3.054-0.646,36.708-7.667,36.708-7.667S197.682,74.428,196.192,65.878z"/>
		<path d="M85.814,132.901c-0.39-1.126-1.525-1.833-2.706-1.537c-0.854,0.207-1.32,0.908-1.519,1.713l-0.707-0.302l-0.796,0.34
			l-0.364-0.858l0.565,0.234c1.282,0,2.326-1.045,2.326-2.325c0-1.275-1.043-2.315-2.326-2.315c-1.284,0-2.318,1.04-2.318,2.315
			c0,0.536,0.262,0.968,0.563,1.362l-0.568-0.233c-1.067,0-1.828,0.799-2.097,1.771l-0.701-0.295l-0.123,0.061l0.21-1.067
			c0-1.898-1.534-3.437-3.433-3.437l-0.187,0.04c-0.247-0.883-0.818-1.61-1.605-2.043c1.052-0.585,1.792-1.678,1.792-2.961
			c0-1.893-1.536-3.437-3.437-3.437c-1.008,0-1.893,0.443-2.521,1.139c-1.133-0.799-2.528-1.27-4.025-1.11l-1.198,0.383
			c-0.616-1.023-1.562-1.784-2.651-2.281l1.167-0.919c0.304,1.575,1.635,2.795,3.312,2.795c1.899,0,3.435-1.532,3.435-3.425
			c0-1.904-1.536-3.441-3.435-3.441c-1.063,0-1.983,0.514-2.612,1.27c-0.308-1.582-1.636-2.797-3.311-2.797
			c-1.205,0-2.22,0.663-2.834,1.598l-0.176-0.093l0.046-0.433c-0.112-1.028-0.532-1.888-1.077-2.687
			c0.353-0.536,0.607-1.133,0.607-1.827c0-1.899-1.538-3.437-3.436-3.437c-1.52,0-2.762,1.001-3.215,2.358l-1.352-0.345l-0.521-0.93
			c0.359-0.542,0.617-1.166,0.617-1.856c0-1.904-1.536-3.441-3.437-3.441c-1.724,0-3.086,1.286-3.339,2.94l-1.115,0.349
			c-0.559-0.39-1.198-0.666-1.938-0.666c-1.9,0-3.437,1.541-3.437,3.437c0,1.354,0.803,2.498,1.946,3.062l-0.006,0.104
			c0.079,0.729,0.32,1.391,0.633,2.003l-0.689-0.065l0.024-0.083c0-1.897-1.543-3.437-3.441-3.437c-1.289,0-2.375,0.751-2.958,1.791
			c-1.665,0.239-2.96,1.613-2.96,3.338c0,0.814,0.319,1.52,0.79,2.111c-1.825,0.569-3.256,1.877-3.86,3.617l-1.316-0.263
			c-1.725,0-3.083,1.286-3.334,2.935c-0.419-0.313-0.901-0.57-1.473-0.57c-1.368,0-2.479,1.033-2.479,2.313
			c0,1.275,1.111,2.32,2.479,2.32c1.031,0,1.748-0.673,2.123-1.521l1.092,0.952l-0.637,1.222l-0.768,0.628l-1.172-0.234
			c-1.898,0-3.434,1.545-3.434,3.441l0.077,0.4l-0.093,0.016c-0.03-1.248-1.116-2.266-2.458-2.266c-1.364,0-2.475,1.04-2.475,2.315
			c0,1.148,0.942,1.997,2.108,2.188l-0.231,1.127l0.021,0.088c-0.434-0.705-1.085-1.27-2.014-1.27c-1.366,0-2.477,1.045-2.477,2.325
			s1.111,2.32,2.477,2.32c1.24,0,2.159-0.909,2.337-1.997c0.549,1.144,1.72,1.975,3.093,1.975c1.529,0,2.785-1.018,3.226-2.401
			c1.218,1.608,3.138,2.615,5.286,2.392l0.919-0.285l0.778,0.323c1.048,0,1.783-0.767,2.073-1.719
			c0.604-0.333,1.106-0.821,1.417-1.438c0.145,1.751,1.583,3.151,3.385,3.151l1.111-0.224c0.638,0.158,1.299,0.262,1.994,0.186
			l1.278-0.399l1.048,0.438c0.873,0,1.497-0.563,1.893-1.27h0.017l1.239-0.252c0.617,0.887,1.602,1.517,2.771,1.517
			c1.615,0,2.904-1.134,3.273-2.627l0.999,0.093c0.582-0.061,1.085-0.307,1.546-0.607c0.159,1.751,1.581,3.146,3.374,3.146
			c1.518,0,2.769-0.995,3.223-2.363c0.626,0.409,1.311,0.684,2.06,0.837c0.623,0.887,1.608,1.521,2.79,1.521
			c1.576,0,2.848-1.084,3.257-2.523c0.628,0.755,1.534,1.259,2.593,1.259l1.235-0.252c0.62,0.887,1.608,1.517,2.778,1.517
			c1.487,0,2.718-0.952,3.199-2.255l0.208,0.038l1.076-0.214l-0.044,0.115c0,1.28,1.043,2.32,2.321,2.32
			c1.064,0,1.825-0.793,2.096-1.768l0.694,0.284l0.799-0.333c0.254,1.006,1.027,1.816,2.109,1.816c1.053,0,1.803-0.788,2.083-1.745
			l0.517,0.07c0.308,0.925,1.027,1.675,2.049,1.675c1.284,0,2.326-1.045,2.326-2.32C87.848,133.93,86.939,133.077,85.814,132.901z"
			/>
		<circle cx="75.649" cy="126.8" r="2.326"/>
		<ellipse cx="4.947" cy="130.171" rx="2.481" ry="2.32"/>
		<path d="M10.377,123.534c1.371,0,2.481,1.033,2.481,2.321c0,1.279-1.111,2.317-2.481,2.317c-1.373,0-2.484-1.038-2.484-2.317
			C7.893,124.567,9.004,123.534,10.377,123.534z"/>
		<path d="M2.47,132.775c1.366,0,2.471,1.046,2.471,2.326c0,1.286-1.104,2.325-2.471,2.325c-1.365,0-2.47-1.039-2.47-2.325
			C0,133.821,1.104,132.775,2.47,132.775z"/>
	</g>
</g>
<g>
</g>
<g>
</g>
<g>
</g>
<g>
</g>
<g>
</g>
<g>
</g>
<g>
</g>
<g>
</g>
<g>
</g>
<g>
</g>
<g>
</g>
<g>
</g>
<g>
</g>
<g>
</g>
<g>
</g>
</svg>
