<?xml version="1.0" encoding="iso-8859-1"?>
<!-- Generator: Adobe Illustrator 16.0.0, SVG Export Plug-In . SVG Version: 6.00 Build 0)  -->
<!DOCTYPE svg PUBLIC "-//W3C//DTD SVG 1.1//EN" "http://www.w3.org/Graphics/SVG/1.1/DTD/svg11.dtd">
<svg version="1.1" id="Capa_1" xmlns="http://www.w3.org/2000/svg" xmlns:xlink="http://www.w3.org/1999/xlink" x="0px" y="0px"
	 width="164.855px" height="164.855px" viewBox="0 0 164.855 164.855" style="enable-background:new 0 0 164.855 164.855;"
	 xml:space="preserve">
<g>
	<g>
		<path d="M164.722,67.333c-2.731-10.217-48.061-3.904-56.892-8.261C99.006,54.713,95.022-0.583,82.403,0.313
			c-12.631,0.896-12.324,50.194-25.44,58.759c-13.116,8.565-54.813-3.753-56.888,8.261c-2.078,12.022,39.954,21.039,41.177,32.914
			c1.208,11.868-18.359,58.457-9.723,63.866c8.626,5.414,37.95-41.477,50.88-41.175c12.921,0.302,40.867,46.589,50.868,41.175
			c10.007-5.409-13.606-50.189-9.712-63.866C127.443,86.569,167.447,77.555,164.722,67.333z M11.497,70.687
			c0.337-1.496,52.251,5.272,54.896,6.682c2.646,1.41,3.086,3.963-0.872,4.995C61.564,83.386,11.175,72.17,11.497,70.687z
			 M41.589,145.446c-1.259-0.862,24.255-46.583,26.548-48.516c2.293-1.933,4.829-1.4,4.314,2.654
			C71.932,103.645,42.848,146.297,41.589,145.446z M85.266,69.017c-0.939,2.843-3.39,3.721-5.08,0
			c-1.688-3.73,0.703-55.298,2.229-55.23C83.945,13.858,86.197,66.165,85.266,69.017z M90.903,99.59
			c-0.518-4.055,2.021-4.587,4.309-2.654c2.299,1.933,27.81,47.653,26.551,48.516C120.498,146.297,91.417,103.645,90.903,99.59z
			 M97.824,82.364c-3.954-1.032-3.511-3.585-0.869-4.995c2.643-1.41,54.557-8.184,54.899-6.682
			C152.179,72.17,101.784,83.386,97.824,82.364z"/>
	</g>
</g>
<g>
</g>
<g>
</g>
<g>
</g>
<g>
</g>
<g>
</g>
<g>
</g>
<g>
</g>
<g>
</g>
<g>
</g>
<g>
</g>
<g>
</g>
<g>
</g>
<g>
</g>
<g>
</g>
<g>
</g>
</svg>
