<?xml version="1.0" encoding="iso-8859-1"?>
<!-- Generator: Adobe Illustrator 16.0.0, SVG Export Plug-In . SVG Version: 6.00 Build 0)  -->
<!DOCTYPE svg PUBLIC "-//W3C//DTD SVG 1.1//EN" "http://www.w3.org/Graphics/SVG/1.1/DTD/svg11.dtd">
<svg version="1.1" id="Capa_1" xmlns="http://www.w3.org/2000/svg" xmlns:xlink="http://www.w3.org/1999/xlink" x="0px" y="0px"
	 width="179.308px" height="179.308px" viewBox="0 0 179.308 179.308" style="enable-background:new 0 0 179.308 179.308;"
	 xml:space="preserve">
<g>
	<g>
		<path d="M176.504,55.017h-8.71l0.22-1.097c0-16.424-13.363-29.787-29.792-29.787c-5.087,0-9.812,1.401-14.009,3.664
			c-4.188-2.263-8.919-3.664-14.008-3.664c-16.427,0-29.781,13.363-29.781,29.787v1.097H2.801C1.256,55.017,0,56.272,0,57.818
			v94.556c0,1.543,1.256,2.801,2.801,2.801h173.703c1.543,0,2.804-1.258,2.804-2.801V57.818
			C179.308,56.272,178.047,55.017,176.504,55.017z M138.222,32.543c11.787,0,21.384,9.592,21.384,21.381l0.22,1.097h-20.05
			l0.22-1.097c0-7.868-3.13-14.977-8.121-20.312C133.901,32.979,136.002,32.543,138.222,32.543z M110.206,32.543
			c2.222,0,4.334,0.435,6.354,1.07c-1.145,1.22-2.218,2.498-3.147,3.893H96.679C100.373,34.453,105.045,32.543,110.206,32.543z
			 M91.866,43.11h18.68c-0.989,2.517-1.555,5.218-1.815,8.008H89.114C89.497,48.221,90.441,45.525,91.866,43.11z M116.849,53.925
			c0-6.411,2.895-12.103,7.364-16.02c4.482,3.921,7.377,9.615,7.377,16.02l0.219,1.097h-14.972v-1.097H116.849z M88.829,73.537
			h19.615v11.207H88.829V73.537z M88.829,67.934v-7.308h19.615v7.308H88.829z M80.424,60.62v42.321
			c2.78-0.461,5.57-0.931,8.404-1.401V90.344h19.615v8.032c2.802-0.427,5.614-0.87,8.405-1.226V60.625h56.854v42.993
			c-48.657-12.476-131.839,22.797-168.1,2.441V60.625h74.821V60.62z"/>
	</g>
</g>
<g>
</g>
<g>
</g>
<g>
</g>
<g>
</g>
<g>
</g>
<g>
</g>
<g>
</g>
<g>
</g>
<g>
</g>
<g>
</g>
<g>
</g>
<g>
</g>
<g>
</g>
<g>
</g>
<g>
</g>
</svg>
