<?xml version="1.0" encoding="iso-8859-1"?>
<!-- Generator: Adobe Illustrator 16.0.0, SVG Export Plug-In . SVG Version: 6.00 Build 0)  -->
<!DOCTYPE svg PUBLIC "-//W3C//DTD SVG 1.1//EN" "http://www.w3.org/Graphics/SVG/1.1/DTD/svg11.dtd">
<svg version="1.1" id="Capa_1" xmlns="http://www.w3.org/2000/svg" xmlns:xlink="http://www.w3.org/1999/xlink" x="0px" y="0px"
	 width="161.285px" height="161.285px" viewBox="0 0 161.285 161.285" style="enable-background:new 0 0 161.285 161.285;"
	 xml:space="preserve">
<g>
	<g>
		<path d="M129.577,80.923c3.13,0,5.669,2.534,5.669,5.664c0,3.131-2.539,5.669-5.669,5.669c-3.128,0-5.663-2.538-5.663-5.669
			C123.914,83.457,126.449,80.923,129.577,80.923z"/>
		<path d="M158.559,85.602c-1.774-2.008-4.286-3.601-7.508-4.771c6.275-7.435,4.862-13.832,1.486-17.219
			c-1.701-1.697-3.918-2.431-6.281-2.573c0.011-0.613,0.093-1.209,0.093-1.828C146.349,18.8,0,18.8,0,59.211
			c0,40.405,32.764,73.171,73.175,73.171c20.32,0,38.689-8.289,51.948-21.657c2.462,4.749,6.075,7.578,10.325,7.578
			c0.849,0,1.69-0.107,2.539-0.334c4.613-1.242,9.025-6.073,7.307-15.661c1.399,0.247,2.736,0.373,3.993,0.373
			c6.019,0,10.369-2.878,11.654-7.683C161.828,91.693,160.986,88.354,158.559,85.602z M11.197,55.851
			c0-9.122,27.758-16.531,61.983-16.531s61.983,7.398,61.983,16.531c0,1.532-0.847,3.021-2.325,4.438
			c-3.004-4.285-7.243-6.243-11.67-5.067c-4.188,1.127-8.16,5.248-7.581,13.144c-10.855,2.502-24.952,4.012-40.407,4.012
			C38.955,72.371,11.197,64.973,11.197,55.851z M156.948,93.931c-1.008,3.786-5.515,5.86-13.068,3.83
			c-2.308-0.618-4.524-1.888-6.5-3.359c1.477,1.98,2.747,4.197,3.371,6.495c2.026,7.562-0.056,12.065-3.829,13.089
			c-3.786,1.007-7.838-1.865-9.861-9.428c-0.625-2.298-0.625-4.854-0.34-7.3c-0.985,2.271-2.255,4.48-3.945,6.161
			c-5.538,5.532-10.479,5.992-13.247,3.212c-2.77-2.764-2.311-7.704,3.222-13.242c1.686-1.675,3.891-2.96,6.168-3.928
			c-2.452,0.284-5.014,0.272-7.306-0.346c-7.565-2.024-10.424-6.073-9.41-9.855c1.01-3.787,5.52-5.86,13.078-3.841
			c2.302,0.624,4.521,1.898,6.495,3.376c-1.466-1.981-2.749-4.197-3.361-6.495c-2.025-7.562,0.055-12.071,3.83-13.084
			c3.786-1.006,7.838,1.861,9.866,9.412c0.619,2.31,0.619,4.859,0.325,7.311c0.984-2.271,2.264-4.481,3.945-6.156
			c5.529-5.538,10.477-5.991,13.246-3.233c2.769,2.774,2.319,7.715-3.222,13.253c-1.686,1.681-3.893,2.96-6.158,3.94
			c2.451-0.279,5.009-0.274,7.302,0.327C155.099,86.09,157.966,90.144,156.948,93.931z"/>
	</g>
</g>
<g>
</g>
<g>
</g>
<g>
</g>
<g>
</g>
<g>
</g>
<g>
</g>
<g>
</g>
<g>
</g>
<g>
</g>
<g>
</g>
<g>
</g>
<g>
</g>
<g>
</g>
<g>
</g>
<g>
</g>
</svg>
