<?xml version="1.0" encoding="iso-8859-1"?>
<!-- Generator: Adobe Illustrator 16.0.0, SVG Export Plug-In . SVG Version: 6.00 Build 0)  -->
<!DOCTYPE svg PUBLIC "-//W3C//DTD SVG 1.1//EN" "http://www.w3.org/Graphics/SVG/1.1/DTD/svg11.dtd">
<svg version="1.1" id="Capa_1" xmlns="http://www.w3.org/2000/svg" xmlns:xlink="http://www.w3.org/1999/xlink" x="0px" y="0px"
	 width="175.032px" height="175.032px" viewBox="0 0 175.032 175.032" style="enable-background:new 0 0 175.032 175.032;"
	 xml:space="preserve">
<g>
	<g>
		<path d="M50.875,105.805H37.263c-0.755,0-1.37,0.615-1.37,1.364c0,0.767,0.615,1.382,1.37,1.382h13.219
			c-0.417,3.361-0.712,6.875-0.712,10.693c0,0.663,0.545,1.217,1.212,1.217c0.667,0,1.208-0.554,1.208-1.217
			c0-3.83,0.292-7.344,0.719-10.693h11.782c0.761,0,1.374-0.615,1.374-1.382c0-0.749-0.618-1.364-1.374-1.364H53.308
			c0.935-5.59,2.423-10.51,4.563-14.449h-2.64C53.213,95.417,51.785,100.301,50.875,105.805z"/>
		<path d="M133.718,0H79.688L50.543,29.14v52.513H12.172v93.38h77.604v-26.286h73.085V29.14L133.718,0z M107.82,25.142
			c-3.909,8.936-3.689,22.003-3.507,33.545c0.219,12.769,0.384,22.859-4.609,25.845c-2.405,1.435-5.663,0.986-9.923-1.397
			l-3.422-1.482c-6.783-2.85-13.518-2.938-19.068,0l-0.733,0.292c-3.504,2.059-6.412,5.24-8.674,9.411h22.204v73.977h-58.2V91.35
			h33.36c2.012-4.031,4.558-7.298,7.611-9.703c0.804-0.643,1.602-1.285,2.475-1.797c7.322-4.29,16.654-3.866,25.596,1.148
			c3.403,1.905,5.942,2.405,7.532,1.446c3.793-2.262,3.623-12.69,3.44-23.726c-0.195-11.771-0.414-25.127,3.702-34.544
			c0.268-0.621,0.974-0.929,1.595-0.627C107.803,23.814,108.082,24.536,107.82,25.142z"/>
	</g>
</g>
<g>
</g>
<g>
</g>
<g>
</g>
<g>
</g>
<g>
</g>
<g>
</g>
<g>
</g>
<g>
</g>
<g>
</g>
<g>
</g>
<g>
</g>
<g>
</g>
<g>
</g>
<g>
</g>
<g>
</g>
</svg>
