<?xml version="1.0" encoding="iso-8859-1"?>
<!-- Generator: Adobe Illustrator 16.0.0, SVG Export Plug-In . SVG Version: 6.00 Build 0)  -->
<!DOCTYPE svg PUBLIC "-//W3C//DTD SVG 1.1//EN" "http://www.w3.org/Graphics/SVG/1.1/DTD/svg11.dtd">
<svg version="1.1" id="Capa_1" xmlns="http://www.w3.org/2000/svg" xmlns:xlink="http://www.w3.org/1999/xlink" x="0px" y="0px"
	 width="150.803px" height="150.803px" viewBox="0 0 150.803 150.803" style="enable-background:new 0 0 150.803 150.803;"
	 xml:space="preserve">
<g>
	<g>
		<path d="M128.987,62.4l-18.914,8.332l-0.038,0.385c-0.892-2.054-1.882-4.027-2.998-5.951l3.119-36.392l-0.559-0.834
			c-0.767-1.144-19.19-27.934-51.909-27.934S6.546,26.802,5.78,27.94L5.22,28.774l3.114,36.392
			C3.467,73.571,0.53,83.229,0.53,93.643c0,31.568,25.584,57.16,57.159,57.16c22.384,0,41.692-12.887,51.077-31.611l37.979-56.786
			h-17.757V62.4z M57.689,5.716c26.628,0,43.373,20.351,46.598,24.632l-2.503,29.193H13.592l-2.5-29.193
			C14.303,26.06,30.972,5.716,57.689,5.716z"/>
		<path d="M91.677,52.575c-8.224-6.818-18.339-10.834-29.001-11.845l0.091-0.437c0-2.808-2.276-5.08-5.078-5.08
			c-2.808,0-5.082,2.272-5.082,5.08l0.091,0.437c-10.665,1.016-20.778,5.026-29.005,11.845H91.677z"/>
		<path d="M137.527,54.936C122.463,27.467,146.744,17.114,135.804,0C139.146,16.771,111.674,33.94,137.527,54.936z"/>
		<path d="M150.273,25.658c-8.05,9.105-3.1,18.2-7.064,29.278C154.919,46.172,147.92,35.1,150.273,25.658z"/>
	</g>
</g>
<g>
</g>
<g>
</g>
<g>
</g>
<g>
</g>
<g>
</g>
<g>
</g>
<g>
</g>
<g>
</g>
<g>
</g>
<g>
</g>
<g>
</g>
<g>
</g>
<g>
</g>
<g>
</g>
<g>
</g>
</svg>
