<?xml version="1.0" encoding="iso-8859-1"?>
<!-- Generator: Adobe Illustrator 16.0.0, SVG Export Plug-In . SVG Version: 6.00 Build 0)  -->
<!DOCTYPE svg PUBLIC "-//W3C//DTD SVG 1.1//EN" "http://www.w3.org/Graphics/SVG/1.1/DTD/svg11.dtd">
<svg version="1.1" id="Capa_1" xmlns="http://www.w3.org/2000/svg" xmlns:xlink="http://www.w3.org/1999/xlink" x="0px" y="0px"
	 width="145.719px" height="145.719px" viewBox="0 0 145.719 145.719" style="enable-background:new 0 0 145.719 145.719;"
	 xml:space="preserve">
<g>
	<g>
		<path d="M144.603,85.516l-0.015-0.403c0.677-3.963,1.104-7.998,1.111-12.135l0.02-0.117l-0.02-0.108
			c-0.008-4.139-0.435-8.18-1.107-12.137l0.011-0.402l-0.112-0.304c-0.714-3.967-1.759-7.806-3.095-11.521l-0.065-0.441
			l-0.244-0.394c-1.386-3.712-3.033-7.3-4.976-10.7l-0.142-0.421l-0.362-0.408c-2.023-3.441-4.278-6.729-6.817-9.778l-0.113-0.203
			l-0.275-0.225c-2.61-3.064-5.454-5.918-8.521-8.517l-0.186-0.235l-0.18-0.101c-3.071-2.567-6.376-4.835-9.846-6.881l-0.365-0.323
			l-0.368-0.126c-3.441-1.97-7.069-3.642-10.828-5.037l-0.323-0.195l-0.367-0.057c-3.759-1.349-7.644-2.421-11.649-3.139
			l-0.252-0.098l-0.322,0.011C81.172,0.438,77.074,0,72.866,0c-4.186,0-8.271,0.433-12.26,1.117l-0.38-0.006l-0.262,0.104
			c-4.004,0.717-7.875,1.778-11.624,3.127l-0.38,0.063l-0.341,0.208C43.875,6,40.267,7.661,36.841,9.62l-0.403,0.137l-0.395,0.353
			c-3.443,2.021-6.737,4.279-9.786,6.824l-0.207,0.117l-0.219,0.273c-3.054,2.596-5.895,5.437-8.496,8.495l-0.269,0.213
			l-0.117,0.208c-2.556,3.059-4.813,6.369-6.854,9.822l-0.324,0.359l-0.122,0.374c-1.968,3.423-3.628,7.04-5.021,10.783
			l-0.218,0.353l-0.062,0.402c-1.345,3.743-2.402,7.609-3.123,11.612L1.12,60.203l0.007,0.353
			c-0.679,3.985-1.111,8.052-1.111,12.219L0,72.849l0.017,0.08c0.006,4.172,0.439,8.254,1.122,12.244l-0.011,0.339l0.105,0.29
			c0.724,3.995,1.783,7.853,3.126,11.596l0.063,0.378l0.151,0.196c1.401,3.797,3.08,7.442,5.059,10.911l0.136,0.394l0.273,0.274
			c2.044,3.485,4.321,6.817,6.892,9.904l0.13,0.229l0.278,0.219c2.586,3.031,5.404,5.855,8.441,8.438l0.262,0.328l0.268,0.153
			c3.021,2.507,6.271,4.733,9.672,6.731l0.448,0.394l0.359,0.099c3.406,1.959,6.992,3.611,10.718,5.001l0.449,0.273l0.572,0.104
			c3.658,1.297,7.435,2.337,11.33,3.043l0.364,0.136l0.492,0.046l0.168-0.032c3.833,0.639,7.739,1.055,11.746,1.06l0.229,0.043
			l0.214-0.043c4.037-0.009,7.972-0.425,11.829-1.073l0.111,0.022l0.485-0.045l0.28-0.108c3.96-0.711,7.779-1.756,11.491-3.086
			l0.504-0.088l0.383-0.235c3.741-1.396,7.354-3.059,10.768-5.018l0.36-0.104l0.451-0.388c3.401-2.008,6.654-4.235,9.684-6.751
			l0.253-0.145l0.252-0.317c3.041-2.582,5.864-5.406,8.452-8.448l0.285-0.219l0.139-0.241c2.559-3.074,4.813-6.392,6.859-9.849
			l0.308-0.308l0.146-0.448c1.965-3.437,3.628-7.069,5.019-10.846l0.177-0.219l0.065-0.432c1.33-3.705,2.386-7.535,3.106-11.498
			L144.603,85.516z M133.888,86.447l4.613,0.826c-0.432,1.996-0.949,3.983-1.56,5.915l-4.409-1.614
			c-1.445-0.521-3.062,0.219-3.6,1.668c-0.532,1.456,0.211,3.065,1.673,3.601l4.401,1.609c-0.784,1.899-1.666,3.745-2.61,5.548
			l-11.662-6.738c-1.336-0.779-3.049-0.313-3.83,1.026c-0.778,1.341-0.317,3.054,1.028,3.83l11.635,6.714
			c-1.096,1.724-2.272,3.389-3.515,4.996l-3.535-2.966c-1.182-0.984-2.938-0.843-3.945,0.34c-0.999,1.182-0.841,2.949,0.345,3.951
			l3.524,2.971c-1.38,1.504-2.813,2.938-4.323,4.317l-2.944-3.524c-0.995-1.204-2.769-1.346-3.938-0.35
			c-1.194,0.995-1.348,2.758-0.357,3.945l2.96,3.545c-1.608,1.245-3.283,2.426-5.007,3.52l-6.714-11.64
			c-0.771-1.341-2.484-1.8-3.824-1.022c-1.341,0.771-1.801,2.483-1.022,3.824L104,132.4c-1.806,0.948-3.644,1.827-5.537,2.61
			l-1.598-4.394c-0.523-1.467-2.134-2.222-3.59-1.686c-1.456,0.524-2.21,2.134-1.673,3.591l1.597,4.419
			c-1.938,0.614-3.918,1.128-5.921,1.566l-0.811-4.607c-0.268-1.527-1.803-2.583-3.237-2.27c-1.526,0.267-2.552,1.718-2.277,3.231
			l0.804,4.58c-2.008,0.268-4.039,0.434-6.096,0.52l0.006-13.428c0-1.543-1.257-2.802-2.802-2.802s-2.801,1.259-2.801,2.802
			l-0.007,13.407c-2.045-0.088-4.074-0.241-6.068-0.516l0.808-4.553c0.269-1.524-0.753-2.976-2.271-3.242
			c-1.482-0.303-2.979,0.748-3.243,2.27l-0.812,4.59c-2.005-0.43-3.989-0.946-5.922-1.56l1.597-4.398
			c0.532-1.456-0.217-3.064-1.676-3.596c-1.461-0.525-3.065,0.22-3.59,1.681l-1.597,4.382c-1.9-0.781-3.743-1.663-5.554-2.61
			l6.747-11.677c0.78-1.336,0.32-3.054-1.027-3.83c-1.331-0.776-3.042-0.317-3.825,1.028l-6.729,11.649
			c-1.721-1.094-3.385-2.271-4.994-3.507l2.958-3.529c1-1.183,0.843-2.949-0.348-3.945c-1.181-0.996-2.946-0.843-3.942,0.35
			l-2.954,3.514c-1.513-1.368-2.948-2.813-4.326-4.317l3.527-2.961c1.186-0.995,1.337-2.758,0.346-3.939
			c-0.999-1.197-2.758-1.356-3.945-0.351l-3.538,2.966c-1.247-1.618-2.423-3.283-3.53-5.017l11.661-6.724
			c1.34-0.773,1.797-2.487,1.026-3.827c-0.774-1.341-2.487-1.804-3.828-1.023l-11.688,6.742c-0.946-1.807-1.821-3.639-2.604-5.538
			l4.408-1.598c1.458-0.525,2.208-2.134,1.676-3.59c-0.527-1.456-2.136-2.217-3.592-1.68L8.78,93.194
			c-0.615-1.938-1.127-3.913-1.567-5.921l4.62-0.815c1.52-0.274,2.54-1.724,2.272-3.251c-0.267-1.521-1.749-2.571-3.245-2.265
			l-4.583,0.809c-0.271-2.013-0.433-4.043-0.523-6.106l13.454,0.006c1.548,0,2.802-1.256,2.802-2.802
			c0-1.545-1.253-2.801-2.802-2.801L5.754,70.042c0.084-2.052,0.247-4.084,0.517-6.09l4.583,0.818l0.492,0.044
			c1.328,0,2.512-0.953,2.752-2.315c0.275-1.518-0.746-2.974-2.27-3.242l-4.622-0.818c0.441-2.008,0.952-3.992,1.563-5.929
			l4.427,1.62l0.962,0.167c1.144,0,2.22-0.706,2.636-1.839c0.53-1.455-0.22-3.064-1.672-3.598l-4.419-1.611
			c0.782-1.902,1.665-3.743,2.615-5.549l11.678,6.753l1.4,0.375c0.963,0,1.905-0.504,2.428-1.401
			c0.777-1.338,0.318-3.053-1.027-3.825l-11.654-6.736c1.099-1.726,2.271-3.383,3.513-4.999l3.542,2.974
			c0.525,0.443,1.167,0.656,1.804,0.656c0.801,0,1.586-0.342,2.144-0.996c0.999-1.19,0.842-2.955-0.341-3.951l-3.535-2.977
			c1.373-1.507,2.812-2.941,4.319-4.32l2.96,3.538c0.558,0.66,1.349,1.001,2.152,1.001c0.631,0,1.277-0.213,1.796-0.651
			c1.186-0.996,1.342-2.76,0.347-3.948l-2.967-3.554c1.609-1.242,3.271-2.418,4.998-3.513l6.717,11.655
			c0.523,0.897,1.463,1.4,2.433,1.4l1.401-0.369c1.34-0.78,1.8-2.487,1.032-3.833l-6.742-11.688c1.807-0.947,3.642-1.828,5.543-2.61
			l1.596,4.408c0.409,1.138,1.49,1.844,2.633,1.844l0.958-0.167c1.454-0.528,2.208-2.137,1.676-3.592l-1.602-4.427
			c1.938-0.61,3.911-1.127,5.921-1.562l0.812,4.604c0.235,1.363,1.421,2.32,2.752,2.32l0.488-0.046
			c1.524-0.268,2.544-1.718,2.276-3.236l-0.808-4.583c2.005-0.266,4.044-0.427,6.103-0.518l-0.007,13.481
			c0,1.548,1.256,2.802,2.803,2.802c1.545,0,2.801-1.253,2.801-2.802l0.006-13.458c2.06,0.09,4.082,0.252,6.095,0.517l-0.818,4.589
			c-0.275,1.518,0.748,2.974,2.274,3.244l0.494,0.044c1.322,0,2.504-0.952,2.746-2.314l0.82-4.622
			c2.003,0.438,3.983,0.952,5.921,1.562l-1.614,4.421c-0.531,1.458,0.219,3.064,1.671,3.599l0.961,0.167
			c1.149,0,2.224-0.706,2.64-1.836l1.606-4.416c1.904,0.782,3.743,1.664,5.551,2.616l-6.742,11.666
			c-0.778,1.34-0.318,3.054,1.027,3.827l1.4,0.375c0.963,0,1.905-0.504,2.43-1.401l6.726-11.64c1.724,1.1,3.387,2.271,4.996,3.519
			l-2.978,3.532c-1.005,1.183-0.846,2.947,0.34,3.943c0.524,0.443,1.159,0.662,1.8,0.662c0.793,0,1.587-0.342,2.142-0.996
			l2.975-3.538c1.513,1.379,2.946,2.821,4.323,4.32l-3.535,2.95c-1.186,0.99-1.344,2.755-0.35,3.942
			c0.552,0.662,1.346,1.009,2.152,1.009c0.627,0,1.274-0.213,1.787-0.651l3.559-2.963c1.242,1.614,2.419,3.283,3.517,5.009
			l-11.64,6.708c-1.335,0.777-1.794,2.488-1.027,3.831c0.519,0.897,1.461,1.401,2.429,1.401l1.4-0.369l11.667-6.723
			c0.948,1.797,1.822,3.636,2.605,5.524l-4.398,1.589c-1.461,0.534-2.218,2.137-1.693,3.593c0.419,1.144,1.494,1.849,2.646,1.849
			l0.952-0.161l4.431-1.603c0.607,1.941,1.116,3.914,1.562,5.923l-4.614,0.807c-1.521,0.263-2.54,1.713-2.277,3.237
			c0.241,1.363,1.423,2.32,2.759,2.32l0.48-0.044l4.586-0.801c0.275,2.005,0.433,4.045,0.514,6.1l-13.428-0.005
			c-1.543,0-2.802,1.256-2.802,2.802c0,1.548,1.259,2.802,2.802,2.802l13.428,0.005c-0.085,2.052-0.252,4.089-0.514,6.085
			l-4.562-0.814c-1.513-0.252-2.984,0.738-3.251,2.265C131.352,84.717,132.362,86.173,133.888,86.447z"/>
		<path d="M72.866,30.834l-8.399,42.008H36.854c0,19.891,16.122,36.012,36.007,36.012c19.892,0,36.01-16.121,36.01-36.012H81.265
			L72.866,30.834z M66.92,78.798c-1.641-1.64-2.454-3.793-2.454-5.944h16.706L86.72,86.72L66.92,78.798z"/>
	</g>
</g>
<g>
</g>
<g>
</g>
<g>
</g>
<g>
</g>
<g>
</g>
<g>
</g>
<g>
</g>
<g>
</g>
<g>
</g>
<g>
</g>
<g>
</g>
<g>
</g>
<g>
</g>
<g>
</g>
<g>
</g>
</svg>
