<?xml version="1.0" encoding="iso-8859-1"?>
<!-- Generator: Adobe Illustrator 16.0.0, SVG Export Plug-In . SVG Version: 6.00 Build 0)  -->
<!DOCTYPE svg PUBLIC "-//W3C//DTD SVG 1.1//EN" "http://www.w3.org/Graphics/SVG/1.1/DTD/svg11.dtd">
<svg version="1.1" id="Capa_1" xmlns="http://www.w3.org/2000/svg" xmlns:xlink="http://www.w3.org/1999/xlink" x="0px" y="0px"
	 width="168.1px" height="168.1px" viewBox="0 0 168.1 168.1" style="enable-background:new 0 0 168.1 168.1;" xml:space="preserve"
	>
<g>
	<g>
		<path d="M86.852,0h-5.604c-9.245,0-16.81,7.565-16.81,16.811V151.29c0,9.248,7.565,16.81,16.81,16.81h5.604
			c9.248,0,16.81-7.562,16.81-16.81V16.811C103.661,7.565,96.1,0,86.852,0z M78.447,25.215h11.207c2.114,0,3.896,1.231,4.859,2.977
			h-20.92C74.548,26.446,76.335,25.215,78.447,25.215z M89.653,142.885H78.447c-2.111,0-3.899-1.231-4.858-2.976h20.919
			C93.55,141.653,91.768,142.885,89.653,142.885z M95.256,133.606v1.224v1.401v1.05v0.963H95.06l-0.047,0.264H73.095l-0.048-0.264
			h-0.204v-0.963v-1.05v-1.401v-1.231v-1.051h22.413V133.606z M95.256,126.514v0.962v1.401v1.925v0.351H72.843v-0.351v-1.925v-1.401
			v-0.962v-1.314h22.413V126.514z M95.256,120.122v1.4v1.839v0.437H72.843v-0.437v-1.839v-1.4v-2.272h22.413V120.122z
			 M95.256,112.68v0.088v1.4v1.751v0.525H72.843v-0.525v-1.751v-1.4v-0.088v-2.194h22.413V112.68z M95.256,105.237v0.176v1.401
			v1.663v0.607H72.843v-0.607v-1.663v-1.401v-0.176v-2.101h22.413V105.237z M95.256,97.796v0.262v1.401v1.576v0.7H72.843v-0.7
			v-1.576v-1.401v-0.262v-2.014h22.413V97.796z M95.256,90.354v0.35v1.401v1.488v0.788H72.843v-0.788v-1.488v-1.401v-0.35v-1.926
			h22.413V90.354z M95.256,82.912v0.438v1.4v1.4v0.876H72.843v-0.876v-1.4v-1.4v-0.438v-1.838h22.413V82.912z M95.256,75.47v0.528
			V77.4v1.31v0.964H72.843v-0.964V77.4v-1.402V75.47v-1.745h22.413V75.47z M95.256,68.031v0.61v1.401v1.226v1.056H72.843v-1.056
			v-1.226v-1.401v-0.61v-1.667h22.413V68.031z M95.256,60.583v0.701v1.4v1.138v1.136H72.843v-1.136v-1.138v-1.4v-0.701V59.01h22.413
			V60.583z M95.256,53.142v0.791v1.4v1.053v1.229H72.843v-1.229v-1.053v-1.4v-0.791V51.65h22.413V53.142z M95.256,45.702v0.873
			v1.402v0.962v1.311H72.843v-1.311v-0.962v-1.402v-0.873v-1.401h22.413V45.702z M95.256,38.261v0.962v1.401V41.5V42.9H72.843V41.5
			v-0.875v-1.401v-0.962v-1.314h22.413V38.261z M95.256,31.872v1.401v0.791v1.489H72.843v-1.489v-0.791v-1.401v-1.053l0.248-1.226
			h21.914l0.251,1.226V31.872z"/>
	</g>
</g>
<g>
</g>
<g>
</g>
<g>
</g>
<g>
</g>
<g>
</g>
<g>
</g>
<g>
</g>
<g>
</g>
<g>
</g>
<g>
</g>
<g>
</g>
<g>
</g>
<g>
</g>
<g>
</g>
<g>
</g>
</svg>
