<?xml version="1.0" encoding="iso-8859-1"?>
<!-- Generator: Adobe Illustrator 16.0.0, SVG Export Plug-In . SVG Version: 6.00 Build 0)  -->
<!DOCTYPE svg PUBLIC "-//W3C//DTD SVG 1.1//EN" "http://www.w3.org/Graphics/SVG/1.1/DTD/svg11.dtd">
<svg version="1.1" id="Capa_1" xmlns="http://www.w3.org/2000/svg" xmlns:xlink="http://www.w3.org/1999/xlink" x="0px" y="0px"
	 width="199.302px" height="199.303px" viewBox="0 0 199.302 199.303" style="enable-background:new 0 0 199.302 199.303;"
	 xml:space="preserve">
<g>
	<g>
		<path d="M144.791,21.727H50.772c-8.283,0-15.516,4.5-19.438,11.163h9.733c2.628-2.241,5.988-3.642,9.698-3.642
			c8.299,0,15.046,6.752,15.046,15.045v129.521c0,2.08,1.683,3.762,3.759,3.762h94.014c2.073,0,3.767-1.682,3.767-3.762V44.288
			C167.351,31.847,157.22,21.727,144.791,21.727z M144.791,29.248c8.293,0,15.048,6.752,15.048,15.045v83.458h-86.5V44.288
			c0-5.784-2.208-11.045-5.79-15.045h77.242V29.248z M73.338,131.977h86.492v7.519H73.338V131.977z M73.338,170.051v-11.289h86.492
			v11.289H73.338z"/>
		<path d="M50.772,106.191H35.731V55.683h-7.524v54.27c0,2.079,1.686,3.759,3.76,3.759h18.798c2.08,0,3.768-1.68,3.768-3.759
			C54.539,107.877,52.85,106.191,50.772,106.191z"/>
		<path d="M189.543,34.531c-3.272,0-6.167,1.631-7.929,4.113h-11.13c0.401,1.822,0.625,3.704,0.625,5.639v5.643h10.505
			c1.762,2.48,4.656,4.111,7.929,4.111c5.39,0,9.759-4.364,9.759-9.754C199.302,38.903,194.933,34.531,189.543,34.531z"/>
		<path d="M17.685,38.651c-1.765-2.484-4.657-4.114-7.928-4.114C4.366,34.537,0,38.909,0,44.293c0,5.389,4.366,9.754,9.756,9.754
			c3.271,0,6.164-1.631,7.928-4.113h44.373v-5.647c0-2.062-0.599-3.972-1.568-5.636H17.685z"/>
	</g>
</g>
<g>
</g>
<g>
</g>
<g>
</g>
<g>
</g>
<g>
</g>
<g>
</g>
<g>
</g>
<g>
</g>
<g>
</g>
<g>
</g>
<g>
</g>
<g>
</g>
<g>
</g>
<g>
</g>
<g>
</g>
</svg>
