<?xml version="1.0" encoding="iso-8859-1"?>
<!-- Generator: Adobe Illustrator 16.0.0, SVG Export Plug-In . SVG Version: 6.00 Build 0)  -->
<!DOCTYPE svg PUBLIC "-//W3C//DTD SVG 1.1//EN" "http://www.w3.org/Graphics/SVG/1.1/DTD/svg11.dtd">
<svg version="1.1" id="Capa_1" xmlns="http://www.w3.org/2000/svg" xmlns:xlink="http://www.w3.org/1999/xlink" x="0px" y="0px"
	 width="169.08px" height="169.079px" viewBox="0 0 169.08 169.079" style="enable-background:new 0 0 169.08 169.079;"
	 xml:space="preserve">
<g>
	<g>
		<path d="M143.756,44.299c3.514,0,6.369-6.052,6.369-13.527c0-7.469-6.369-21.847-6.369-21.847s-6.369,14.378-6.369,21.847
			C137.387,38.247,140.235,44.299,143.756,44.299z"/>
		<path d="M150.993,113.587c-0.346-2.204-0.933-4.344-1.512-6.487c-0.174-0.631-0.258-1.287-0.449-1.905
			c-5.22-16.98-17.453-31.404-30.638-38.06c-17.459-8.803-6.337-48.173,0-53.142c4.925-3.875,10.359-8.345,23.428-8.345
			c0.501,0,1.018,0.006,1.541,0.016C138.265,1.461,127.811,0,115.685,0C87.576,0,50.509,7.883,50.509,7.883l0.053,0.024
			c-15.613,2.777-27.759,5.483-31.822,13.671c-2.22,4.455-1.708,9.7,1.539,16.031c7.505,14.602,17.53,19.557,24.852,23.18
			c5.897,2.916,9.034,4.629,10.223,8.826l0.945-0.262c-11.603,6.966-22.099,20.351-26.812,35.862
			c-0.21,0.69-0.312,1.401-0.497,2.102c-0.556,2.08-1.114,4.159-1.45,6.293c-0.459,2.879-0.707,5.8-0.707,8.728
			c0,18.633,8.197,35.307,21.142,46.742h82.574c12.938-11.441,21.146-28.109,21.146-46.742
			C151.693,119.389,151.451,116.466,150.993,113.587z M48.818,53.338c-6.976-3.458-14.883-7.362-21.13-19.521
			c-1.935-3.762-2.437-6.635-1.497-8.525c2.544-5.114,15.789-7.439,29.817-9.894l4.583-0.812
			c4.504,5.844,15.035,40.673,1.951,51.001C59.879,59.06,54.342,56.061,48.818,53.338z M63.64,74.688
			c4.88-2.265,11.088-7.437,12.992-19.226c2.209-13.634-2.341-32.84-7.373-42.564c12.023-1.979,28.5-4.219,42.957-4.539
			c-7.168,7.105-12.756,28.052-11.248,43.141c1.4,14.063,8.208,20.301,13.685,23.062c6.001,3.026,12.103,8.399,17.177,15.163H46.583
			C51.631,82.857,57.704,77.442,63.64,74.688z"/>
	</g>
</g>
<g>
</g>
<g>
</g>
<g>
</g>
<g>
</g>
<g>
</g>
<g>
</g>
<g>
</g>
<g>
</g>
<g>
</g>
<g>
</g>
<g>
</g>
<g>
</g>
<g>
</g>
<g>
</g>
<g>
</g>
</svg>
